<svg width="50" height="57" viewBox="0 0 50 57" fill="none" xmlns="http://www.w3.org/2000/svg">
<path fill-rule="evenodd" clip-rule="evenodd" d="M13.2104 12.7183C10.7191 12.7183 8.69952 14.6967 8.69952 17.1372V39.5472C8.69952 41.9877 10.7191 43.9661 13.2104 43.9661H36.0869C38.5782 43.9661 40.5978 41.9877 40.5978 39.5472V17.1372C40.5978 14.6967 38.5782 12.7183 36.0869 12.7183H13.2104ZM15.9042 23.0463C17.392 23.0463 18.5981 21.8648 18.5981 20.4073C18.5981 18.9499 17.392 17.7684 15.9042 17.7684C14.4165 17.7684 13.2104 18.9499 13.2104 20.4073C13.2104 21.8648 14.4165 23.0463 15.9042 23.0463ZM27.5776 27.9722C27.5776 29.4296 26.3715 30.6111 24.8837 30.6111C23.3959 30.6111 22.1899 29.4296 22.1899 27.9722C22.1899 26.5148 23.3959 25.3333 24.8837 25.3333C26.3715 25.3333 27.5776 26.5148 27.5776 27.9722ZM33.8632 39.2315C35.3509 39.2315 36.557 38.0501 36.557 36.5926C36.557 35.1352 35.3509 33.9537 33.8632 33.9537C32.3754 33.9537 31.1693 35.1352 31.1693 36.5926C31.1693 38.0501 32.3754 39.2315 33.8632 39.2315Z" fill="#FFBF00"/>
<path d="M22.729 2.87074C2.64862 5.56777 -0.733065 24.9856 0.11782 34.4971C0.11782 10.2897 17.3452 6.89403 24.0182 6.61301C24.4034 6.59679 24.7018 6.92321 24.6617 7.29879L24.436 9.41395C24.3814 9.92587 24.9415 10.2832 25.3974 10.0273L36.8253 3.61106C37.3451 3.31926 37.2127 2.55136 36.6239 2.44296L23.4172 0.0114184C22.8944 -0.0848396 22.4844 0.44585 22.721 0.912592L23.2461 1.94835C23.4455 2.34177 23.1732 2.81108 22.729 2.87074Z" fill="#FFBF00"/>
<path d="M26.5683 54.1293C46.6487 51.4322 50.0304 32.0144 49.1795 22.5029C49.1795 46.7103 31.9521 50.106 25.2791 50.387C24.8939 50.4032 24.5955 50.0768 24.6356 49.7012L24.8613 47.5861C24.9159 47.0741 24.3558 46.7168 23.8999 46.9727L12.472 53.3889C11.9522 53.6807 12.0846 54.4486 12.6734 54.557L25.8801 56.9886C26.4029 57.0848 26.8129 56.5541 26.5763 56.0874L26.0512 55.0517C25.8518 54.6582 26.1241 54.1889 26.5683 54.1293Z" fill="#FFBF00"/>
</svg>
