<svg width="40" height="40" viewBox="0 0 40 40" fill="none" xmlns="http://www.w3.org/2000/svg">
<g clip-path="url(#clip0_328:2879)">
<path fill-rule="evenodd" clip-rule="evenodd" d="M19.7912 -1.88062e-05C22.2999 0.140332 29.9654 2.24559 32.3347 4.35086C32.7528 4.77191 36.5159 8.28068 37.7703 10.807C38.7459 12.6316 40.0002 20.0702 40.0002 20.6316C40.0002 24.8421 36.2372 33.2631 30.941 36.9123C29.6866 37.7544 21.603 40 19.6518 39.8596C13.1013 39.5789 6.13262 34.9473 4.32077 33.1228C3.20579 32 0.83645 25.5438 0.697077 24.421C0.557704 23.2982 -0.13916 19.0877 -0.13916 17.6842C0.000212684 15.8596 2.09081 9.54384 3.06642 8.14033C5.43575 4.77191 15.0525 -0.280721 19.7912 -1.88062e-05Z" fill="#A1A1A1"/>
<path fill-rule="evenodd" clip-rule="evenodd" d="M3.90244 17.9647C4.04181 16.5612 5.57491 11.9296 6.27178 10.8068C6.27178 10.6665 6.41115 10.6665 6.41115 10.5261C5.15679 10.105 3.62369 8.84189 3.34495 8.14014L3.20557 8.28049C2.22996 9.684 0.139373 15.9998 0 17.8243C0.836237 17.4033 3.0662 17.5436 3.90244 17.9647Z" fill="url(#paint0_radial_328:2879)"/>
<path fill-rule="evenodd" clip-rule="evenodd" d="M6.41142 10.5263C8.36264 8 17.0038 3.92982 19.3731 4.07018C19.7912 3.08772 19.7912 0.701754 19.3731 0C14.6344 0 5.71455 4.63158 3.34521 8.14035C3.62396 8.8421 5.15706 10.1053 6.41142 10.5263Z" fill="url(#paint1_radial_328:2879)"/>
<path fill-rule="evenodd" clip-rule="evenodd" d="M19.5124 4.07018C20.7668 4.21053 26.8992 5.89474 29.1291 7.29825C29.5473 5.89474 30.3835 4.77193 31.4985 3.64912C28.5717 1.82456 22.0211 0.140351 19.7912 0C19.6518 0 19.5124 0 19.373 0C19.6518 0.701754 19.6518 3.08772 19.373 4.07018C19.373 4.07018 19.5124 4.07018 19.5124 4.07018Z" fill="url(#paint2_radial_328:2879)"/>
<path fill-rule="evenodd" clip-rule="evenodd" d="M31.4982 3.64893C30.5226 4.63138 29.6864 5.89454 29.1289 7.29805C29.2683 7.4384 29.4077 7.57875 29.547 7.7191C29.8258 7.9998 32.4739 10.5261 33.5888 12.3507C35.1219 12.07 36.3763 11.3682 37.4913 10.3858C36.0975 7.85945 32.6132 4.63138 32.1951 4.21033C32.0557 4.06998 31.777 3.92963 31.4982 3.64893Z" fill="url(#paint3_radial_328:2879)"/>
<path fill-rule="evenodd" clip-rule="evenodd" d="M37.631 10.3857C36.516 11.3682 35.1222 12.07 33.7285 12.3507C33.7285 12.3507 33.7285 12.491 33.8679 12.491C34.5648 13.8945 36.2372 20.2103 36.2372 20.7717C36.2372 20.9121 36.2372 21.0524 36.2372 21.1928C37.631 20.7717 38.8853 20.6314 40.1397 20.6314C40.1397 20.07 38.8853 12.6314 37.9097 10.8068C37.7703 10.6664 37.631 10.5261 37.631 10.3857Z" fill="url(#paint4_radial_328:2879)"/>
<path fill-rule="evenodd" clip-rule="evenodd" d="M40.0001 20.6313C38.7457 20.6313 37.4914 20.7717 36.0976 21.1928C35.8189 24.5612 32.1952 31.1577 28.4321 33.8243C29.2684 35.3682 30.1046 36.3506 30.9408 37.0524C36.237 33.2629 40.1395 24.8419 40.0001 20.6313Z" fill="url(#paint5_radial_328:2879)"/>
<path fill-rule="evenodd" clip-rule="evenodd" d="M31.0802 36.9121C30.244 36.2104 29.4077 35.3683 28.5715 33.6841C27.5959 34.3858 21.6029 36.07 20.0698 35.9297C20.4879 37.1929 20.3485 38.5964 19.791 39.8595H20.0698C22.2997 39.8595 29.8259 37.8946 31.0802 36.9121Z" fill="url(#paint6_radial_328:2879)"/>
<path fill-rule="evenodd" clip-rule="evenodd" d="M19.791 40.0001C20.3485 38.737 20.4878 37.3335 20.0697 36.0703C16.1673 35.7896 8.08365 30.8773 7.52616 30.3159C6.27181 31.2984 5.2962 32.2808 4.45996 33.2633C6.13244 34.9475 13.2404 39.7194 19.791 40.0001Z" fill="url(#paint7_radial_328:2879)"/>
<path fill-rule="evenodd" clip-rule="evenodd" d="M4.46012 33.1228C5.29636 32.1404 6.27197 31.1579 7.52632 30.1755C7.1082 29.6141 4.59949 23.8597 4.46012 23.0176C3.34514 23.8597 2.09078 24.2807 0.836426 24.4211C0.975799 25.6842 3.34514 32 4.46012 33.1228Z" fill="url(#paint8_radial_328:2879)"/>
<path fill-rule="evenodd" clip-rule="evenodd" d="M0.836396 24.421C2.09075 24.2807 3.34511 23.8596 4.46009 23.0175C4.32072 22.1754 3.76323 18.9473 3.9026 17.9649C3.06636 17.5438 0.836396 17.4035 0.000159139 17.8245C-0.139214 19.2281 0.557651 23.2982 0.836396 24.421Z" fill="url(#paint9_radial_328:2879)"/>
<path fill-rule="evenodd" clip-rule="evenodd" d="M6.69008 10.8069C6.5507 10.9473 6.27196 11.0876 6.13258 11.228C5.15697 13.3333 4.59948 15.1578 4.04199 17.2631C4.04199 18.8069 4.18136 19.9297 4.32074 21.4736C4.46011 22.4561 4.87823 22.5964 5.85384 22.3157C10.035 20.6315 14.2162 19.5087 18.3974 18.5262C20.488 16.9824 23.4148 14.1754 25.0873 12.3508C26.2023 11.0876 27.1779 9.68413 28.5716 7.85957C28.5716 7.71922 28.711 7.71922 28.711 7.57887C28.711 7.43852 28.711 7.29817 28.5716 7.15782C25.5054 5.89466 22.4392 4.77185 19.0943 4.21045C14.9131 5.19291 11.15 6.87712 7.80506 9.40343C7.52631 9.68413 7.24757 9.82448 6.96882 10.1052C6.82945 10.2455 6.82945 10.5262 6.69008 10.8069Z" fill="url(#paint10_radial_328:2879)"/>
<path fill-rule="evenodd" clip-rule="evenodd" d="M28.9898 7.8598C27.8748 9.26331 26.8992 10.6668 25.9236 12.0703C25.7842 12.2107 25.6448 12.4914 26.0629 12.4914C26.7598 12.6317 27.3173 12.7721 28.0141 12.7721C29.4079 12.7721 30.6622 12.4914 31.9166 12.351C32.1953 12.351 32.6135 12.351 32.8922 12.2107C33.1709 12.0703 33.1709 11.93 33.0316 11.6493C32.8922 11.3686 32.7528 11.0879 32.6135 10.8072C31.9166 9.96507 31.2197 9.26331 30.5229 8.56156C30.1047 8.1405 29.826 7.8598 29.2685 7.5791C29.2685 7.5791 29.1291 7.71945 28.9898 7.8598Z" fill="url(#paint11_radial_328:2879)"/>
<path fill-rule="evenodd" clip-rule="evenodd" d="M35.1222 21.4738C33.7285 22.0352 32.3347 22.737 31.0804 23.4387C30.5229 24.2808 29.826 25.1229 29.2685 25.965C29.1292 27.0878 28.9898 28.0703 28.8504 29.1931C28.7111 30.3159 28.5717 31.2984 28.4323 32.4212C28.4323 32.9826 28.2929 33.544 28.5717 33.544C28.711 33.544 29.1292 33.2633 29.6867 32.8422C30.5229 32.1405 31.4985 31.0177 31.6379 30.8773C32.6135 29.6142 33.5891 28.2107 34.286 26.8071C34.8435 25.4036 35.6797 23.8598 35.9584 22.4563C35.9584 21.6142 36.0978 21.1931 35.1222 21.4738Z" fill="url(#paint12_radial_328:2879)"/>
<path fill-rule="evenodd" clip-rule="evenodd" d="M30.9409 23.298C32.474 22.7366 34.704 21.3331 35.1221 21.1928C35.819 20.912 36.0977 20.912 35.9583 20.3506C35.6796 19.3682 35.5402 18.3857 35.2615 17.5436C34.8434 15.9998 34.1465 14.4559 33.7284 12.912C33.589 12.7717 33.589 12.6313 33.4496 12.6313C33.0315 12.6313 32.474 12.6313 32.0559 12.6313C30.8016 12.7717 29.5472 12.912 28.2928 13.0524C28.0141 13.0524 27.7354 13.0524 27.4566 13.0524C27.0385 13.0524 26.481 12.912 26.0629 12.912C25.5054 12.912 25.366 13.0524 24.9479 13.4735C22.8573 15.298 20.9061 17.1226 18.9549 18.9471C13.9374 19.7892 9.19876 21.0524 5.01758 23.1577C5.15695 25.4033 6.55068 28.2103 7.80503 30.1752C8.78064 31.0173 10.035 31.7191 11.15 32.4208C13.9374 33.9647 17.7005 35.6489 20.0698 35.9296C20.6273 35.9296 21.8817 35.7892 23.136 35.5085C24.8085 34.9471 26.481 34.5261 27.8747 33.8243C28.1535 33.4033 28.0141 32.7015 28.0141 32.1401C28.2928 30.0349 28.5716 27.7892 28.9897 25.684C29.8259 24.9822 30.3834 24.1401 30.9409 23.298Z" fill="url(#paint13_radial_328:2879)"/>
<path opacity="0.5" fill-rule="evenodd" clip-rule="evenodd" d="M16.1674 8.70162C15.8887 8.56127 15.7493 8.14021 15.8887 7.85951C16.5855 7.01741 17.5611 6.456 18.5367 6.03495C18.8155 5.8946 19.2336 5.8946 19.5124 6.03495C20.3486 6.456 21.3242 7.01741 21.8817 7.85951C22.7179 9.12267 19.2336 9.40337 18.6761 9.40337C17.9793 9.26302 17.0036 9.12267 16.1674 8.70162Z" fill="#BDC8C9"/>
<path fill-rule="evenodd" clip-rule="evenodd" d="M16.1674 8.56148C15.8887 8.42113 15.8887 7.85973 16.0281 7.71938C16.7249 6.87727 17.7005 6.45622 18.5368 5.89481C18.8155 5.75446 19.2336 5.75446 19.5124 5.89481C20.3486 6.31587 21.3242 6.87727 21.8817 7.57903C22.718 8.70183 19.373 8.98253 18.8155 8.98253C17.9793 8.98253 17.0037 8.98253 16.1674 8.56148Z" fill="url(#paint14_radial_328:2879)"/>
<path opacity="0.5" fill-rule="evenodd" clip-rule="evenodd" d="M24.9477 8C24.8084 8 24.2509 8.14035 23.9721 8.42105C23.6934 8.5614 23.6934 8.70176 23.8328 8.84211C24.1115 9.26316 24.669 9.82456 25.2265 10.1053C25.3659 10.2456 25.6446 10.2456 25.9234 10.1053C26.2021 9.82456 26.3415 9.40351 26.4808 9.12281C26.4808 8.98246 26.3415 8.5614 26.2021 8.42105C25.784 8.14035 25.2265 8.14035 24.9477 8Z" fill="#BDC8C9"/>
<path fill-rule="evenodd" clip-rule="evenodd" d="M24.8085 8C24.6692 8 24.1117 8.14035 23.8329 8.2807C23.8329 8.42105 23.6936 8.70176 23.8329 8.84211C24.1117 9.26316 24.6692 9.68421 25.2267 9.96491C25.366 10.1053 25.6448 10.1053 25.9235 9.96491C26.2023 9.68421 26.3417 9.40351 26.481 8.98246C26.481 8.84211 26.3417 8.42105 26.2023 8.14035C25.7842 8.14035 25.2267 8 24.8085 8Z" fill="url(#paint15_radial_328:2879)"/>
<path opacity="0.5" fill-rule="evenodd" clip-rule="evenodd" d="M17.9792 31.0177C17.5611 31.0177 15.8886 30.5967 15.6099 30.5967C15.3311 30.5967 15.4705 32.0002 15.8886 32.2809C16.7248 32.8423 17.143 33.4037 17.5611 33.5441C17.7005 33.5441 18.2579 33.6844 18.9548 33.8248C19.5123 33.9651 20.0698 34.2458 20.3485 34.1055C21.1848 33.9651 22.7179 33.123 22.8573 32.5616C23.136 31.8598 22.7179 30.8774 22.021 30.8774C21.4635 30.8774 19.5123 31.1581 17.9792 31.0177Z" fill="#BDC8C9"/>
<path fill-rule="evenodd" clip-rule="evenodd" d="M17.9792 30.8773C17.5611 30.8773 15.8886 30.4563 15.6099 30.3159C15.3311 30.3159 15.4705 31.7194 15.8886 32.0001C16.7248 32.5615 17.143 33.1229 17.5611 33.2633C17.8398 33.4036 19.791 33.965 20.3485 33.8247C21.1848 33.6843 22.7179 32.9826 22.9966 32.4212C23.2754 31.7194 22.8573 30.737 22.021 30.737C21.4635 30.737 19.5123 31.0177 17.9792 30.8773Z" fill="url(#paint16_radial_328:2879)"/>
<path opacity="0.75" fill-rule="evenodd" clip-rule="evenodd" d="M19.5122 0.421031C23.554 0.982435 28.8502 2.52629 30.662 4.63156C33.4495 5.47366 36.0976 8.42103 36.9338 10.9473C38.7456 13.3333 39.4425 17.8245 39.5819 20.6316C40 21.4737 39.5819 23.4386 39.0244 25.5438C39.7213 23.7193 40 22.0351 40 20.6316C40 20.0702 38.7456 12.6316 37.77 10.807C36.5157 8.28068 32.7526 4.77191 32.3345 4.35086C29.9652 2.24559 22.2997 0.28068 19.7909 -2.15024e-05C15.0523 -0.280723 5.43554 4.77191 3.20557 8.28068C2.22996 9.68419 0.139373 16 0 17.8245C0 18.6666 0.139373 20.3509 0.278746 21.7544C0.278746 20.4912 0.139373 18.3859 0.418118 17.6842C1.25436 14.7368 2.09059 11.228 3.62369 8.56138C8.223 4.21051 14.3554 0.842084 19.5122 0.421031Z" fill="#EDF5F7"/>
<path fill-rule="evenodd" clip-rule="evenodd" d="M3.76332 8.7016C4.59955 9.68406 4.73893 9.96476 5.57516 10.6665C5.57516 10.8069 5.57516 10.9472 5.57516 11.0876C5.01767 12.9121 4.32081 14.877 3.62394 16.842C3.3452 17.4034 3.3452 17.5437 2.64834 17.5437C2.09084 17.5437 1.67273 17.6841 1.11523 17.6841C2.36959 17.8244 3.48457 17.6841 3.62394 18.3858C3.90269 19.9297 4.04206 21.4735 4.04206 23.0174C3.90269 23.7191 3.06645 23.9998 2.09084 24.2805C3.06645 24.1402 3.20583 24.1402 3.90269 23.7191C4.46018 23.4384 4.32081 23.7191 4.59955 24.2805C5.29642 26.1051 6.13266 27.7893 6.96889 29.4735C7.24764 30.0349 7.38701 30.1753 6.96889 30.7367C6.55077 31.1577 6.27203 31.4384 5.85391 31.8595C6.13266 31.4384 6.55077 31.1577 6.96889 30.877C7.38701 30.7367 7.52638 30.5963 7.66576 30.7367C8.78074 31.7191 16.3069 36.07 20.0699 36.4911C21.3243 36.6314 26.3417 35.2279 28.1536 34.5262C28.4323 34.5262 28.5717 34.6665 28.7111 34.6665C28.9898 34.9472 28.9898 35.0876 29.2685 35.3683C29.4079 35.3683 30.2442 36.2104 30.3835 36.3507C29.9654 35.9297 29.6867 35.5086 29.2685 35.0876C29.1292 34.8069 28.8504 34.3858 28.8504 33.9648C28.8504 33.9648 28.8504 33.8244 28.9898 33.8244C31.6379 31.7191 34.0072 27.9297 35.2616 24.842C35.8191 23.9998 36.2372 23.1577 36.3766 22.7367C36.5159 22.1753 36.3766 21.7542 36.3766 21.1928C37.3522 20.9121 38.3278 20.7718 39.3034 20.6314C38.1884 20.6314 37.3522 20.6314 36.3766 20.9121C36.3766 20.7718 36.3766 20.6314 36.3766 20.6314C36.0978 19.7893 35.8191 18.8069 35.5403 17.9648C35.2616 17.1227 35.2616 16.4209 34.9828 15.5788C34.7041 14.5963 34.1466 13.7542 34.1466 12.6314C34.1466 12.3507 34.7041 12.4911 34.7041 12.4911C35.4009 12.2104 35.9584 11.7893 36.6553 11.3683C36.0978 11.649 35.5403 11.7893 34.9828 12.07C34.5647 12.2104 34.286 12.2104 33.8678 12.2104C33.7285 12.2104 33.5891 12.2104 33.5891 12.07C33.0316 11.2279 32.4741 10.5262 31.7773 9.68406C31.2198 8.9823 30.3835 8.4209 29.826 7.85949C29.5473 7.57879 29.4079 7.43844 29.4079 7.01739C29.4079 6.73669 29.5473 6.59634 29.5473 6.31564C29.6867 5.89458 30.1048 5.47353 30.3835 4.91213C30.1048 5.33318 29.6867 5.75423 29.4079 6.03493C29.4079 6.03493 29.2685 6.45599 29.1292 6.59634C28.8504 7.15774 28.7111 7.01739 28.2929 6.73669C26.8992 6.17528 25.6448 5.47353 24.2511 4.91213C23.2755 4.63142 19.5124 4.35072 19.5124 3.08757C19.5124 2.10511 19.3731 1.68406 19.3731 0.420898C19.3731 1.40335 19.3731 3.36827 19.0943 3.64897C18.8156 3.92967 18.5368 3.92967 18.1187 4.07002C16.725 4.49107 15.3313 4.77178 13.9375 5.19283C12.5438 5.89458 5.85391 10.1051 5.71454 10.1051C5.43579 9.96476 4.46018 9.40335 3.76332 8.7016ZM11.1501 32.5613C9.89572 31.8595 8.78074 31.1577 7.80513 30.3156C6.55077 28.3507 5.15705 25.5437 5.01767 23.2981C9.19886 21.1928 13.9375 19.9297 18.8156 18.9472C20.7668 17.1227 22.718 15.2981 24.8086 13.4735C25.2267 13.1928 25.3661 13.0525 25.9236 13.0525C26.3417 13.0525 26.8992 13.1928 27.3173 13.1928C27.5961 13.1928 27.8748 13.1928 28.1536 13.1928C29.5473 12.9121 30.8016 12.6314 32.056 12.6314C32.3347 12.6314 32.4741 12.6314 32.7529 12.6314C32.8922 12.9121 33.0316 13.0525 33.171 13.1928C33.171 13.3332 33.3104 13.4735 33.3104 13.6139C33.171 13.3332 33.0316 13.0525 32.8922 12.7718L32.7529 12.6314C33.0316 12.6314 33.171 12.6314 33.4497 12.6314C33.4497 12.7718 33.5891 12.9121 33.5891 12.9121C34.1466 14.456 34.7041 15.9998 35.1222 17.5437C35.4009 18.5262 35.5403 19.5086 35.8191 20.3507C35.9584 20.9121 35.8191 20.9121 34.9828 21.1928C34.5647 21.3332 32.3347 22.7367 30.8016 23.2981C30.2442 24.1402 29.6867 24.9823 28.9898 25.8244C28.7111 27.9297 28.4323 30.1753 28.0142 32.2805C27.8748 32.7016 28.0142 33.4034 27.8748 33.9648C26.4811 34.6665 24.8086 35.0876 23.1361 35.649C21.7424 35.9297 20.6274 36.2104 20.0699 36.07C17.7006 35.7893 13.9375 34.1051 11.1501 32.5613ZM31.4985 30.7367C31.3591 30.877 30.3835 31.9998 29.5473 32.7016C28.9898 33.1227 28.5717 33.4034 28.4323 33.4034C28.2929 33.4034 28.2929 32.842 28.2929 32.2805C28.4323 31.1577 28.5717 30.1753 28.7111 29.0525C28.8504 27.9297 28.9898 26.9472 29.1292 25.8244C29.826 24.9823 30.3835 24.2806 30.941 23.2981C32.1954 22.5963 33.5891 21.8946 34.9828 21.3332C35.9584 20.9121 35.8191 21.4735 35.6797 22.1753C35.4009 23.7191 34.5647 25.263 34.0072 26.5262C33.4497 28.2104 32.6135 29.6139 31.4985 30.7367ZM34.1466 26.8069C34.286 26.5262 34.4253 26.3858 34.5647 26.1051C34.4253 26.2455 34.286 26.5262 34.1466 26.8069ZM19.3731 5.61388C20.7668 5.61388 25.9236 7.15774 28.1536 8.1402L28.2929 8.4209C27.0386 9.96476 26.2023 11.2279 25.0874 12.4911C23.4149 14.456 20.3487 17.1227 18.3975 18.6665C14.2163 19.649 10.0351 20.7718 5.85391 22.456C4.8783 22.877 4.46018 22.7367 4.32081 21.6139C4.04206 20.07 4.04206 18.9472 4.04206 17.4034C4.73893 15.1577 5.15705 13.3332 6.13266 11.2279C6.27203 10.9472 6.55077 10.9472 6.69015 10.8069C6.82952 10.5262 6.82952 10.2455 6.96889 10.1051C7.24764 9.82441 7.52638 9.68406 7.80513 9.40335C11.2894 6.87704 15.0525 5.19283 19.0943 4.21037C22.2999 4.77178 25.5055 5.89458 28.5717 7.15774C28.7111 7.15774 28.7111 7.43844 28.7111 7.57879C28.7111 7.71914 28.7111 7.71914 28.5717 7.85949C26.8992 6.87704 20.9062 5.05248 19.2337 5.05248C16.8644 5.05248 8.22325 9.54371 7.10826 10.9472C6.82952 11.3683 4.46018 16.7016 4.46018 17.9648V18.1051C4.73893 16.5612 6.82952 11.7893 7.10826 11.3683C8.22325 9.96476 17.0037 5.47353 19.3731 5.61388ZM28.7111 8.4209C28.8504 8.4209 28.8504 8.4209 28.7111 8.4209C29.826 9.12265 31.6379 11.0876 32.6135 12.4911C32.3347 12.4911 32.1954 12.4911 31.9166 12.4911C30.6623 12.6314 29.4079 12.9121 28.0142 12.9121C27.3173 12.9121 26.6205 12.7718 26.063 12.6314C25.6448 12.4911 25.7842 12.3507 25.9236 12.2104C26.7598 10.9472 27.4567 9.68406 28.4323 8.56125C28.5717 8.4209 28.7111 8.28055 28.7111 8.4209ZM32.7529 12.3507C31.9166 11.0876 29.826 8.7016 28.8504 7.99985C28.8504 7.85949 28.9898 7.85949 28.9898 7.71914C29.1292 7.71914 29.2685 7.57879 29.2685 7.71914C29.6867 7.99985 30.1048 8.4209 30.5229 8.7016C31.2198 9.40335 32.056 10.1051 32.6135 10.9472C32.7529 11.2279 32.8922 11.5086 33.0316 11.7893C33.171 12.07 33.3104 12.2104 32.8922 12.3507C32.8922 12.3507 32.8922 12.3507 32.7529 12.3507Z" fill="url(#paint17_radial_328:2879)"/>
<path fill-rule="evenodd" clip-rule="evenodd" d="M4.46004 23.0177C4.59942 23.8598 7.10813 29.7545 7.52625 30.1756C7.94436 30.8773 16.1674 35.6493 20.0698 35.93C21.6029 36.0703 27.5959 34.3861 28.5715 33.6843C32.3346 31.0177 35.9583 24.4212 36.237 21.0528C36.237 20.9124 36.237 20.7721 36.237 20.6317C36.237 20.2107 34.5646 13.7545 33.8677 12.351C33.8677 12.351 33.8677 12.2107 33.7283 12.2107C32.6134 10.3861 29.9653 7.85979 29.6865 7.57908C29.5471 7.43873 29.4078 7.29838 29.2684 7.15803C26.8991 5.89487 20.7667 4.21066 19.5123 4.07031C19.5123 4.07031 19.3729 4.07031 19.2336 4.07031C16.8642 4.07031 8.36248 8.00014 6.27189 10.5265C6.27189 10.6668 6.13252 10.6668 6.13252 10.8072C5.57503 11.7896 4.04193 16.5615 3.90255 17.965C3.76318 18.9475 4.32067 22.1756 4.46004 23.0177Z" fill="url(#paint18_linear_328:2879)"/>
<path opacity="0.5" fill-rule="evenodd" clip-rule="evenodd" d="M6.69008 10.5265C9.33816 8.00014 17.0037 4.49137 19.2336 4.49137C19.373 4.49137 19.373 4.49137 19.5124 4.49137C20.6274 4.63172 26.0629 6.03522 28.711 7.43873C28.8504 7.57908 28.9897 7.57908 29.1291 7.71943C29.1291 7.71943 29.2685 7.71943 29.2685 7.85979C29.4078 8.00014 29.5472 8.14049 29.6866 8.28084C29.9653 8.56154 31.9166 10.3861 33.1709 12.0703C33.4497 12.351 33.589 12.6317 33.7284 12.9124C33.7284 12.9124 33.7284 13.0528 33.8678 13.0528C34.4253 14.1756 35.6796 18.3861 36.0977 20.351C35.819 18.8072 34.4253 13.7545 33.7284 12.6317C33.7284 12.6317 33.7284 12.4914 33.589 12.4914C32.474 10.6668 29.826 8.14049 29.5472 7.85979C29.4078 7.71943 29.2685 7.57908 29.1291 7.43873C26.8991 5.89487 20.7667 4.21066 19.5124 4.07031C19.5124 4.07031 19.373 4.07031 19.2336 4.07031C16.8643 4.07031 8.36255 8.00014 6.27196 10.5265C6.27196 10.6668 6.13258 10.6668 6.13258 10.8072C5.57509 11.6493 4.32074 15.4387 4.04199 17.2633C4.46011 15.4387 5.43572 12.351 6.13258 11.3686C6.13258 11.3686 6.13258 11.2282 6.27196 11.2282C6.27196 11.0879 6.41133 11.0879 6.41133 10.9475C6.41133 10.9475 6.5507 10.8072 6.69008 10.5265Z" fill="black"/>
<path fill-rule="evenodd" clip-rule="evenodd" d="M19.2336 5.33342C14.7736 5.61412 9.19873 8.84219 7.38689 10.9475C6.41128 12.0703 4.87818 16.1404 4.59943 17.965C4.32069 20.4913 5.2963 26.3861 8.08375 29.4738C10.035 31.7194 17.0036 35.3685 20.2092 35.3685C22.5785 35.3685 25.7841 34.5264 28.0141 33.2632C31.6378 31.0176 35.2614 25.2632 35.2614 21.0527C35.2614 18.3861 34.0071 15.158 32.7527 13.0527C31.7771 11.2282 30.3834 9.6843 28.7109 8.28079C26.8991 6.59658 21.8817 5.19307 19.2336 5.33342Z" fill="url(#paint19_radial_328:2879)"/>
<path fill-rule="evenodd" clip-rule="evenodd" d="M7.10791 25.9649C7.38666 27.3685 8.50164 29.0527 8.78038 29.3334C11.5678 32.4211 17.5609 34.6667 20.0696 34.6667C22.4389 34.8071 26.6201 33.5439 28.4319 32.1404C31.08 30.1755 33.5887 26.8071 34.0069 23.0176C31.9163 29.8948 25.9232 32.8421 20.3483 32.9825C15.8884 33.2632 9.1985 30.5965 7.10791 25.9649Z" fill="url(#paint20_radial_328:2879)"/>
<path fill-rule="evenodd" clip-rule="evenodd" d="M11.7075 9.9651C9.33815 12.6318 10.035 14.8774 13.9375 13.7546C17.143 12.7721 19.2336 12.0704 22.0211 10.1055C23.8329 8.84229 22.9967 6.73703 19.5124 6.59668C17.0037 6.59668 13.5193 8.00019 11.7075 9.9651Z" fill="url(#paint21_radial_328:2879)"/>
<path fill-rule="evenodd" clip-rule="evenodd" d="M13.9374 27.7896C11.8468 28.351 13.2405 30.1756 14.4949 30.737C18.2579 32.7019 23.2754 32.1405 27.0384 29.8949C29.4078 28.4914 31.2196 26.2458 32.3346 23.8598C33.4496 21.1931 32.1952 17.9651 29.9653 20.2107C27.4565 22.5967 25.5053 24.0002 23.136 24.9826C19.6517 26.3861 16.8642 27.0879 13.9374 27.7896Z" fill="url(#paint22_radial_328:2879)"/>
<path fill-rule="evenodd" clip-rule="evenodd" d="M22.8572 31.4385C25.5053 30.8771 28.7109 29.4736 30.6621 26.6666C31.2196 25.6841 31.4984 23.8596 30.1046 25.2631C27.3172 27.9298 25.7841 28.7719 22.1604 30.035C19.9304 30.8771 18.8154 30.8771 18.8154 31.2982C18.8154 31.5789 20.4879 31.8596 22.8572 31.4385Z" fill="url(#paint23_radial_328:2879)"/>
<path d="M28 25.7147L22.2853 20L28 14.2853L25.7147 12L20 17.7147L14.2853 12L12 14.2853L17.7147 20L12 25.7147L14.2853 28L20 22.2853L25.7147 28L28 25.7147Z" fill="white"/>
</g>
<defs>
<radialGradient id="paint0_radial_328:2879" cx="0" cy="0" r="1" gradientUnits="userSpaceOnUse" gradientTransform="translate(7.95275 10.1799) scale(32.9455 33.1767)">
<stop stop-color="#BDCACF"/>
<stop offset="1" stop-color="#828599"/>
</radialGradient>
<radialGradient id="paint1_radial_328:2879" cx="0" cy="0" r="1" gradientUnits="userSpaceOnUse" gradientTransform="translate(17.7586 1.15453) scale(31.9992 32.2237)">
<stop stop-color="#D3DBDE"/>
<stop offset="1" stop-color="#BCC0DE"/>
</radialGradient>
<radialGradient id="paint2_radial_328:2879" cx="0" cy="0" r="1" gradientUnits="userSpaceOnUse" gradientTransform="translate(20.7931 -1.24154) scale(18.8705 19.0029)">
<stop stop-color="#E4ECF0"/>
<stop offset="1" stop-color="#BCC0DE"/>
</radialGradient>
<radialGradient id="paint3_radial_328:2879" cx="0" cy="0" r="1" gradientUnits="userSpaceOnUse" gradientTransform="translate(29.8093 3.901) scale(21.6842 21.8364)">
<stop stop-color="#BDCACF"/>
<stop offset="1" stop-color="#828599"/>
</radialGradient>
<radialGradient id="paint4_radial_328:2879" cx="0" cy="0" r="1" gradientUnits="userSpaceOnUse" gradientTransform="translate(32.7659 12.0632) scale(19.0673 19.2011)">
<stop stop-color="#9DA7AB"/>
<stop offset="1" stop-color="#828599"/>
</radialGradient>
<radialGradient id="paint5_radial_328:2879" cx="0" cy="0" r="1" gradientUnits="userSpaceOnUse" gradientTransform="translate(20.7162 16.9209) scale(40.1316 40.4132)">
<stop stop-color="#9DA9AB"/>
<stop offset="1" stop-color="#5B5E6B"/>
</radialGradient>
<radialGradient id="paint6_radial_328:2879" cx="0" cy="0" r="1" gradientUnits="userSpaceOnUse" gradientTransform="translate(20.6514 22.9385) scale(20.6952 20.8404)">
<stop stop-color="#9DA9AB"/>
<stop offset="1" stop-color="#555763"/>
</radialGradient>
<radialGradient id="paint7_radial_328:2879" cx="0" cy="0" r="1" gradientUnits="userSpaceOnUse" gradientTransform="translate(12.1145 22.1886) scale(26.922 27.1109)">
<stop stop-color="#9DA9AB"/>
<stop offset="1" stop-color="#5B5E6B"/>
</radialGradient>
<radialGradient id="paint8_radial_328:2879" cx="0" cy="0" r="1" gradientUnits="userSpaceOnUse" gradientTransform="translate(12.7281 19.4117) scale(30.9066 31.1235)">
<stop stop-color="#9DA7AB"/>
<stop offset="1" stop-color="#828599"/>
</radialGradient>
<radialGradient id="paint9_radial_328:2879" cx="0" cy="0" r="1" gradientUnits="userSpaceOnUse" gradientTransform="translate(6.91988 17.2704) scale(25.5717 25.7512)">
<stop stop-color="#AFBBBF"/>
<stop offset="1" stop-color="#828599"/>
</radialGradient>
<radialGradient id="paint10_radial_328:2879" cx="0" cy="0" r="1" gradientUnits="userSpaceOnUse" gradientTransform="translate(19.3352 19.7257) scale(52.5766 52.9455)">
<stop stop-color="#A2ACB0"/>
<stop offset="1" stop-color="#828599"/>
</radialGradient>
<radialGradient id="paint11_radial_328:2879" cx="0" cy="0" r="1" gradientUnits="userSpaceOnUse" gradientTransform="translate(25.7032 15.5529) scale(14.8878 14.9923)">
<stop stop-color="#9DA9AB"/>
<stop offset="1" stop-color="#717485"/>
</radialGradient>
<radialGradient id="paint12_radial_328:2879" cx="0" cy="0" r="1" gradientUnits="userSpaceOnUse" gradientTransform="translate(41.6724 33.9927) scale(20.9781 21.1253)">
<stop stop-color="#ADBABD"/>
<stop offset="1" stop-color="#717485"/>
</radialGradient>
<radialGradient id="paint13_radial_328:2879" cx="0" cy="0" r="1" gradientUnits="userSpaceOnUse" gradientTransform="translate(17.8966 12.8649) scale(39.3542 39.6303)">
<stop stop-color="#9DA9AB"/>
<stop offset="1" stop-color="#717485"/>
</radialGradient>
<radialGradient id="paint14_radial_328:2879" cx="0" cy="0" r="1" gradientUnits="userSpaceOnUse" gradientTransform="translate(19.1864 11.0406) scale(8.41561 8.47467)">
<stop stop-color="#9DA9AB"/>
<stop offset="1" stop-color="#717485"/>
</radialGradient>
<radialGradient id="paint15_radial_328:2879" cx="0" cy="0" r="1" gradientUnits="userSpaceOnUse" gradientTransform="translate(25.3603 10.6119) scale(4.03959 4.06793)">
<stop stop-color="#9DA9AB"/>
<stop offset="1" stop-color="#717485"/>
</radialGradient>
<radialGradient id="paint16_radial_328:2879" cx="0" cy="0" r="1" gradientUnits="userSpaceOnUse" gradientTransform="translate(19.3984 28.9123) scale(9.75763 9.8261)">
<stop stop-color="#717485"/>
<stop offset="1" stop-color="#9DA9AB"/>
</radialGradient>
<radialGradient id="paint17_radial_328:2879" cx="0" cy="0" r="1" gradientUnits="userSpaceOnUse" gradientTransform="translate(11.3074 6.81557) scale(40.8921 41.1791)">
<stop stop-color="#E2F1F7"/>
<stop offset="1" stop-color="#9A9DB5"/>
</radialGradient>
<linearGradient id="paint18_linear_328:2879" x1="20.022" y1="36.0373" x2="20.022" y2="4.05109" gradientUnits="userSpaceOnUse">
<stop stop-color="#79878F"/>
<stop offset="1" stop-color="#5D6B73"/>
</linearGradient>
<radialGradient id="paint19_radial_328:2879" cx="0" cy="0" r="1" gradientUnits="userSpaceOnUse" gradientTransform="translate(16.062 6.69005) scale(29.9855 30.1959)">
<stop stop-color="#FFBA0A"/>
<stop offset="1" stop-color="#CF6300"/>
</radialGradient>
<radialGradient id="paint20_radial_328:2879" cx="0" cy="0" r="1" gradientUnits="userSpaceOnUse" gradientTransform="translate(22.6611 30.6433) scale(17.3645 17.4863)">
<stop stop-color="white" stop-opacity="0"/>
<stop offset="1" stop-color="white" stop-opacity="0.38"/>
</radialGradient>
<radialGradient id="paint21_radial_328:2879" cx="0" cy="0" r="1" gradientUnits="userSpaceOnUse" gradientTransform="translate(15.4924 6.61843) scale(17.4774 17.6)">
<stop stop-color="white" stop-opacity="0.67"/>
<stop offset="1" stop-color="white" stop-opacity="0"/>
</radialGradient>
<radialGradient id="paint22_radial_328:2879" cx="0" cy="0" r="1" gradientUnits="userSpaceOnUse" gradientTransform="translate(29.1892 35.0678) scale(20.6018 20.7464)">
<stop stop-color="white" stop-opacity="0.35"/>
<stop offset="1" stop-color="white" stop-opacity="0"/>
</radialGradient>
<radialGradient id="paint23_radial_328:2879" cx="0" cy="0" r="1" gradientUnits="userSpaceOnUse" gradientTransform="translate(34.0216 31.5726) scale(18.2328 18.3607)">
<stop stop-color="white" stop-opacity="0.51"/>
<stop offset="1" stop-color="white" stop-opacity="0"/>
</radialGradient>
<clipPath id="clip0_328:2879">
<rect width="40" height="40" fill="white"/>
</clipPath>
</defs>
</svg>
