<svg width="208" height="228" viewBox="0 0 208 228" fill="none" xmlns="http://www.w3.org/2000/svg" xmlns:xlink="http://www.w3.org/1999/xlink">
<g filter="url(#filter0_d_238:275)">
<path d="M120.697 198.166C120.697 204.967 114.489 205.675 106.83 205.675C99.1721 205.675 92.9639 204.967 92.9639 198.166C92.9639 191.364 99.1721 184.875 106.83 184.875C114.489 184.875 120.697 191.364 120.697 198.166Z" fill="url(#paint0_linear_238:275)" fill-opacity="0.5"/>
<path d="M90.4437 213.885C84.2884 212.126 85.2698 208.888 88.9055 205.167C92.7949 201.87 99.9128 197.503 108.841 199.059C117.77 200.614 120.932 202.272 122.827 205.007C124.722 207.742 127.105 210.811 126.513 212.841C126.039 214.464 119.918 215.011 117.128 215.885H101.908L90.4437 213.885Z" fill="#A6B0B7"/>
<path d="M104.125 198.657C92.7951 200.094 90.0332 204.209 90.4277 205.505C89.1876 206.52 94.6659 208.477 103.618 208.042C124.502 207.027 121.317 205.449 121.712 204.406C120.359 200.551 109.367 198.403 104.125 198.657Z" fill="url(#paint1_linear_238:275)"/>
<path d="M122.304 204.575C122.304 205.844 118.245 206.886 116.3 207.365C115.895 208.312 118.217 213.059 119.429 215.313C124.84 214.722 126.644 213.228 126.7 212.777C126.954 209.902 122.304 204.237 122.304 204.575Z" fill="#6C717A"/>
<path d="M115.709 207.619C110.027 207.213 105.224 208.239 103.533 208.803L101.927 215.905H117.146L119.429 215.313L115.709 207.619Z" fill="#7C848B"/>
<path d="M103.28 208.719C99.9653 207.298 96.6565 207.563 95.4164 207.873C94.4694 210.782 92.6544 213.256 91.8652 214.13L102.011 215.99L103.28 208.719Z" fill="#939AA4"/>
<path d="M90.8119 203.757C90.8245 203.748 90.8372 203.739 90.8499 203.73C90.8371 203.739 90.8245 203.748 90.8119 203.757C90.0682 204.314 89.3961 205.853 92.1779 206.593C95.0071 207.346 95.967 207.278 96.3039 207.278L103.611 207.599L116.073 206.914L121.041 205.46C121.995 205.061 121.796 203.983 121.796 203.983C121.796 203.983 122.134 203.983 122.303 205.252C122.079 205.565 120.839 206.315 116.663 207.342C116.522 208.112 117.102 210.101 117.944 212.239C117.355 211.042 116.157 209.583 115.484 207.599C112.509 207.456 106.019 207.479 103.864 208.711C103.695 210.222 102.535 213.865 102.282 214.806C102.282 214.207 102.87 211.996 102.938 208.711C101.955 208.14 99.199 207.171 96.033 207.855C95.0506 208.682 93.9462 212.154 92.7673 213.009C93.1042 212.696 94.5356 210.101 95.191 207.599C94.5454 207.142 91.7722 207.84 90.4097 205.973C89.328 204.491 89.2434 205.505 89.2434 205.505C89.2434 205.505 88.4067 205.505 90.8119 203.757Z" fill="#637179"/>
<path d="M91.4421 203.223C90.6811 203.748 89.193 206.03 92.0339 206.774C94.8749 207.518 95.8388 207.45 96.177 207.45L103.515 207.767L116.028 207.091L121.017 205.654C122.219 204.914 121.965 203.392 119.598 202.208C120.838 202.518 122.05 203.73 122.642 205.167C122.416 205.477 120.814 206.499 116.62 207.514C116.479 208.275 117.061 210.24 117.907 212.354C117.315 211.171 116.113 209.729 115.436 207.767C112.449 207.627 105.933 207.649 103.768 208.867C103.599 210.36 102.434 213.961 102.18 214.891C102.18 214.299 102.771 212.113 102.838 208.867C101.852 208.303 99.0841 207.345 95.905 208.021C94.9186 208.838 93.8095 212.27 92.6258 213.115C92.964 212.805 94.4014 210.24 95.0595 207.767C94.7509 207.553 93.9998 207.563 93.13 207.45L91.8648 208.211L91.6957 209.564L90.6811 210.24L91.4421 209.564V208.211L92.2876 207.297C91.5692 207.12 90.84 206.798 90.2584 206.161C88.5011 204.237 86.369 208.408 86.0308 209.564C86.1717 207.986 88.2291 205.336 91.4421 203.223Z" fill="url(#paint2_linear_238:275)"/>
<path d="M86.1157 210.325C86.764 211.424 88.8721 213.639 92.1189 213.707C93.7106 214.074 96.0745 214.591 98.1019 214.975L100.483 215.378C101.444 215.512 102.075 215.542 102.096 215.398C106.614 215.641 112.562 215.344 115.793 215.229L115.54 213.876L114.441 213.369L114.018 212.269L114.525 213.284L115.624 213.707L116.301 215.244C116.657 215.234 116.969 215.229 117.231 215.229C117.823 214.806 119.006 214.468 119.006 214.468L117.231 215.482L102.096 215.651L100.483 215.378C99.8168 215.285 98.9918 215.143 98.1019 214.975L92.1189 213.96C90.5124 213.932 87.0627 213.166 86.1157 210.325Z" fill="#CBD6E2"/>
<path fill-rule="evenodd" clip-rule="evenodd" d="M87.7887 207.443C87.6363 208.107 88.5442 208.508 89.0734 208.634C89.6543 208.877 90.5166 209.081 90.7512 208.654C90.6431 209.272 89.6621 209.052 89.0224 208.784C88.4545 208.648 87.4505 208.196 87.7887 207.443Z" fill="#B3C0C9"/>
<path d="M90.5111 207.45C89.5641 205.624 88.3691 206.52 87.89 207.196C87.4165 208.008 88.4818 208.493 89.0737 208.634C89.9474 209 91.4581 209.276 90.5111 207.45Z" fill="#959DA6"/>
<path fill-rule="evenodd" clip-rule="evenodd" d="M87.5467 208.391C87.4604 208.484 87.568 208.635 87.6411 208.705C87.7117 208.8 87.8318 208.916 87.9105 208.868C87.8341 208.959 87.6964 208.83 87.6186 208.725C87.5401 208.649 87.4218 208.481 87.5467 208.391Z" fill="#B3C0C9"/>
<path d="M87.9871 208.653C88.0088 208.268 87.7304 208.298 87.5885 208.361C87.4346 208.447 87.5601 208.627 87.6422 208.706C87.7481 208.849 87.9654 209.038 87.9871 208.653Z" fill="#959DA6"/>
<path d="M88.1897 208.784C88.3738 208.814 88.3413 208.7 88.302 208.638C88.2513 208.571 88.1741 208.612 88.1418 208.641C88.081 208.675 88.0055 208.753 88.1897 208.784Z" fill="#959DA6"/>
<path fill-rule="evenodd" clip-rule="evenodd" d="M122.474 214.801L122.472 214.806C123.352 214.806 124.304 214.355 124.671 214.13L124.248 213.115L123.487 212.439L124.211 211.875L124.079 211.847L123.318 212.439L124.079 213.115L124.502 214.13C124.159 214.341 123.303 214.749 122.474 214.801ZM125.205 212.068L125.347 212.101L124.079 211.424L125.205 212.068ZM124.079 211.424L124.079 211.424L124.079 211.424L124.079 211.424ZM123.022 212.028L122.472 211.086L122.895 209.31L122.303 211.086L122.895 212.101L123.022 212.028ZM122.895 209.31L122.895 209.31L122.895 209.31L122.895 209.31Z" fill="#848991"/>
<path d="M122.896 213.115L122.304 214.806C123.183 214.806 124.136 214.355 124.502 214.13L124.079 213.115L123.318 212.439L124.079 211.847L125.263 212.101L124.079 211.424L122.896 212.101L122.304 211.086L122.896 209.31L121.796 211.086L122.896 213.115Z" fill="#595D64"/>
<ellipse cx="106.631" cy="204.491" rx="12.6828" ry="2.02924" fill="#6C717A"/>
<g filter="url(#filter1_b_238:275)">
<path d="M120.697 198.166C120.697 204.967 114.489 205.675 106.83 205.675C99.1721 205.675 92.9639 204.967 92.9639 198.166C92.9639 191.364 99.1721 184.875 106.83 184.875C114.489 184.875 120.697 191.364 120.697 198.166Z" fill="url(#paint3_linear_238:275)" fill-opacity="0.1"/>
</g>
<g style="mix-blend-mode:multiply" opacity="0.8" filter="url(#filter2_bdi_238:275)">
<path d="M120.697 198.166C120.697 204.967 114.489 205.675 106.83 205.675C99.1721 205.675 92.9639 204.967 92.9639 198.166C92.9639 191.364 99.1721 184.875 106.83 184.875C114.489 184.875 120.697 191.364 120.697 198.166Z" fill="url(#paint4_linear_238:275)"/>
</g>
<g style="mix-blend-mode:multiply" opacity="0.8">
<path d="M119.821 197.912C119.821 204.713 114.235 205.421 106.577 205.421C98.9186 205.421 93.2715 204.713 93.2715 197.912C93.2715 191.111 98.9186 185.213 106.577 185.213C114.235 185.213 119.821 191.111 119.821 197.912Z" fill="url(#paint5_linear_238:275)" fill-opacity="0.1"/>
</g>
<g filter="url(#filter3_d_238:275)">
<path d="M93.1334 200.601C93.2011 201.345 92.7107 202.659 92.457 203.222L92.8798 205.167L95.4163 205.844L97.5301 202.715L95.4163 200.601H93.1334Z" fill="#AFBAC2"/>
<path d="M93.979 203.73L94.4863 203.138L95.1627 202.546L95.4164 203.392L97.5302 202.715L95.4164 205.844L94.8245 203.984L93.979 203.73Z" fill="#80898F"/>
<path d="M95.501 200.601L94.4863 203.138L95.1627 202.546L96.431 201.616L95.501 200.601Z" fill="#A8B0B7"/>
<path d="M94.4861 203.138L93.1333 200.601H95.5008L94.4861 203.138Z" fill="#CCD3DE"/>
<path d="M94.8246 203.984L93.9791 203.73L92.8799 205.167L95.4164 205.844L95.1628 204.914L94.8246 203.984Z" fill="#6B7079"/>
<path d="M93.9787 203.814L93.2178 204.744C93.246 204.66 93.4918 204.339 93.9787 203.73C94.3169 203.307 94.4861 203.138 94.4861 203.138C94.4861 203.138 94.0633 203.645 94.0633 203.73C94.0633 203.797 94.5706 203.871 94.8243 203.899L94.8244 203.899C94.9091 203.814 95.2753 203.448 95.4161 203.392L95.6698 203.307L95.5007 203.392C95.3316 203.392 95.0425 203.765 94.9088 203.899C94.8243 203.983 94.9934 204.491 95.1625 204.914L94.7397 204.068C94.6721 203.933 94.2042 203.843 93.9787 203.814Z" fill="#CCD3DE"/>
<path d="M94.4862 203.138L94.1604 202.551C94.1241 202.492 94.0908 202.431 94.0635 202.377L94.1604 202.551C94.3116 202.797 94.5163 203.012 94.5708 202.63L95.1333 201.443C95.2032 201.287 95.2729 201.142 95.3318 201.024L95.1333 201.443C94.9018 201.958 94.6686 202.578 94.8244 202.63C94.9376 202.668 95.1261 202.567 95.3049 202.437C95.4359 202.318 95.5641 202.206 95.67 202.123C95.5827 202.21 95.4468 202.333 95.3049 202.437C94.948 202.761 94.5708 203.138 94.5708 203.138C94.5708 203.138 94.5426 203.166 94.4862 203.138Z" fill="#E5EDFB"/>
<path d="M115.8 206.095C116.508 205.856 117.899 206.028 118.506 206.144L120.3 205.282L120.369 202.657L116.835 201.328L115.27 203.875L115.8 206.095Z" fill="#AFBAC2"/>
<path d="M118.646 204.546L117.953 204.19L117.22 203.67L117.983 203.227L116.835 201.328L120.368 202.658L118.696 203.665L118.646 204.546Z" fill="#80898F"/>
<path d="M115.25 203.793L117.953 204.191L117.22 203.67L116.021 202.652L115.25 203.793Z" fill="#A8B0B7"/>
<path d="M117.953 204.191L115.8 206.095L115.25 203.793L117.953 204.191Z" fill="#CCD3DE"/>
<path d="M118.696 203.665L118.646 204.547L120.299 205.282L120.368 202.658L119.522 203.12L118.696 203.665Z" fill="#6B7079"/>
<path d="M118.728 204.527L119.81 205.051C119.721 205.043 119.351 204.879 118.646 204.546C118.156 204.316 117.953 204.19 117.953 204.19C117.953 204.19 118.544 204.484 118.626 204.464C118.692 204.449 118.646 203.938 118.614 203.685L118.614 203.685C118.512 203.622 118.071 203.351 117.983 203.227L117.842 203L117.964 203.145C118.003 203.309 118.434 203.504 118.595 203.603C118.696 203.665 119.151 203.383 119.523 203.12L118.798 203.728C118.682 203.825 118.703 204.301 118.728 204.527Z" fill="#CCD3DE"/>
<path d="M117.952 204.19L117.458 204.644C117.409 204.693 117.357 204.739 117.31 204.778L117.458 204.644C117.661 204.44 117.823 204.19 117.439 204.226L116.154 203.955C115.986 203.923 115.828 203.889 115.7 203.859L116.154 203.955C116.708 204.06 117.366 204.143 117.381 203.979C117.391 203.861 117.249 203.701 117.081 203.557C116.935 203.457 116.796 203.358 116.691 203.275C116.796 203.339 116.947 203.443 117.081 203.557C117.478 203.829 117.933 204.108 117.933 204.108C117.933 204.108 117.967 204.129 117.952 204.19Z" fill="#E5EDFB"/>
<path d="M98.8035 202.559L95.5605 204.685L97.5623 206.281L99.9032 206.378L102.092 204.486L98.8035 202.559Z" fill="#7E888E"/>
<path d="M102.092 204.486L100.232 204.601C101.07 205.369 100.297 206.038 99.9036 206.378L102.092 204.486Z" fill="#6B7079"/>
<path d="M98.7496 203.346L96.652 204.581L96.4764 204.701L97.7357 205.18L100.251 204.666L98.7496 203.346Z" fill="#AFBAC2"/>
<path d="M98.8035 202.559L95.5605 204.685L96.4765 204.701L98.7496 203.346L98.8035 202.559Z" fill="#DBE4F1"/>
<path d="M97.7544 205.245C97.2946 204.816 96.1003 204.693 95.5605 204.685L97.5623 206.281L97.7378 206.161L97.7544 205.245Z" fill="#6B7079"/>
<path d="M102.096 204.491L98.7984 202.546L98.7139 203.307L100.236 204.576L102.096 204.491Z" fill="#AFBAC2"/>
<path d="M97.6713 205.198C96.8043 204.719 95.903 204.656 95.5607 204.684C96.208 204.498 97.3192 204.949 97.5693 205.087C97.7693 205.198 97.8501 205.17 97.8654 205.142C98.4747 205.037 99.7343 204.744 99.9739 204.675C100.213 204.606 100.188 204.637 100.168 204.619C99.6862 204.244 98.7834 203.462 98.7685 203.41C98.7536 203.358 98.3432 203.556 98.1399 203.661L98.6204 203.383C98.6907 203.198 98.7188 203.015 98.7274 202.894C98.7247 202.844 98.7268 202.809 98.7302 202.79C98.7311 202.815 98.7305 202.85 98.7274 202.894C98.7319 202.977 98.7495 203.101 98.796 203.262C98.8556 203.469 99.5164 203.997 100.033 204.378L100.427 204.545L101.195 204.534L100.381 204.628C100.722 205.035 100.623 205.47 100.531 205.636C100.651 205.321 100.585 204.85 100.27 204.73C99.5332 204.849 98.0245 205.11 97.8841 205.207C97.7436 205.303 97.7282 205.883 97.738 206.16L97.6713 205.198Z" fill="#E5EDFB"/>
<g style="mix-blend-mode:overlay">
<path d="M100.205 204.05C103.089 204.443 110.338 204.946 116.27 203.814C113.424 204.653 106.227 205.874 100.205 204.05Z" fill="url(#paint6_linear_238:275)"/>
</g>
</g>
<g style="mix-blend-mode:overlay" opacity="0.3">
<path d="M117.486 196.902C116.002 200.192 109.865 201.823 104.931 199.597C99.9967 197.37 98.1343 192.129 99.6186 188.839C101.103 185.55 107.048 183.96 111.982 186.186C116.916 188.413 118.97 193.613 117.486 196.902Z" fill="#E0B0FF"/>
</g>
<g style="mix-blend-mode:overlay" opacity="0.3">
<path d="M114.993 193.698C113.912 196.094 109.442 197.282 105.849 195.661C102.256 194.039 100.899 190.222 101.98 187.826C103.061 185.431 107.391 184.273 110.984 185.894C114.577 187.516 116.074 191.303 114.993 193.698Z" fill="#E0B0FF"/>
</g>
<g style="mix-blend-mode:overlay" opacity="0.3">
<path d="M113.818 191.551C113.035 193.286 109.799 194.146 107.196 192.972C104.594 191.798 103.612 189.033 104.395 187.298C105.177 185.564 108.313 184.725 110.915 185.899C113.517 187.073 114.601 189.816 113.818 191.551Z" fill="#E0B0FF"/>
</g>
<g style="mix-blend-mode:overlay">
<ellipse cx="106.159" cy="186.543" rx="2.19835" ry="1.26828" transform="rotate(-1.64119 106.159 186.543)" fill="#E0B0FF"/>
</g>
<g style="mix-blend-mode:overlay">
<ellipse cx="109.86" cy="186.637" rx="1.15499" ry="0.666338" transform="rotate(4.13801 109.86 186.637)" fill="#E0B0FF"/>
</g>
</g>
<g filter="url(#filter4_dd_238:275)">
<path d="M100.337 157.461L107.47 174.076L117.348 157.461H153.016C162.673 157.461 163.99 148.362 163.442 143.813L171.307 80.1206L164.78 77.9448L169.553 75.5712L171.307 55.9889L157.461 37H48.6703L37 55.9889C40.9778 69.1624 45.485 93.3166 47.965 112.956L55.9889 109L47.965 117.109C47.965 117.109 46.8901 151.329 63.0226 157.461H100.337Z" fill="#380657"/>
</g>
<g filter="url(#filter5_ii_238:275)">
<path fill-rule="evenodd" clip-rule="evenodd" d="M107.47 174.076L100.337 157.461H63.0226C46.8901 151.329 47.965 117.109 47.965 117.109L55.9889 109L47.965 112.956C45.485 93.3166 40.9778 69.1624 37 55.9889L48.6703 37H157.461L171.307 55.9889L169.553 75.5712L164.78 77.9448L171.307 80.1206L163.442 143.813C163.99 148.362 162.673 157.461 153.016 157.461H117.348L107.47 174.076ZM68.4504 56.9779L50.2187 54.2087V70.4284L59.3516 103.461L64.6688 141.241L76.3625 137.681L134.516 144.802L150.272 141.241L154.098 125.813V103.461L156.491 66.4724V54.2087H138.472L118.692 50.2527H96.3404L68.4504 56.9779Z" fill="#939AA4"/>
</g>
<path d="M155.087 48.4729L157.263 37.1982L171.505 56.1871H162.01L155.087 48.4729Z" fill="#6C717A"/>
<path d="M107.615 167.747V174.076L117.307 157.461H114.736L107.615 167.747Z" fill="#555763"/>
<path d="M48.0769 37L37 55.5933H44.7142L54.8021 44.5164L48.0769 37Z" fill="#7C848B"/>
<path d="M50.2522 53.2197L44.9116 55.3955L54.8017 44.3186L48.2742 37L69.0434 41.7472L104.252 40.3626H137.878L157.065 37.3956L155.482 48.6703L162.01 56.3845L157.065 54.4065H139.461L117.9 49.0659H95.3509L69.0434 56.5823L50.2522 53.2197Z" fill="#9CA4B0"/>
<path d="M145.791 40.9558C147.242 41.0877 149.708 41.5888 147.967 42.5382C145.791 43.725 144.406 40.7474 145.791 40.9558Z" fill="#848992"/>
<path d="M149.426 41.3468C148.583 41.0247 147.195 40.3117 148.393 40.0372C149.891 39.6941 150.218 41.7036 149.426 41.3468Z" fill="#848992"/>
<path d="M48.077 37.1982C48.1482 37.2723 48.2224 37.3504 48.2991 37.4322C49.6461 38.8522 52.3182 41.6855 53.8132 43.3301C55.3956 45.0707 63.1758 47.6158 66.8681 48.6707L90.0108 45.1103L114.736 44.5169C116.055 44.9621 122.846 46.1788 139.461 47.4839C160.23 49.1152 153.109 47.2861 154.098 47.4839C154.729 47.61 155.988 43.3055 156.873 39.8168C157.071 38.8935 157.277 38.06 157.461 37.396C157.3 38.0922 157.099 38.928 156.873 39.8168C156.15 43.2024 155.551 47.7947 156.67 49.6597C158.094 52.0333 160.955 55.1322 162.208 56.3849L154.098 49.6597L117.307 45.7037H90.0108C82.4944 47.0224 67.3428 49.6202 66.8681 49.4619C66.2747 49.2641 56.3846 45.9015 54.8022 45.7037C53.544 45.5464 47.6227 52.1495 44.7668 55.5316C44.7492 55.5525 44.7317 55.5732 44.7144 55.5937C44.7317 55.5731 44.7492 55.5524 44.7668 55.5316C47.2901 52.5387 52.3121 46.2455 52.6264 44.5169C52.9292 42.8515 49.9968 39.2425 48.2991 37.4322C48.2203 37.3492 48.1461 37.2711 48.077 37.1982Z" fill="#C3C9D2"/>
<path d="M37.396 55.9887C37.9794 55.9289 38.6911 55.9165 39.4392 55.9887H43.9234L49.2959 53.5467C49.7152 53.3402 50.1113 53.1622 50.4509 53.0217L49.2959 53.5467C47.3545 54.503 44.9176 56.072 45.308 57.3734C45.7828 58.9558 45.5058 63.5711 45.308 65.681C43.4091 69.0041 45.308 69.0436 46.4948 68.648C49.8575 69.8348 50.4509 74.7798 51.4399 81.7029C52.2311 87.2413 53.8794 96.538 54.6047 100.494C52.7058 106.824 55.9234 105.901 57.7695 104.648C60.9343 105.637 57.1344 112.955 57.7695 114.142C58.2776 115.092 59.4317 112.56 59.9453 111.175L58.7585 114.933C55.9893 123.043 61.3299 136.889 61.5277 141.241C61.7255 145.593 56.7805 147.318 60.5387 148.164C64.2969 149.01 60.5387 147.373 64.4947 142.626C68.4508 137.878 88.1887 149.007 94.5605 151.131C102.275 153.702 105.242 162.208 105.242 162.208C107.615 170.12 112.099 160.626 114.934 157.065L107.615 167.746L99.5055 155.483C90.3408 150.472 70.9035 140.885 66.4728 142.626C62.6617 144.123 63.0653 150.703 64.0079 155.116C64.2261 155.833 64.3882 156.506 64.4947 157.065C64.3288 156.493 64.1612 155.833 64.0079 155.116C63.1465 152.284 61.4101 148.757 58.7585 148.757C55.4355 148.757 52.4948 145.856 51.4399 144.406C58.086 151.21 60.275 144.604 60.5387 140.45C58.7585 132.67 55.7124 115.448 57.7695 108.802C59.8266 102.156 52.1651 108.538 48.0773 112.56C48.7366 111.769 50.4904 109.712 52.2311 107.813C54.4069 105.439 52.2311 91.7907 52.2311 89.6149C52.2311 87.4391 48.8685 71.8128 47.286 70.2304C46.1827 69.1271 43.2964 69.2458 41.4819 69.5128C41.2586 69.5654 41.018 69.6065 40.7586 69.637C40.9703 69.5947 41.2144 69.5521 41.4819 69.5128C44.1529 68.8834 44.3496 66.6078 44.7146 61.1315C44.9593 57.4614 41.9882 56.2346 39.4392 55.9887H37.396Z" fill="#C3C9D2"/>
<g filter="url(#filter6_di_238:275)">
<path d="M70.7403 145.783C67.5404 142.798 66.4304 143.855 66.2754 144.757V146.902C66.2754 148.021 74.74 149.514 70.7403 145.783Z" fill="#848992"/>
</g>
<g filter="url(#filter7_di_238:275)">
<path d="M71.1456 145.468C71.9199 146.712 72.3711 146.467 72.4999 146.189L72.6871 145.495C72.7848 145.134 70.1778 143.912 71.1456 145.468Z" fill="#848992"/>
</g>
<path d="M168.538 82.0984L164.582 77.7468L171.307 80.1204L168.538 82.0984Z" fill="#AEB6C2"/>
<path d="M171.307 80.1204L168.538 81.9006L166.362 101.878L164.978 120.472L161.22 143.417C161.536 151.645 157.132 156.274 155.879 157.065C163 156.076 164.384 147.373 163.593 143.417L171.307 80.1204Z" fill="#555763"/>
<path d="M164.186 120.274L154.296 125.615V103.659V100.692H156.472L164.186 120.274Z" fill="#AEB6C2"/>
<path d="M171.505 56.187H162.406L167.747 76.5605L169.725 75.5715L171.505 56.187Z" fill="#555763"/>
<path d="M150.538 141.637L134.912 145.197L134.121 156.472C140.318 156.801 153.505 157.065 156.67 155.483C160.626 153.505 160.033 148.362 159.637 146.582C159.32 145.158 153.505 142.824 150.538 141.637Z" fill="#7F868F"/>
<path d="M48.8679 113.747L47.8789 112.758L56.1866 108.802L48.8679 113.747Z" fill="#555763"/>
<path d="M162.208 56.187L167.746 76.5605L164.977 77.9451L168.538 81.9012L166.362 103.066L164.977 120.472L161.219 143.219C161.615 148.428 161.812 157.857 152.911 157.461L115.131 157.263L133.527 156.077L134.516 145.791V156.077C141.571 156.406 155.681 156.71 155.681 155.285C155.681 153.523 166.736 146.911 151.971 142.172C151.817 142.126 151.669 142.079 151.527 142.033C151.677 142.079 151.825 142.125 151.971 142.172C155.292 143.177 160.94 144.034 160.032 140.252L163.988 120.472C161.944 115.395 157.579 104.648 156.472 102.275C155.364 99.9011 156.01 91.9231 156.472 88.2308C156.208 93.8352 156.986 106.27 162.208 111.176C163.461 113.615 165.768 114.222 164.977 97.1318C166.757 92.7802 168.696 82.5737 162.208 76.5605L157.461 71.2199C160.164 73.9891 165.729 78.6968 166.362 75.3737L162.208 56.187Z" fill="#C3C9D2"/>
<g style="mix-blend-mode:multiply">
<path d="M64.2967 141.438C57.6506 138.907 56.121 118.889 56.1869 109.197L48.4727 118.296C48.9474 149.311 58.033 157.065 62.5165 157.065H100.099L107.22 167.548L117.307 157.065C129.439 158.054 154.652 159.082 158.45 155.284C162.248 151.487 164.384 129.043 164.978 118.296L151.131 141.438L135.11 145.79L75.967 138.867L64.2967 141.438Z" fill="#C4C4C4"/>
</g>
<defs>
<filter id="filter0_d_238:275" x="78" y="180.875" width="56.7104" height="47.1152" filterUnits="userSpaceOnUse" color-interpolation-filters="sRGB">
<feFlood flood-opacity="0" result="BackgroundImageFix"/>
<feColorMatrix in="SourceAlpha" type="matrix" values="0 0 0 0 0 0 0 0 0 0 0 0 0 0 0 0 0 0 127 0" result="hardAlpha"/>
<feOffset dy="4"/>
<feGaussianBlur stdDeviation="4"/>
<feComposite in2="hardAlpha" operator="out"/>
<feColorMatrix type="matrix" values="0 0 0 0 0 0 0 0 0 0 0 0 0 0 0 0 0 0 0.25 0"/>
<feBlend mode="normal" in2="BackgroundImageFix" result="effect1_dropShadow_238:275"/>
<feBlend mode="normal" in="SourceGraphic" in2="effect1_dropShadow_238:275" result="shape"/>
</filter>
<filter id="filter1_b_238:275" x="78.5256" y="170.436" width="56.6095" height="49.6764" filterUnits="userSpaceOnUse" color-interpolation-filters="sRGB">
<feFlood flood-opacity="0" result="BackgroundImageFix"/>
<feGaussianBlur in="BackgroundImage" stdDeviation="7.21915"/>
<feComposite in2="SourceAlpha" operator="in" result="effect1_backgroundBlur_238:275"/>
<feBlend mode="normal" in="SourceGraphic" in2="effect1_backgroundBlur_238:275" result="shape"/>
</filter>
<filter id="filter2_bdi_238:275" x="78.5256" y="170.436" width="56.6095" height="49.6764" filterUnits="userSpaceOnUse" color-interpolation-filters="sRGB">
<feFlood flood-opacity="0" result="BackgroundImageFix"/>
<feGaussianBlur in="BackgroundImage" stdDeviation="7.21915"/>
<feComposite in2="SourceAlpha" operator="in" result="effect1_backgroundBlur_238:275"/>
<feColorMatrix in="SourceAlpha" type="matrix" values="0 0 0 0 0 0 0 0 0 0 0 0 0 0 0 0 0 0 127 0" result="hardAlpha"/>
<feOffset dy="2.88766"/>
<feGaussianBlur stdDeviation="1.44383"/>
<feComposite in2="hardAlpha" operator="out"/>
<feColorMatrix type="matrix" values="0 0 0 0 0 0 0 0 0 0 0 0 0 0 0 0 0 0 0.25 0"/>
<feBlend mode="normal" in2="effect1_backgroundBlur_238:275" result="effect2_dropShadow_238:275"/>
<feBlend mode="normal" in="SourceGraphic" in2="effect2_dropShadow_238:275" result="shape"/>
<feColorMatrix in="SourceAlpha" type="matrix" values="0 0 0 0 0 0 0 0 0 0 0 0 0 0 0 0 0 0 127 0" result="hardAlpha"/>
<feOffset dy="4.33149"/>
<feGaussianBlur stdDeviation="4.33149"/>
<feComposite in2="hardAlpha" operator="arithmetic" k2="-1" k3="1"/>
<feColorMatrix type="matrix" values="0 0 0 0 0.936234 0 0 0 0 0.8375 0 0 0 0 1 0 0 0 1 0"/>
<feBlend mode="normal" in2="shape" result="effect3_innerShadow_238:275"/>
</filter>
<filter id="filter3_d_238:275" x="90.457" y="199.601" width="31.9116" height="9.77686" filterUnits="userSpaceOnUse" color-interpolation-filters="sRGB">
<feFlood flood-opacity="0" result="BackgroundImageFix"/>
<feColorMatrix in="SourceAlpha" type="matrix" values="0 0 0 0 0 0 0 0 0 0 0 0 0 0 0 0 0 0 127 0" result="hardAlpha"/>
<feOffset dy="1"/>
<feGaussianBlur stdDeviation="1"/>
<feComposite in2="hardAlpha" operator="out"/>
<feColorMatrix type="matrix" values="0 0 0 0 0 0 0 0 0 0 0 0 0 0 0 0 0 0 0.49 0"/>
<feBlend mode="normal" in2="BackgroundImageFix" result="effect1_dropShadow_238:275"/>
<feBlend mode="normal" in="SourceGraphic" in2="effect1_dropShadow_238:275" result="shape"/>
</filter>
<filter id="filter4_dd_238:275" x="0.904236" y="0.904236" width="206.499" height="209.268" filterUnits="userSpaceOnUse" color-interpolation-filters="sRGB">
<feFlood flood-opacity="0" result="BackgroundImageFix"/>
<feColorMatrix in="SourceAlpha" type="matrix" values="0 0 0 0 0 0 0 0 0 0 0 0 0 0 0 0 0 0 127 0" result="hardAlpha"/>
<feOffset/>
<feGaussianBlur stdDeviation="18.0479"/>
<feComposite in2="hardAlpha" operator="out"/>
<feColorMatrix type="matrix" values="0 0 0 0 0.801465 0 0 0 0 0.479167 0 0 0 0 1 0 0 0 1 0"/>
<feBlend mode="normal" in2="BackgroundImageFix" result="effect1_dropShadow_238:275"/>
<feColorMatrix in="SourceAlpha" type="matrix" values="0 0 0 0 0 0 0 0 0 0 0 0 0 0 0 0 0 0 127 0" result="hardAlpha"/>
<feOffset/>
<feGaussianBlur stdDeviation="3.60958"/>
<feComposite in2="hardAlpha" operator="out"/>
<feColorMatrix type="matrix" values="0 0 0 0 0.607843 0 0 0 0 0.117647 0 0 0 0 0.909804 0 0 0 1 0"/>
<feBlend mode="normal" in2="effect1_dropShadow_238:275" result="effect2_dropShadow_238:275"/>
<feBlend mode="normal" in="SourceGraphic" in2="effect2_dropShadow_238:275" result="shape"/>
</filter>
<filter id="filter5_ii_238:275" x="37" y="37" width="134.307" height="137.076" filterUnits="userSpaceOnUse" color-interpolation-filters="sRGB">
<feFlood flood-opacity="0" result="BackgroundImageFix"/>
<feBlend mode="normal" in="SourceGraphic" in2="BackgroundImageFix" result="shape"/>
<feColorMatrix in="SourceAlpha" type="matrix" values="0 0 0 0 0 0 0 0 0 0 0 0 0 0 0 0 0 0 127 0" result="hardAlpha"/>
<feOffset dy="0.721915"/>
<feComposite in2="hardAlpha" operator="arithmetic" k2="-1" k3="1"/>
<feColorMatrix type="matrix" values="0 0 0 0 0.894118 0 0 0 0 0.92549 0 0 0 0 0.941176 0 0 0 1 0"/>
<feBlend mode="normal" in2="shape" result="effect1_innerShadow_238:275"/>
<feColorMatrix in="SourceAlpha" type="matrix" values="0 0 0 0 0 0 0 0 0 0 0 0 0 0 0 0 0 0 127 0" result="hardAlpha"/>
<feOffset dy="-1.44383"/>
<feComposite in2="hardAlpha" operator="arithmetic" k2="-1" k3="1"/>
<feColorMatrix type="matrix" values="0 0 0 0 0.245486 0 0 0 0 0.252083 0 0 0 0 0.291667 0 0 0 1 0"/>
<feBlend mode="normal" in2="effect1_innerShadow_238:275" result="effect2_innerShadow_238:275"/>
</filter>
<filter id="filter6_di_238:275" x="66.2754" y="143.812" width="5.53857" height="5.07348" filterUnits="userSpaceOnUse" color-interpolation-filters="sRGB">
<feFlood flood-opacity="0" result="BackgroundImageFix"/>
<feColorMatrix in="SourceAlpha" type="matrix" values="0 0 0 0 0 0 0 0 0 0 0 0 0 0 0 0 0 0 127 0" result="hardAlpha"/>
<feOffset dy="0.721915"/>
<feComposite in2="hardAlpha" operator="out"/>
<feColorMatrix type="matrix" values="0 0 0 0 0.764706 0 0 0 0 0.788235 0 0 0 0 0.823529 0 0 0 1 0"/>
<feBlend mode="normal" in2="BackgroundImageFix" result="effect1_dropShadow_238:275"/>
<feBlend mode="normal" in="SourceGraphic" in2="effect1_dropShadow_238:275" result="shape"/>
<feColorMatrix in="SourceAlpha" type="matrix" values="0 0 0 0 0 0 0 0 0 0 0 0 0 0 0 0 0 0 127 0" result="hardAlpha"/>
<feOffset dy="0.721915"/>
<feComposite in2="hardAlpha" operator="arithmetic" k2="-1" k3="1"/>
<feColorMatrix type="matrix" values="0 0 0 0 0 0 0 0 0 0 0 0 0 0 0 0 0 0 0.25 0"/>
<feBlend mode="normal" in2="shape" result="effect2_innerShadow_238:275"/>
</filter>
<filter id="filter7_di_238:275" x="70.9297" y="144.698" width="1.76025" height="2.43871" filterUnits="userSpaceOnUse" color-interpolation-filters="sRGB">
<feFlood flood-opacity="0" result="BackgroundImageFix"/>
<feColorMatrix in="SourceAlpha" type="matrix" values="0 0 0 0 0 0 0 0 0 0 0 0 0 0 0 0 0 0 127 0" result="hardAlpha"/>
<feOffset dy="0.721915"/>
<feComposite in2="hardAlpha" operator="out"/>
<feColorMatrix type="matrix" values="0 0 0 0 0.764706 0 0 0 0 0.788235 0 0 0 0 0.823529 0 0 0 1 0"/>
<feBlend mode="normal" in2="BackgroundImageFix" result="effect1_dropShadow_238:275"/>
<feBlend mode="normal" in="SourceGraphic" in2="effect1_dropShadow_238:275" result="shape"/>
<feColorMatrix in="SourceAlpha" type="matrix" values="0 0 0 0 0 0 0 0 0 0 0 0 0 0 0 0 0 0 127 0" result="hardAlpha"/>
<feOffset dy="0.721915"/>
<feComposite in2="hardAlpha" operator="arithmetic" k2="-1" k3="1"/>
<feColorMatrix type="matrix" values="0 0 0 0 0 0 0 0 0 0 0 0 0 0 0 0 0 0 0.25 0"/>
<feBlend mode="normal" in2="shape" result="effect2_innerShadow_238:275"/>
</filter>
<linearGradient id="paint0_linear_238:275" x1="106.83" y1="184.875" x2="107.422" y2="206.943" gradientUnits="userSpaceOnUse">
<stop offset="0.0260417" stop-color="#CC7AFF"/>
<stop offset="0.5" stop-color="#9B1EE8"/>
<stop offset="1" stop-color="#380657"/>
</linearGradient>
<linearGradient id="paint1_linear_238:275" x1="105.985" y1="195.866" x2="105.985" y2="208.042" gradientUnits="userSpaceOnUse">
<stop stop-color="#65686B"/>
<stop offset="1" stop-color="#CBD1DE"/>
</linearGradient>
<linearGradient id="paint2_linear_238:275" x1="90.9348" y1="203.899" x2="119.175" y2="214.975" gradientUnits="userSpaceOnUse">
<stop stop-color="#CBD6E2"/>
<stop offset="1" stop-color="#9DA9AB"/>
</linearGradient>
<linearGradient id="paint3_linear_238:275" x1="106.83" y1="184.875" x2="107.422" y2="206.943" gradientUnits="userSpaceOnUse">
<stop offset="0.0260417" stop-color="#CC7AFF"/>
<stop offset="0.5" stop-color="#9B1EE8"/>
<stop offset="1" stop-color="#380657"/>
</linearGradient>
<linearGradient id="paint4_linear_238:275" x1="106.83" y1="184.875" x2="107.422" y2="206.943" gradientUnits="userSpaceOnUse">
<stop offset="0.0260417" stop-color="#CC7AFF"/>
<stop offset="0.5" stop-color="#9B1EE8"/>
<stop offset="1" stop-color="#380657"/>
</linearGradient>
<linearGradient id="paint5_linear_238:275" x1="93.8633" y1="194.767" x2="119.144" y2="194.683" gradientUnits="userSpaceOnUse">
<stop offset="0.0260417" stop-color="#CC7AFF" stop-opacity="0"/>
<stop offset="0.526042" stop-color="#2B0145"/>
<stop offset="1" stop-color="#9B1EE8" stop-opacity="0"/>
</linearGradient>
<linearGradient id="paint6_linear_238:275" x1="100.205" y1="204.365" x2="116.15" y2="203.883" gradientUnits="userSpaceOnUse">
<stop stop-color="#E0B0FF" stop-opacity="0"/>
<stop offset="0.567708" stop-color="#E0B0FF"/>
<stop offset="1" stop-color="#E0B0FF" stop-opacity="0"/>
</linearGradient>
</defs>
</svg>
