<svg width="72" height="57" viewBox="0 0 72 57" fill="none" xmlns="http://www.w3.org/2000/svg">
<path fill-rule="evenodd" clip-rule="evenodd" d="M48.7768 43.3391V55.324C48.7768 56.2496 48.1475 57 47.3711 57H23.6153C22.8389 57 22.2096 56.2496 22.2096 55.324V43.2359C20.2278 42.9843 18.3353 42.6798 16.5507 42.3281L5.79673 52.1348C5.38532 52.51 4.79125 52.607 4.28189 52.3821C3.77253 52.1573 3.4439 51.653 3.4439 51.0962V37.7544C1.23545 36.3231 0 34.7225 0 33.0333C0 26.9391 16.0797 21.9988 35.9149 21.9988C55.7502 21.9988 71.8298 26.9391 71.8298 33.0333C71.8298 34.7225 70.5944 36.3231 68.3859 37.7544V50.3934C68.3859 50.9501 68.0573 51.4544 67.548 51.6793C67.0386 51.9042 66.4445 51.8072 66.0331 51.432L55.9103 42.2009C53.6948 42.6579 51.3046 43.0411 48.7768 43.3391ZM45.9655 43.6299C42.7761 43.915 39.4036 44.0678 35.9149 44.0678C32.1171 44.0678 28.4569 43.8867 25.021 43.551V53.648H45.9655V43.6299ZM59.233 41.4261L65.5746 47.2091V39.2577C63.7788 40.0639 61.6439 40.7931 59.233 41.4261ZM6.25524 39.2577V47.912L13.1983 41.5805C10.54 40.9128 8.19895 40.1303 6.25524 39.2577ZM59.3193 30.4328C59.3193 34.3921 48.8723 37.6017 35.9852 37.6017C23.0981 37.6017 12.651 34.3921 12.651 30.4328C12.651 26.4735 23.0981 23.2639 35.9852 23.2639C48.8723 23.2639 59.3193 26.4735 59.3193 30.4328Z" fill="#FFBF00"/>
<path fill-rule="evenodd" clip-rule="evenodd" d="M36.5399 0C37.3162 0 37.9455 0.629341 37.9455 1.40567V12.5808C37.9455 13.3571 37.3162 13.9864 36.5399 13.9864C35.7635 13.9864 35.1342 13.3571 35.1342 12.5808V1.40567C35.1342 0.629341 35.7635 0 36.5399 0ZM60.691 7.2199C61.3228 7.67114 61.4691 8.54905 61.0179 9.18077L53.9895 19.0205C53.5383 19.6522 52.6604 19.7985 52.0286 19.3473C51.3969 18.8961 51.2506 18.0181 51.7018 17.3864L58.7302 7.54671C59.1814 6.91499 60.0593 6.76867 60.691 7.2199ZM11.2011 7.39722C11.7349 6.83352 12.6246 6.80929 13.1883 7.34309L22.4657 16.1285C23.0294 16.6623 23.0536 17.552 22.5198 18.1157C21.986 18.6794 21.0964 18.7036 20.5327 18.1698L11.2552 9.3844C10.6915 8.8506 10.6673 7.96091 11.2011 7.39722Z" fill="#FFBF00"/>
</svg>
