<svg width="49" height="57" viewBox="0 0 49 57" fill="none" xmlns="http://www.w3.org/2000/svg">
<path d="M10.1537 43.1229C9.74628 43.6106 9.81794 44.3308 10.3137 44.7316C10.8095 45.1323 11.5417 45.0618 11.9491 44.5741L30.6165 21.896C31.4985 20.8246 33.2369 21.1421 33.6691 22.4535L35.4588 27.8837C35.6523 28.4709 35.4666 29.115 34.9884 29.5148L2.56369 56.6255C1.27326 57.7044 -0.589252 56.2556 0.180466 54.7717L19.5111 17.5047C19.8016 16.9446 20.412 16.6176 21.048 16.6813L27.8451 17.3625C29.2414 17.5024 29.9219 19.1113 29.0386 20.1842L10.1537 43.1229Z" fill="#FFBF00"/>
<path d="M32.5955 10.0471C33.8495 8.57706 36.0775 8.38532 37.5719 9.61882L40.2997 11.8704C41.7941 13.1039 41.989 15.2955 40.735 16.7655L39.8405 17.8143C39.8405 17.8143 37.2141 15.414 35.6068 14.0873C33.9994 12.7606 31.701 11.0958 31.701 11.0958L32.5955 10.0471Z" fill="#FFBF00"/>
<path d="M36.7302 6.97941C37.9842 5.50938 40.2122 5.31763 41.7066 6.55114L43.0786 7.68359C44.573 8.9171 44.7679 11.1087 43.5139 12.5788L43.1466 13.0094C43.1466 13.0094 40.9577 11.009 39.6181 9.90325C38.2785 8.79753 36.3629 7.41008 36.3629 7.41008L36.7302 6.97941Z" fill="#FFBF00"/>
<path d="M20.9171 5.91316C21.6394 5.06636 22.9228 4.95591 23.7837 5.66646L46.4251 24.355C47.2875 25.0668 47.3999 26.3314 46.6764 27.1797C45.946 28.036 44.6485 28.1427 43.7869 27.414C41.0751 25.1202 35.4269 20.3529 31.6777 17.2583C28.0926 14.299 23.5557 10.6505 21.1892 8.75395C20.3076 8.04747 20.1862 6.76999 20.9171 5.91316Z" fill="#FFBF00"/>
<path d="M49 3.68276C49 5.71669 47.3238 7.36552 45.2562 7.36552C43.1885 7.36552 41.5124 5.71669 41.5124 3.68276C41.5124 1.64883 43.1885 0 45.2562 0C47.3238 0 49 1.64883 49 3.68276Z" fill="#FFBF00"/>
</svg>
