<svg width="18" height="18" viewBox="0 0 18 18" fill="none" xmlns="http://www.w3.org/2000/svg">
<path d="M8.99996 12C8.82472 12.0003 8.6549 11.9393 8.51996 11.8275L4.01996 8.07749C3.8668 7.95019 3.77048 7.76726 3.7522 7.56894C3.73391 7.37062 3.79516 7.17316 3.92246 7.01999C4.04977 6.86683 4.2327 6.77051 4.43102 6.75223C4.62934 6.73394 4.8268 6.79519 4.97996 6.92249L8.99996 10.2825L13.02 7.04249C13.0967 6.98019 13.1849 6.93367 13.2797 6.9056C13.3745 6.87752 13.4738 6.86845 13.5721 6.87891C13.6704 6.88936 13.7656 6.91913 13.8523 6.96651C13.9391 7.01389 14.0156 7.07795 14.0775 7.15499C14.1461 7.23211 14.1982 7.32258 14.2303 7.42073C14.2624 7.51889 14.2738 7.62261 14.264 7.72541C14.2541 7.82821 14.2231 7.92786 14.173 8.01813C14.1228 8.1084 14.0545 8.18733 13.9725 8.24999L9.47246 11.8725C9.33365 11.9666 9.16729 12.0115 8.99996 12Z" fill="#31314B"/>
</svg>
