<svg width="47" height="45" viewBox="0 0 47 45" fill="none" xmlns="http://www.w3.org/2000/svg">
<g clip-path="url(#clip0_165:3672)">
<path fill-rule="evenodd" clip-rule="evenodd" d="M16.3953 -0.000539942C12.9175 1.58676 9.73784 3.57089 6.75687 5.87248C3.4778 10.7931 1.49049 16.0312 0 21.3487C1.78858 26.3487 2.78224 31.428 2.78224 36.5074C4.86892 38.1741 6.75687 39.9201 8.24736 42.063C12.7188 43.3328 18.6808 44.2852 24.1459 44.9995C30.0085 42.8566 35.7717 41.1899 41.7336 40.3169C43.8203 37.6979 45.5095 34.7614 46.9006 31.5868C46.2051 26.9042 45.0127 19.0471 45.907 15.2376C44.5159 11.7455 42.7273 8.57089 40.74 5.71375C33.685 2.53914 26.3319 -0.318 16.3953 -0.000539942Z" fill="url(#paint0_radial_165:3672)"/>
<path fill-rule="evenodd" clip-rule="evenodd" d="M7.55176 6.19048C11.6258 4.84127 14.3086 3.4127 18.8795 1.26984C17.7864 0.873016 16.8921 0.476191 16.3953 0C12.9175 1.5873 9.73781 3.57143 6.75684 5.87302C6.95557 5.95238 7.25366 6.11111 7.55176 6.19048Z" fill="url(#paint1_radial_165:3672)"/>
<path fill-rule="evenodd" clip-rule="evenodd" d="M18.8794 1.2693C23.8477 2.77724 33.5855 4.4439 39.8456 5.87248C40.1437 5.87248 40.4418 5.79311 40.7399 5.71375C33.6849 2.53914 26.4312 -0.318 16.3953 -0.000539944C16.8921 0.475651 17.7864 0.872476 18.8794 1.2693Z" fill="url(#paint2_radial_165:3672)"/>
<path fill-rule="evenodd" clip-rule="evenodd" d="M47 31.5079C43.9197 22.7778 41.7336 14.6032 39.8457 5.79365C33.5856 4.44444 23.8478 2.77777 18.8795 1.26984C14.3087 3.41269 11.7252 4.92063 7.55179 6.19047C5.96194 14.2063 4.17336 19.127 1.19238 21.4286C1.49048 24.6032 3.1797 30.7143 4.67018 33.6508C4.76955 34.3651 3.57716 35.9524 2.98097 36.5873C4.67018 37.1428 7.25369 38.1746 8.84355 40.3175C13.6131 41.0317 19.2769 42.2222 24.3446 43.8889C29.0148 41.5079 35.871 38.8095 41.833 37.9365C43.8203 35.2381 45.2114 33.4921 47 31.5079Z" fill="url(#paint3_radial_165:3672)"/>
<path fill-rule="evenodd" clip-rule="evenodd" d="M0 21.3492C1.78858 26.3492 2.78224 31.4286 2.78224 36.5079C2.78224 36.5079 2.78224 36.5079 2.88161 36.5079C3.57717 35.873 4.67019 34.2857 4.57082 33.5714C3.1797 30.7143 1.49049 24.6032 1.19239 21.4286C0.794926 21.3492 0.397463 21.3492 0 21.3492Z" fill="url(#paint4_radial_165:3672)"/>
<path fill-rule="evenodd" clip-rule="evenodd" d="M1.19239 21.4286C4.17336 19.127 5.96195 14.2063 7.5518 6.26984C7.2537 6.11111 6.9556 5.95238 6.75687 5.87302C3.4778 10.7937 1.49049 16.0317 0 21.3492C0.397463 21.3492 0.794926 21.3492 1.19239 21.4286Z" fill="url(#paint5_radial_165:3672)"/>
<path fill-rule="evenodd" clip-rule="evenodd" d="M39.8457 5.87302C41.7337 14.6825 43.9197 22.8572 47 31.5873C46.3045 26.9048 45.1121 19.0476 46.0064 15.2381C44.5159 11.746 42.7273 8.57144 40.74 5.71429C40.4419 5.79366 40.1438 5.87302 39.8457 5.87302Z" fill="url(#paint6_radial_165:3672)"/>
<path fill-rule="evenodd" clip-rule="evenodd" d="M3.4778 35.873C3.57717 35.1587 3.97463 34.4444 3.7759 33.7302C2.88161 30.0794 1.98731 26.2698 1.09302 22.8571C0.993657 22.381 0.894291 22.0635 0.894291 21.5873C0.69556 21.4286 0.496828 21.4286 0.0993652 21.3492C0.496828 21.3492 0.794925 21.3492 0.993657 21.1905C4.96829 18.8095 6.65751 10.2381 7.05497 7.06349C7.05497 6.74603 7.05497 6.34921 6.75687 5.95238C7.15433 6.11111 7.65116 6.11111 7.94926 6.03175C8.74419 5.87302 11.129 4.92064 12.3214 4.36508C13.5137 3.88889 14.8055 3.17461 15.9979 2.30159C17.0909 1.50794 17.4884 0.952384 16.4947 0.238098C18.482 1.26984 21.9598 2.14286 25.2389 2.85715C22.6554 2.69842 20.6681 1.74603 18.5814 1.8254C17.9852 1.8254 17.389 2.14286 16.6934 2.46032C15.5011 3.09524 14.0106 3.80953 12.4207 4.52381C10.1353 5.55556 7.75053 6.34921 7.45243 7.61905C6.35941 12.1429 6.26004 16.1111 5.06765 18.254C4.76956 18.8095 3.1797 20.4762 1.68922 21.6667C1.49049 22.1429 1.49049 22.4603 1.68922 23.4127C1.88795 24.5238 1.98731 25.6349 2.28541 26.6667C2.98097 29.2064 3.67653 31.2698 4.86892 33.6508C4.67019 34.5238 4.17336 35.0794 3.4778 35.873Z" fill="url(#paint7_radial_165:3672)"/>
<path opacity="0.5" fill-rule="evenodd" clip-rule="evenodd" d="M11.6257 26.5873C11.3276 26.5873 10.9302 26.6667 10.8308 26.8254C10.4333 27.2222 10.1353 27.6984 10.0359 28.1746C9.93652 28.6508 11.0295 29.2064 11.5264 29.2064C11.9238 29.2064 12.4207 29.127 12.7188 28.8095C13.0169 28.4127 12.4207 26.6667 11.6257 26.5873Z" fill="#BDC8C9"/>
<path fill-rule="evenodd" clip-rule="evenodd" d="M11.427 26.4286C11.1289 26.4286 10.7314 26.5079 10.6321 26.6667C10.2346 27.0635 9.93652 27.5397 9.83716 28.0159C9.73779 28.4921 10.8308 29.0476 11.3276 29.0476C11.7251 29.0476 12.2219 28.9682 12.52 28.6508C12.8181 28.254 12.2219 26.5079 11.427 26.4286Z" fill="url(#paint8_radial_165:3672)"/>
<path opacity="0.5" fill-rule="evenodd" clip-rule="evenodd" d="M6.95566 20.9524C6.35947 21.0317 5.76327 21.2698 5.36581 21.5873C4.86898 21.9841 4.27279 23.1746 4.57088 23.7301C4.76961 24.0476 5.16708 24.2857 5.66391 24.2857C6.35947 24.2857 7.05503 24.127 7.55186 23.8095C8.04868 23.4921 8.34678 23.0952 8.74425 22.619C9.04234 22.3809 9.34044 22.1428 9.53917 21.8254C9.83727 21.3492 9.34044 20.873 8.84361 20.7936C8.04868 20.7936 7.65122 20.7936 6.95566 20.9524Z" fill="#BDC8C9"/>
<path fill-rule="evenodd" clip-rule="evenodd" d="M6.75693 20.873C6.16074 20.9524 5.56454 21.1905 5.16708 21.5079C4.67025 21.9048 4.07405 23.0952 4.37215 23.6508C4.57088 23.9683 4.96835 24.2063 5.46518 24.2063C6.16074 24.2063 6.8563 24.0476 7.35312 23.7302C7.94932 23.4921 8.14805 23.0159 8.54551 22.619C8.84361 22.3809 9.14171 22.1429 9.34044 21.8254C9.63854 21.3492 9.14171 20.873 8.64488 20.7936C7.94932 20.7143 7.55186 20.7143 6.75693 20.873Z" fill="url(#paint9_radial_165:3672)"/>
<circle cx="14.5" cy="17.5" r="2.5" fill="white"/>
<path fill-rule="evenodd" clip-rule="evenodd" d="M14.5 21.5226C10.9102 21.5226 8 24.3567 8 27.8528C8 27.902 8.00058 27.9511 8.00173 28L20.9983 28C20.9994 27.9511 21 27.902 21 27.8528C21 24.3567 18.0899 21.5226 14.5 21.5226Z" fill="white"/>
</g>
<defs>
<radialGradient id="paint0_radial_165:3672" cx="0" cy="0" r="1" gradientUnits="userSpaceOnUse" gradientTransform="translate(23.4851 22.4829) scale(25.9224 20.7047)">
<stop stop-color="#9DA9AB"/>
<stop offset="1" stop-color="#555763"/>
</radialGradient>
<radialGradient id="paint1_radial_165:3672" cx="0" cy="0" r="1" gradientUnits="userSpaceOnUse" gradientTransform="translate(13.1981 -0.198017) scale(22.899 18.2898)">
<stop stop-color="#E4ECF0"/>
<stop offset="1" stop-color="#A6B4BD"/>
</radialGradient>
<radialGradient id="paint2_radial_165:3672" cx="0" cy="0" r="1" gradientUnits="userSpaceOnUse" gradientTransform="translate(26.4559 -10.5833) scale(30.8482 24.639)">
<stop stop-color="#C2CFD4"/>
<stop offset="1" stop-color="#828599"/>
</radialGradient>
<radialGradient id="paint3_radial_165:3672" cx="0" cy="0" r="1" gradientUnits="userSpaceOnUse" gradientTransform="translate(9.34345 4.50754) scale(69.6058 55.5953)">
<stop stop-color="#AAB4B8"/>
<stop offset="1" stop-color="#828599"/>
</radialGradient>
<radialGradient id="paint4_radial_165:3672" cx="0" cy="0" r="1" gradientUnits="userSpaceOnUse" gradientTransform="translate(0.458474 36.338) scale(24.5601 19.6166)">
<stop stop-color="#9DA9AB"/>
<stop offset="1" stop-color="#555763"/>
</radialGradient>
<radialGradient id="paint5_radial_165:3672" cx="0" cy="0" r="1" gradientUnits="userSpaceOnUse" gradientTransform="translate(2.34145 8.7723) scale(58.4507 46.6856)">
<stop stop-color="#C2CFD4"/>
<stop offset="1" stop-color="#828599"/>
</radialGradient>
<radialGradient id="paint6_radial_165:3672" cx="0" cy="0" r="1" gradientUnits="userSpaceOnUse" gradientTransform="translate(58.5893 7.46723) scale(38.7369 30.9398)">
<stop stop-color="#9DA9AB"/>
<stop offset="1" stop-color="#555763"/>
</radialGradient>
<radialGradient id="paint7_radial_165:3672" cx="0" cy="0" r="1" gradientUnits="userSpaceOnUse" gradientTransform="translate(3.97115 3.25786) scale(62.5968 49.9971)">
<stop stop-color="#F2FBFF"/>
<stop offset="1" stop-color="#A6B4BD"/>
</radialGradient>
<radialGradient id="paint8_radial_165:3672" cx="0" cy="0" r="1" gradientUnits="userSpaceOnUse" gradientTransform="translate(12.4603 30.1357) scale(5.96065 4.76087)">
<stop stop-color="#9DA9AB"/>
<stop offset="1" stop-color="#717485"/>
</radialGradient>
<radialGradient id="paint9_radial_165:3672" cx="0" cy="0" r="1" gradientUnits="userSpaceOnUse" gradientTransform="translate(9.00409 24.4355) scale(6.68801 5.34183)">
<stop stop-color="#9DA9AB"/>
<stop offset="1" stop-color="#717485"/>
</radialGradient>
<clipPath id="clip0_165:3672">
<rect width="47" height="45" fill="white"/>
</clipPath>
</defs>
</svg>
