<svg width="212" height="68" viewBox="0 0 212 68" fill="none" xmlns="http://www.w3.org/2000/svg">
<path fill-rule="evenodd" clip-rule="evenodd" d="M33.8877 1.0089L75.0371 0L94.1998 1.81602L152.091 0.605341L177.911 1.0089L184.567 2.0178L201.914 10.8961L206.755 17.1513L212 34.3027L209.176 43.9881L201.914 57.7092L185.172 66.5875L177.911 67.3947L157.941 68L137.568 66.184L80.0799 67.3947L72.8183 65.7804L62.9344 67.3947L34.8963 68L23.6004 66.184L9.88392 57.7092L3.02569 46.0059L0 34.3027L2.21884 24.6172L9.88392 10.6944L20.7764 3.63205L33.8877 1.0089Z" fill="#A1A1A1"/>
<path fill-rule="evenodd" clip-rule="evenodd" d="M34.6946 5.64989L22.9952 8.07126L14.1199 14.5282L5.64793 26.0297L3.83252 33.6974L7.05992 44.19L13.313 55.0861L25.0123 62.3502H35.2997L62.3292 63.9644L73.02 62.3502L80.4833 63.3591L137.77 60.5342L158.143 62.552L177.709 61.7449L183.558 61.3413L197.88 53.6736L205.545 41.9704L207.562 34.5045L203.73 20.1781L197.88 13.3176L183.76 6.86058L177.911 5.24633L152.293 4.84277L93.7964 8.07126L74.6337 6.45702L34.6946 5.64989Z" fill="#A1A1A1"/>
<path fill-rule="evenodd" clip-rule="evenodd" d="M3.83254 33.6973L5.64795 26.0296L2.21884 24.6172L0 34.3026L3.83254 33.6973Z" fill="url(#paint0_radial_165:3749)"/>
<path fill-rule="evenodd" clip-rule="evenodd" d="M5.64811 26.0298L14.12 14.5283L9.88408 10.6945L2.21899 24.6173L5.64811 26.0298Z" fill="url(#paint1_radial_165:3749)"/>
<path fill-rule="evenodd" clip-rule="evenodd" d="M9.88379 10.6944L14.1198 14.5282L22.9951 8.07125L20.7763 3.63208L9.88379 10.6944Z" fill="url(#paint2_radial_165:3749)"/>
<path fill-rule="evenodd" clip-rule="evenodd" d="M22.9952 8.07123L34.6945 5.64986L33.8877 1.00891L20.7764 3.63206L22.9952 8.07123Z" fill="url(#paint3_radial_165:3749)"/>
<path fill-rule="evenodd" clip-rule="evenodd" d="M33.8877 1.0089L34.6945 5.64985L74.6336 6.45697L75.0371 0L33.8877 1.0089Z" fill="url(#paint4_radial_165:3749)"/>
<path fill-rule="evenodd" clip-rule="evenodd" d="M75.0372 0L74.6338 6.45697L93.7965 8.07122L94.1999 1.81602L75.0372 0Z" fill="url(#paint5_radial_165:3749)"/>
<path fill-rule="evenodd" clip-rule="evenodd" d="M94.1998 1.81603L93.7964 8.07122L152.293 4.84274L152.091 0.605347L94.1998 1.81603Z" fill="url(#paint6_radial_165:3749)"/>
<path fill-rule="evenodd" clip-rule="evenodd" d="M152.091 0.605347L152.293 4.84274L177.911 5.2463V1.00891L152.091 0.605347Z" fill="url(#paint7_radial_165:3749)"/>
<path fill-rule="evenodd" clip-rule="evenodd" d="M177.91 1.00891V5.2463L183.76 6.86054L184.567 2.01781L177.91 1.00891Z" fill="url(#paint8_radial_165:3749)"/>
<path fill-rule="evenodd" clip-rule="evenodd" d="M184.567 2.01782L183.76 6.86055L197.88 13.3175L201.914 10.8962L184.567 2.01782Z" fill="url(#paint9_radial_165:3749)"/>
<path fill-rule="evenodd" clip-rule="evenodd" d="M201.914 10.8961L197.88 13.3175L203.73 20.178L206.755 17.1513L201.914 10.8961Z" fill="url(#paint10_radial_165:3749)"/>
<path fill-rule="evenodd" clip-rule="evenodd" d="M206.755 17.1514L203.73 20.1781L207.562 34.5045L212 34.3027L206.755 17.1514Z" fill="url(#paint11_radial_165:3749)"/>
<path fill-rule="evenodd" clip-rule="evenodd" d="M212 34.3026L207.562 34.5044L205.545 41.9703L209.176 43.9881L212 34.3026Z" fill="url(#paint12_radial_165:3749)"/>
<path fill-rule="evenodd" clip-rule="evenodd" d="M209.176 43.9881L205.545 41.9703L197.88 53.6736L201.914 57.7092L209.176 43.9881Z" fill="url(#paint13_radial_165:3749)"/>
<path fill-rule="evenodd" clip-rule="evenodd" d="M197.88 53.6736L183.559 61.3412L185.172 66.5875L201.914 57.7092L197.88 53.6736Z" fill="url(#paint14_radial_165:3749)"/>
<path fill-rule="evenodd" clip-rule="evenodd" d="M183.559 61.3413L177.709 61.7449L158.143 62.552L157.941 68.0001L177.911 67.3947L185.172 66.5876L183.559 61.3413Z" fill="url(#paint15_radial_165:3749)"/>
<path fill-rule="evenodd" clip-rule="evenodd" d="M157.941 68.0001L158.143 62.552L137.77 60.5342L137.568 66.184L157.941 68.0001Z" fill="url(#paint16_radial_165:3749)"/>
<path fill-rule="evenodd" clip-rule="evenodd" d="M137.568 66.184L137.77 60.5342L80.4833 63.3591L80.0798 67.3947L137.568 66.184Z" fill="url(#paint17_radial_165:3749)"/>
<path fill-rule="evenodd" clip-rule="evenodd" d="M80.08 67.3947L80.4835 63.3591L73.0201 62.3502L72.8184 65.7805L80.08 67.3947Z" fill="url(#paint18_radial_165:3749)"/>
<path fill-rule="evenodd" clip-rule="evenodd" d="M72.8182 65.7805L73.0199 62.3502L62.3291 63.9645L62.9342 67.3947L72.8182 65.7805Z" fill="url(#paint19_radial_165:3749)"/>
<path fill-rule="evenodd" clip-rule="evenodd" d="M62.9343 67.3947L62.3292 63.9645L35.2997 62.3502L34.8962 68.0001L62.9343 67.3947Z" fill="url(#paint20_radial_165:3749)"/>
<path fill-rule="evenodd" clip-rule="evenodd" d="M34.8963 68.0001L35.2997 62.3502H25.0123L23.6003 66.184L34.8963 68.0001Z" fill="url(#paint21_radial_165:3749)"/>
<path fill-rule="evenodd" clip-rule="evenodd" d="M23.6002 66.184L25.0122 62.3502L13.3129 55.0861L9.88379 57.7092L23.6002 66.184Z" fill="url(#paint22_radial_165:3749)"/>
<path fill-rule="evenodd" clip-rule="evenodd" d="M13.313 55.0861L7.05989 44.1899L3.02563 46.006L9.88387 57.7092L13.313 55.0861Z" fill="url(#paint23_radial_165:3749)"/>
<path fill-rule="evenodd" clip-rule="evenodd" d="M7.05994 44.1898L3.83254 33.6973L0 34.3026L3.02569 46.0059L7.05994 44.1898Z" fill="url(#paint24_radial_165:3749)"/>
<path fill-rule="evenodd" clip-rule="evenodd" d="M6.85813 43.181C7.05984 43.3828 7.26155 43.5846 7.46326 43.5846C8.47183 43.9881 20.3729 38.9436 22.39 38.1365C31.2654 34.908 40.3424 31.8813 49.8229 29.4599C54.0589 26.635 58.2949 24.2136 63.5394 22.1958C65.5565 21.3887 74.0284 9.68546 73.4233 7.86944C73.2216 7.2641 73.2216 6.86054 72.8182 6.25519L34.6945 5.64985L22.9951 8.07122L14.1198 14.5282L5.64785 26.0297L3.83244 33.4955L6.85813 43.181ZM76.449 6.45697C75.6421 6.65876 74.6336 7.2641 74.2301 8.273C72.4147 11.5015 69.7925 16.546 66.7668 20.178C64.5479 23.003 64.7497 22.1958 66.9685 22.8012C72.213 24.4154 90.7706 31.4777 105.496 38.5401C109.732 40.5579 118.204 44.7952 125.263 49.0326C126.272 49.638 127.482 50.0415 128.693 49.4362C138.173 44.997 148.864 40.9614 159.353 39.7507C161.975 39.3472 162.58 38.9436 163.387 35.9169C165.606 28.6528 168.632 21.5905 172.061 14.9318C173.675 14.3264 182.146 9.2819 182.953 6.65875C183.155 6.25519 178.516 5.24629 178.112 5.04451L152.293 4.84273L93.7963 8.07122L76.449 6.45697ZM164.799 40.1543C175.893 42.3739 194.653 51.2522 196.871 52.4629C197.477 52.6647 198.283 52.4629 199.09 52.0593L205.545 42.1721L207.562 34.7062L203.73 20.178L197.88 13.3175L185.777 7.86944C185.172 7.46588 184.164 7.66766 182.752 8.273C181.945 8.67656 181.34 9.2819 180.936 9.68546C180.129 10.2908 179.524 10.8961 178.717 11.5015C176.7 12.9139 174.683 14.3264 172.464 15.7389C168.228 22.8012 165.404 30.2671 163.387 37.5312C162.782 39.7507 162.58 39.549 164.799 40.1543ZM196.065 54.6825C196.266 54.2789 196.266 53.8754 196.065 53.6736C194.249 50.6469 168.027 40.9614 162.782 40.5579C151.486 40.7596 138.98 45.4006 128.693 50.4451C127.886 50.8487 130.105 52.4629 130.508 52.8665C133.332 54.8843 135.954 57.1039 138.576 58.9199C140.19 60.1306 145.233 60.7359 151.083 61.7448C146.645 61.3412 142.207 60.9377 137.568 60.5341C132.727 60.7359 128.087 60.9377 123.246 61.1395C125.869 60.9377 135.753 60.1306 135.954 59.3234C135.954 58.9199 135.753 58.5163 135.147 57.911C127.482 50.2433 114.573 43.7863 104.89 39.1454C90.3672 32.0831 73.0199 25.6261 64.7497 23.6083C63.136 23.2047 62.1274 23.6083 60.7154 24.2136C57.2863 25.8279 54.0589 27.8457 51.2349 30.2671C41.5527 32.4866 31.8705 35.5134 22.39 38.7418C20.3729 39.549 8.27011 43.3828 7.66498 44.5935L7.46326 44.7952L13.3129 55.086L25.0123 62.3501H35.2996C32.6773 62.3501 29.4499 62.3501 27.0294 62.5519C25.4157 62.7537 24.8106 64.1662 24.0037 65.3769C24.0037 64.9733 24.6088 62.5519 24.2054 62.1484C21.1797 60.1306 17.9523 58.1128 14.7249 56.2967C13.1112 55.2878 12.1027 56.2967 10.6907 57.1039C11.2958 56.4985 12.9095 55.2878 12.3044 54.0771C10.6907 51.0504 9.07696 48.2255 7.46326 45.4006C6.85813 44.1899 4.841 45.1988 3.63072 45.6024C4.43757 44.997 6.65641 43.9881 6.4547 43.3828C6.05127 40.5579 5.04271 38.1365 4.03415 35.5134C3.2273 33.2938 2.62216 34.1009 0.40332 34.1009C1.21017 33.8991 2.21873 33.6973 3.02558 33.2938C4.03415 32.8902 4.43757 27.8457 4.63929 26.8368C4.63929 26.635 4.63929 26.2315 4.43757 26.0297C4.03415 25.4243 3.2273 25.2226 2.62216 24.819C3.42901 25.0208 4.03415 25.2225 4.841 25.2225C6.05127 25.2225 13.1112 15.1335 12.3044 13.7211C11.9009 12.9139 11.0941 11.905 10.2872 11.0979C11.4975 11.905 12.5061 12.9139 13.7164 13.5193C14.9266 14.1246 22.1883 8.47478 21.7849 6.65875C21.5831 5.85163 21.1797 4.84273 20.7763 4.03561C21.5831 5.04451 22.1883 6.05341 22.9951 6.86054C23.802 7.66766 33.4842 6.25519 33.6859 4.23739C33.8876 3.22849 33.8876 2.42137 33.8876 1.41246C34.291 2.42137 34.291 3.83383 34.8962 4.64095C35.5013 5.44807 68.9856 5.24629 72.6164 5.44807C73.0199 5.44807 74.0284 5.24629 74.2301 4.23739C74.6336 3.02671 74.6336 1.61424 74.8353 0.201782C74.8353 1.61424 74.8353 2.82493 75.037 4.23739C75.037 5.04451 75.6421 5.44807 76.0456 5.44807C81.4918 6.05341 86.938 6.45697 92.3843 6.86054C92.7877 6.86054 93.1911 6.86054 93.3929 6.45697C93.5946 5.04451 93.7963 3.63205 93.998 2.01781C94.1997 3.43027 94.1997 5.04451 94.4014 6.45697C94.4014 7.06232 94.8048 7.06232 95.41 7.06232C113.968 5.24629 132.323 4.03561 150.881 4.03561C151.486 4.03561 151.89 3.43027 151.89 3.02671C151.89 2.21959 151.89 1.41246 151.89 0.605343C152.091 1.61424 152.293 2.42137 152.495 3.43027C152.495 3.83383 153.1 4.03561 153.302 4.03561C161.168 3.63205 168.833 3.83383 176.297 4.64095C176.498 4.64095 177.104 4.64095 177.305 4.23739C177.507 3.22849 177.709 2.21959 177.709 1.21068C177.709 2.21959 177.91 3.22849 177.91 4.43917C177.91 4.64095 177.91 5.04451 178.516 5.24629C179.726 5.64985 180.936 5.85163 182.348 6.25519C183.76 6.45697 183.962 3.63205 184.365 2.42137C184.365 3.22849 183.558 6.65876 184.567 6.86054C189.206 8.273 193.442 10.089 197.275 12.5104C198.283 13.1157 200.502 11.7033 201.511 11.0979C200.704 11.7033 199.897 12.3086 199.292 12.9139C198.889 13.1157 198.889 13.9228 199.292 14.1246C200.906 15.5371 202.116 16.9496 203.326 18.7656C203.528 19.1691 204.133 19.1691 204.537 18.9674C205.142 18.5638 205.747 18.1602 206.352 17.5549C205.747 18.362 205.142 18.9674 204.738 19.7745C204.537 19.9763 204.537 20.3798 204.537 20.5816C206.15 24.6172 207.159 28.6528 207.764 32.6884C207.966 34.3027 209.983 33.8991 211.193 34.1009C209.176 34.5044 207.764 34.1009 207.562 36.3205C207.361 37.7329 206.957 39.1454 206.352 40.7596C206.352 40.9614 206.352 41.1632 206.352 41.365C206.352 41.5668 206.554 41.7685 206.554 41.9703C207.159 42.3739 207.764 42.7774 208.167 43.181C207.562 42.9792 206.957 42.7774 206.352 42.5757C206.15 42.5757 205.747 42.5757 205.747 42.7774C203.125 46.0059 201.107 49.2344 199.09 52.6647C198.889 53.0682 198.889 53.8754 199.292 54.0771C199.897 54.8843 200.704 55.6914 201.309 56.4985C200.301 55.8932 199.494 55.086 198.485 54.4807C198.082 54.2789 197.275 54.0771 196.871 54.2789C192.837 56.2967 188.803 58.3145 184.97 60.5341C183.76 61.1395 184.567 63.7626 184.769 64.7715C183.76 62.7537 183.962 61.3412 181.541 61.1395C180.331 61.1395 178.919 61.1395 177.709 61.3412L183.558 60.7359L196.065 54.6825Z" fill="url(#paint25_radial_165:3749)"/>
<path fill-rule="evenodd" clip-rule="evenodd" d="M6.85821 43.1811C7.05992 43.3828 7.26163 43.5846 7.46335 43.5846C8.47191 43.9882 20.373 38.9437 22.3901 38.1365C31.2654 34.9081 40.3425 31.8814 49.823 29.46C54.059 26.6351 58.2949 24.2137 63.5395 22.1959C65.5566 21.3888 74.0285 9.68551 73.4234 7.86949C73.2217 7.26415 73.2217 6.86058 72.8182 6.25524L34.6946 5.6499L22.9952 8.07127L14.1199 14.5282L5.64793 26.0297L3.83252 33.4956L6.85821 43.1811Z" fill="url(#paint26_radial_165:3749)"/>
<path fill-rule="evenodd" clip-rule="evenodd" d="M22.5918 38.7419C20.5746 39.549 8.47189 43.3829 7.86675 44.5935L7.66504 44.7953L13.5147 55.0861L25.214 62.3502H35.5014L62.5309 63.7627L73.2217 62.1484L80.8867 63.1573L123.65 61.1395C126.272 60.9377 136.156 60.1306 136.358 59.3235C136.358 58.9199 136.156 58.5164 135.551 57.911C127.886 50.2434 114.976 43.7864 105.294 39.1455C90.7707 32.0831 73.4234 25.6262 65.1531 23.6084C63.5394 23.2048 62.5309 23.6084 61.1189 24.2137C57.6898 25.828 54.4624 27.8458 51.6384 30.2671C41.5528 32.4867 32.0723 35.5134 22.5918 38.7419Z" fill="url(#paint27_radial_165:3749)"/>
<path fill-rule="evenodd" clip-rule="evenodd" d="M66.7667 23.003C72.0112 24.6173 90.5688 31.6796 105.294 38.7419C109.53 40.7597 118.002 44.9971 125.062 49.2345C126.07 49.8398 127.28 50.2434 128.491 49.638C137.971 45.1989 148.662 41.1632 159.151 39.9526C161.773 39.549 162.378 39.1454 163.185 36.1187C165.404 28.8546 168.43 21.7923 171.859 15.1336C173.473 14.5282 181.945 9.48372 182.751 6.86058C182.751 6.6588 182.146 6.45702 181.541 6.25524L177.91 5.24633L152.293 4.84277L93.7962 8.07126L76.4489 6.6588C75.642 6.86058 74.6335 7.46592 74.23 8.47482C72.4146 11.7033 69.7924 16.7478 66.7667 20.3799C64.5478 23.2048 64.5478 22.3977 66.7667 23.003Z" fill="url(#paint28_radial_165:3749)"/>
<path fill-rule="evenodd" clip-rule="evenodd" d="M162.782 40.5579C151.486 40.7596 138.98 45.4006 128.693 50.4451C127.886 50.8487 130.105 52.4629 130.508 52.8665C133.332 54.8843 135.954 57.1039 138.577 58.9199C140.19 60.1306 145.233 60.7359 151.083 61.7448L158.143 62.3501L177.507 61.7448L183.357 61.1395L195.863 54.4807C196.065 54.0771 196.065 53.6736 195.863 53.4718C194.249 50.6469 168.027 40.7596 162.782 40.5579Z" fill="url(#paint29_radial_165:3749)"/>
<path fill-rule="evenodd" clip-rule="evenodd" d="M163.387 37.5311C162.782 39.549 162.58 39.5489 164.597 39.9525C175.692 42.1721 194.451 51.0504 196.67 52.2611C197.275 52.4629 198.082 52.2611 198.889 51.8576L205.343 41.9703L207.36 34.5044L203.73 20.178L197.88 13.3175L185.777 7.86942H185.575C184.97 7.66764 183.962 7.66764 182.751 8.47477C181.945 8.87833 181.34 9.48367 180.936 9.88723C180.129 10.4926 179.524 11.0979 178.717 11.7033C176.7 13.1157 174.683 14.5282 172.464 15.9406C168.228 22.8012 165.404 30.2671 163.387 37.5311Z" fill="url(#paint30_radial_165:3749)"/>
<path opacity="0.75" fill-rule="evenodd" clip-rule="evenodd" d="M177.709 57.1039C165.203 56.4985 146.847 56.095 133.937 56.2968C113.968 57.7092 93.7965 57.911 73.0201 57.3057C68.5824 57.3057 64.3464 57.5074 60.7156 58.3146C52.4454 57.3057 43.1666 55.6914 34.6947 56.095C26.4245 56.2968 17.3474 50.0416 13.7166 44.1899C16.944 50.4451 26.4245 57.7092 35.0981 57.5074C44.5786 56.4985 53.454 58.9199 61.119 60.3324C64.9516 58.7181 68.9858 58.7181 73.2218 58.7181C93.7965 59.1217 113.766 58.5164 133.534 57.1039C146.443 56.9021 164.799 57.911 177.306 58.3146C181.541 57.1039 187.391 54.8843 191.627 51.6558C193.039 50.6469 194.451 49.2345 195.46 47.6202C196.065 46.8131 196.67 45.8042 197.275 44.7953C196.872 45.4006 196.468 46.006 196.065 46.6113C194.855 48.0238 193.644 49.4362 192.031 50.4451C187.795 53.6736 181.743 55.8932 177.709 57.1039Z" fill="url(#paint31_radial_165:3749)"/>
<path fill-rule="evenodd" clip-rule="evenodd" d="M34.4927 10.4925C44.1749 10.8961 59.3033 11.0979 72.2129 10.8961C97.427 11.5014 127.886 10.089 153.301 8.6765C160.967 10.2907 180.533 11.2996 186.382 12.7121C190.013 14.1246 194.653 18.5637 197.88 23.6083C198.082 24.0118 198.283 24.2136 198.485 24.6172C198.283 24.0118 197.88 23.4065 197.477 22.8011C194.451 17.7566 189.811 13.1157 185.979 11.7032C180.129 10.2907 160.563 9.6854 153.1 7.26404C128.087 9.88718 97.427 10.4925 72.4147 10.089C59.5051 10.2907 44.3766 10.089 34.6944 9.6854C25.6173 10.089 16.742 15.1335 12.9094 23.4065C16.9437 15.7388 25.6173 10.8961 34.4927 10.4925Z" fill="url(#paint32_radial_165:3749)"/>
<path opacity="0.5" fill-rule="evenodd" clip-rule="evenodd" d="M75.037 1.61424C81.6935 2.42137 88.5517 3.83383 93.998 5.44807C112.354 3.83383 133.13 3.02671 152.293 2.62315C160.967 2.42136 169.64 2.62315 178.112 3.22849C180.331 3.02671 182.55 3.22849 184.365 3.83383C189.61 6.05341 195.459 8.87834 199.897 12.1068C201.914 13.5193 204.133 16.3442 205.142 18.5638C207.361 23.003 209.579 29.6617 210.79 34.3027C210.79 35.7151 210.79 37.1276 210.588 38.7418L211.798 34.3027L206.554 17.1513L201.713 10.8961L184.567 2.0178L177.91 1.21068L152.091 0.605341L94.1997 1.81602L75.037 0L33.8876 1.0089L20.7763 3.63205L9.88382 10.6944L2.21873 24.6172L0.40332 31.8813C1.41188 29.6617 2.42045 27.4421 3.83244 25.4243C6.05127 20.9852 8.47183 16.7478 11.9009 12.7122C14.7249 10.089 17.7506 7.46588 21.3814 5.24629C25.6174 4.23739 29.8534 3.63205 34.291 3.83383C47.4024 2.21958 62.3291 1.61424 75.037 1.61424Z" fill="#EDF5F7"/>
<path opacity="0.5" fill-rule="evenodd" clip-rule="evenodd" d="M174.078 31.6796C173.473 31.6796 172.666 31.8813 172.464 32.2849C171.657 33.2938 171.052 34.5045 170.851 35.7152C170.649 36.9259 172.868 38.3383 173.876 38.3383C174.683 38.3383 175.692 38.1365 176.297 37.3294C177.104 36.3205 175.893 31.8813 174.078 31.6796Z" fill="#BDC8C9"/>
<path fill-rule="evenodd" clip-rule="evenodd" d="M173.675 31.276C173.069 31.276 172.263 31.4778 172.061 31.8813C171.254 32.8902 170.649 34.1009 170.447 35.3116C170.245 36.5223 172.464 37.9348 173.473 37.9348C174.28 37.9348 175.288 37.733 175.893 36.9259C176.7 35.9169 175.49 31.4778 173.675 31.276Z" fill="url(#paint33_radial_165:3749)"/>
<path opacity="0.5" fill-rule="evenodd" clip-rule="evenodd" d="M29.2485 21.187C27.8365 21.3887 26.2228 21.7923 25.2142 22.8012C23.8022 23.8101 21.7851 27.6439 22.592 29.2582C22.9954 30.2671 24.0039 31.0742 25.0125 31.276C26.6262 31.4778 28.4416 31.276 29.8536 30.4689C31.2656 29.6617 32.0724 28.2493 33.081 27.2404C33.8879 26.4333 34.6947 25.8279 35.2999 25.0208C36.3084 23.6083 35.0981 21.9941 34.0896 21.5905C32.2742 20.9852 31.0639 20.9852 29.2485 21.187Z" fill="#BDC8C9"/>
<path fill-rule="evenodd" clip-rule="evenodd" d="M29.0466 20.7834C27.6346 20.9852 26.0209 21.3887 25.0123 22.3976C23.6003 23.4065 21.5832 27.2404 22.39 28.8546C22.7935 29.8635 23.802 30.6706 24.8106 30.8724C26.4243 31.0742 28.2397 30.8724 29.6517 30.0653C31.0637 29.2582 31.8705 27.8457 32.8791 26.8368C33.686 26.0297 34.4928 25.4243 35.0979 24.6172C36.1065 23.2048 34.8962 21.5905 33.8877 21.187C31.8705 20.5816 30.862 20.5816 29.0466 20.7834Z" fill="url(#paint34_radial_165:3749)"/>
<path opacity="0.5" fill-rule="evenodd" clip-rule="evenodd" d="M181.743 30.8724C180.331 29.8635 179.121 28.4511 177.911 27.2404C176.902 26.2315 175.087 25.4243 174.683 24.0119C174.078 22.1959 175.692 20.3798 178.516 19.9763C180.734 19.7745 183.76 20.1781 184.97 20.5816C187.593 21.3887 190.215 22.5994 191.425 25.0208C192.434 26.8368 191.829 30.2671 190.013 31.276C187.794 32.0831 183.558 32.2849 181.743 30.8724Z" fill="#BDC8C9"/>
<path fill-rule="evenodd" clip-rule="evenodd" d="M181.945 30.2671C180.533 29.2582 179.322 27.8457 178.112 26.635C177.104 25.6261 175.288 24.819 174.885 23.4065C174.28 21.5905 175.893 19.7745 178.717 19.3709C180.936 19.1692 183.962 19.5727 185.172 19.9763C187.794 20.7834 190.417 21.9941 191.627 24.4154C192.635 26.2315 192.03 29.6617 190.215 30.6706C187.996 31.4778 183.76 31.6795 181.945 30.2671Z" fill="url(#paint35_radial_165:3749)"/>
<path fill-rule="evenodd" clip-rule="evenodd" d="M34.4928 10.4927C22.1883 11.098 10.489 19.9763 10.489 33.2938C10.489 36.5223 11.901 41.1633 12.3044 42.1722C15.1284 48.4274 25.0123 56.4986 34.2911 56.095C42.9648 55.8933 52.0418 57.5075 60.312 58.3146C63.9429 57.3057 68.3805 57.1039 72.6165 57.3057C93.3929 57.7093 113.564 57.5075 133.534 56.2968C146.443 56.095 164.799 56.4986 177.305 57.1039C181.541 55.8933 187.391 53.8754 191.627 50.647C193.039 49.6381 194.451 48.2256 195.661 46.8131C198.889 42.7775 201.107 34.9081 201.107 33.4956C201.107 32.2849 199.695 27.0387 197.678 23.6084C194.451 18.5639 190.013 14.1247 186.181 12.7122C180.533 11.098 160.967 10.0891 153.302 8.67664C127.886 10.0891 97.4272 11.5016 72.2131 10.8962C59.3035 11.2998 44.175 10.8962 34.4928 10.4927ZM34.6945 13.3176C29.0466 13.5194 22.9952 15.1336 18.9609 18.7657C12.9096 24.4155 10.489 33.6974 14.3216 41.5668C17.7507 48.8309 26.626 53.2701 34.6945 53.6737C43.1665 54.0772 52.2435 55.4897 60.5138 55.6915C62.3292 55.2879 68.5823 54.8843 72.8182 54.6826C91.3758 55.6915 112.354 56.095 132.323 54.6826C146.04 55.0861 162.782 55.0861 177.507 54.279C181.945 54.0772 187.189 52.0594 190.82 49.6381C196.065 46.2078 198.889 40.1544 198.889 33.0921C198.889 24.2137 193.039 17.7568 185.576 14.73C179.524 12.3087 160.16 11.098 153.503 10.8962C125.869 10.4927 98.4357 12.3087 71.2045 12.914C58.9 13.1158 46.999 12.7122 34.6945 13.3176Z" fill="url(#paint36_linear_165:3749)"/>
<path fill-rule="evenodd" clip-rule="evenodd" d="M34.6946 13.3175C29.0467 13.5193 22.9953 15.1336 18.961 18.7656C12.9097 24.4155 10.4891 33.6974 14.3217 41.5668C17.7508 48.8309 26.6261 53.2701 34.6946 53.6736C43.1666 54.0772 52.2436 55.4897 60.5138 55.6914C62.3293 55.2879 68.5824 54.8843 72.8183 54.6825C91.3759 55.6914 112.354 56.095 132.324 54.6825C146.04 55.0861 162.782 55.0861 177.507 54.279C181.945 54.0772 187.189 52.0594 190.82 49.638C196.065 46.2078 198.889 40.1543 198.889 33.092C198.889 24.2137 193.039 17.7567 185.576 14.73C179.524 12.3086 160.16 11.098 153.503 10.8962C125.869 10.4926 98.4358 12.3086 71.2046 12.914C58.9001 13.1158 46.9991 12.7122 34.6946 13.3175Z" fill="url(#paint37_linear_165:3749)"/>
<defs>
<radialGradient id="paint0_radial_165:3749" cx="0" cy="0" r="1" gradientUnits="userSpaceOnUse" gradientTransform="translate(-9.93354 18.5442) scale(41.361 41.3749)">
<stop stop-color="#9DA9AB"/>
<stop offset="1" stop-color="#555763"/>
</radialGradient>
<radialGradient id="paint1_radial_165:3749" cx="0" cy="0" r="1" gradientUnits="userSpaceOnUse" gradientTransform="translate(-9.57515 5.62271) scale(28.826 28.8356)">
<stop stop-color="#E4ECF0"/>
<stop offset="1" stop-color="#828D94"/>
</radialGradient>
<radialGradient id="paint2_radial_165:3749" cx="0" cy="0" r="1" gradientUnits="userSpaceOnUse" gradientTransform="translate(7.7646 -5.4892) scale(23.4955 23.5034)">
<stop stop-color="#E4ECF0"/>
<stop offset="1" stop-color="#828D94"/>
</radialGradient>
<radialGradient id="paint3_radial_165:3749" cx="0" cy="0" r="1" gradientUnits="userSpaceOnUse" gradientTransform="translate(15.4925 -33.3458) scale(43.2038 43.2183)">
<stop stop-color="#E4ECF0"/>
<stop offset="1" stop-color="#A6B4BD"/>
</radialGradient>
<radialGradient id="paint4_radial_165:3749" cx="0" cy="0" r="1" gradientUnits="userSpaceOnUse" gradientTransform="translate(56.725 -46.2763) scale(55.1176 55.1361)">
<stop stop-color="#E4ECF0"/>
<stop offset="1" stop-color="#9BA8B0"/>
</radialGradient>
<radialGradient id="paint5_radial_165:3749" cx="0" cy="0" r="1" gradientUnits="userSpaceOnUse" gradientTransform="translate(92.5523 -46.216) scale(53.8083 53.8263)">
<stop stop-color="#E4ECF0"/>
<stop offset="1" stop-color="#929EA6"/>
</radialGradient>
<radialGradient id="paint6_radial_165:3749" cx="0" cy="0" r="1" gradientUnits="userSpaceOnUse" gradientTransform="translate(150.281 -62.8183) scale(72.2509 72.2751)">
<stop stop-color="#E4ECF0"/>
<stop offset="1" stop-color="#929EA6"/>
</radialGradient>
<radialGradient id="paint7_radial_165:3749" cx="0" cy="0" r="1" gradientUnits="userSpaceOnUse" gradientTransform="translate(165.575 -35.8059) scale(46.0718 46.0872)">
<stop stop-color="#BDCACF"/>
<stop offset="1" stop-color="#828599"/>
</radialGradient>
<radialGradient id="paint8_radial_165:3749" cx="0" cy="0" r="1" gradientUnits="userSpaceOnUse" gradientTransform="translate(182.882 -9.90115) scale(23.2331 23.2409)">
<stop stop-color="#E4ECF0"/>
<stop offset="1" stop-color="#A6B4BD"/>
</radialGradient>
<radialGradient id="paint9_radial_165:3749" cx="0" cy="0" r="1" gradientUnits="userSpaceOnUse" gradientTransform="translate(198.782 -29.038) scale(42.6481 42.6624)">
<stop stop-color="#E4ECF0"/>
<stop offset="1" stop-color="#A6B4BD"/>
</radialGradient>
<radialGradient id="paint10_radial_165:3749" cx="0" cy="0" r="1" gradientUnits="userSpaceOnUse" gradientTransform="translate(213.628 -17.3305) scale(38.529 38.5419)">
<stop stop-color="#E4ECF0"/>
<stop offset="1" stop-color="#929EA6"/>
</radialGradient>
<radialGradient id="paint11_radial_165:3749" cx="0" cy="0" r="1" gradientUnits="userSpaceOnUse" gradientTransform="translate(211.157 11.8266) scale(39.2827 39.2959)">
<stop stop-color="#9DA9AB"/>
<stop offset="1" stop-color="#555763"/>
</radialGradient>
<radialGradient id="paint12_radial_165:3749" cx="0" cy="0" r="1" gradientUnits="userSpaceOnUse" gradientTransform="translate(216.132 29.9355) scale(21.6444 21.6516)">
<stop stop-color="#9DA9AB"/>
<stop offset="1" stop-color="#555763"/>
</radialGradient>
<radialGradient id="paint13_radial_165:3749" cx="0" cy="0" r="1" gradientUnits="userSpaceOnUse" gradientTransform="translate(193.839 30.668) scale(37.0092 37.0217)">
<stop stop-color="#9DA9AB"/>
<stop offset="1" stop-color="#555763"/>
</radialGradient>
<radialGradient id="paint14_radial_165:3749" cx="0" cy="0" r="1" gradientUnits="userSpaceOnUse" gradientTransform="translate(173.693 33.2433) scale(41.4828 41.4967)">
<stop stop-color="#9DA9AB"/>
<stop offset="1" stop-color="#555763"/>
</radialGradient>
<radialGradient id="paint15_radial_165:3749" cx="0" cy="0" r="1" gradientUnits="userSpaceOnUse" gradientTransform="translate(179.206 95.5461) scale(52.5258 52.5434)">
<stop stop-color="#9DA9AB"/>
<stop offset="1" stop-color="#555763"/>
</radialGradient>
<radialGradient id="paint16_radial_165:3749" cx="0" cy="0" r="1" gradientUnits="userSpaceOnUse" gradientTransform="translate(130.061 82.6225) scale(35.0488 35.0606)">
<stop stop-color="#9DA9AB"/>
<stop offset="1" stop-color="#555763"/>
</radialGradient>
<radialGradient id="paint17_radial_165:3749" cx="0" cy="0" r="1" gradientUnits="userSpaceOnUse" gradientTransform="translate(128.477 97.3666) scale(77.7582 77.7844)">
<stop stop-color="#9DA9AB"/>
<stop offset="1" stop-color="#555763"/>
</radialGradient>
<radialGradient id="paint18_radial_165:3749" cx="0" cy="0" r="1" gradientUnits="userSpaceOnUse" gradientTransform="translate(80.5518 42.2396) scale(35.3468 35.3586)">
<stop stop-color="#9DA9AB"/>
<stop offset="1" stop-color="#555763"/>
</radialGradient>
<radialGradient id="paint19_radial_165:3749" cx="0" cy="0" r="1" gradientUnits="userSpaceOnUse" gradientTransform="translate(66.6825 41.6837) scale(25.9033 25.912)">
<stop stop-color="#9DA9AB"/>
<stop offset="1" stop-color="#555763"/>
</radialGradient>
<radialGradient id="paint20_radial_165:3749" cx="0" cy="0" r="1" gradientUnits="userSpaceOnUse" gradientTransform="translate(52.0775 95.9303) scale(44.7483 44.7634)">
<stop stop-color="#9DA9AB"/>
<stop offset="1" stop-color="#555763"/>
</radialGradient>
<radialGradient id="paint21_radial_165:3749" cx="0" cy="0" r="1" gradientUnits="userSpaceOnUse" gradientTransform="translate(20.9825 87.0219) scale(42.9557 42.9701)">
<stop stop-color="#9DA9AB"/>
<stop offset="1" stop-color="#555763"/>
</radialGradient>
<radialGradient id="paint22_radial_165:3749" cx="0" cy="0" r="1" gradientUnits="userSpaceOnUse" gradientTransform="translate(27.1058 36.5957) scale(30.4441 30.4543)">
<stop stop-color="#9DA9AB"/>
<stop offset="1" stop-color="#555763"/>
</radialGradient>
<radialGradient id="paint23_radial_165:3749" cx="0" cy="0" r="1" gradientUnits="userSpaceOnUse" gradientTransform="translate(-13.6798 48.477) scale(46.405 46.4206)">
<stop stop-color="#9DA9AB"/>
<stop offset="1" stop-color="#555763"/>
</radialGradient>
<radialGradient id="paint24_radial_165:3749" cx="0" cy="0" r="1" gradientUnits="userSpaceOnUse" gradientTransform="translate(-6.24039 34.3829) scale(31.9249 31.9356)">
<stop stop-color="#9DA9AB"/>
<stop offset="1" stop-color="#555763"/>
</radialGradient>
<radialGradient id="paint25_radial_165:3749" cx="0" cy="0" r="1" gradientUnits="userSpaceOnUse" gradientTransform="translate(36.0657 -58.502) scale(231.644 231.722)">
<stop stop-color="#E2F1F7"/>
<stop offset="1" stop-color="#9A9DB5"/>
</radialGradient>
<radialGradient id="paint26_radial_165:3749" cx="0" cy="0" r="1" gradientUnits="userSpaceOnUse" gradientTransform="translate(31.1938 61.3453) scale(97.0079 97.0404)">
<stop stop-color="#AAB4B8"/>
<stop offset="1" stop-color="#828599"/>
</radialGradient>
<radialGradient id="paint27_radial_165:3749" cx="0" cy="0" r="1" gradientUnits="userSpaceOnUse" gradientTransform="translate(58.33 105.812) scale(152.019 152.07)">
<stop stop-color="#717485"/>
<stop offset="1" stop-color="#9DA9AB"/>
</radialGradient>
<radialGradient id="paint28_radial_165:3749" cx="0" cy="0" r="1" gradientUnits="userSpaceOnUse" gradientTransform="translate(94.8584 86.9329) scale(148.283 148.333)">
<stop stop-color="#AAB4B8"/>
<stop offset="1" stop-color="#828599"/>
</radialGradient>
<radialGradient id="paint29_radial_165:3749" cx="0" cy="0" r="1" gradientUnits="userSpaceOnUse" gradientTransform="translate(136.634 -6.4374) scale(90.8748 90.9053)">
<stop stop-color="#9DA9AB"/>
<stop offset="1" stop-color="#717485"/>
</radialGradient>
<radialGradient id="paint30_radial_165:3749" cx="0" cy="0" r="1" gradientUnits="userSpaceOnUse" gradientTransform="translate(144.062 42.0228) scale(75.3056 75.3309)">
<stop stop-color="#9DA9AB"/>
<stop offset="1" stop-color="#717485"/>
</radialGradient>
<radialGradient id="paint31_radial_165:3749" cx="0" cy="0" r="1" gradientUnits="userSpaceOnUse" gradientTransform="translate(75.7043 5.13776) scale(143.713 143.761)">
<stop stop-color="#E2F1F7"/>
<stop offset="1" stop-color="#9A9DB5"/>
</radialGradient>
<radialGradient id="paint32_radial_165:3749" cx="0" cy="0" r="1" gradientUnits="userSpaceOnUse" gradientTransform="translate(72.124 3.47945) scale(127.576 127.619)">
<stop stop-color="#E2F1F7"/>
<stop offset="1" stop-color="#9A9DB5"/>
</radialGradient>
<radialGradient id="paint33_radial_165:3749" cx="0" cy="0" r="1" gradientUnits="userSpaceOnUse" gradientTransform="translate(177.208 40.6919) scale(10.1445 10.1479)">
<stop stop-color="#9DA9AB"/>
<stop offset="1" stop-color="#717485"/>
</radialGradient>
<radialGradient id="paint34_radial_165:3749" cx="0" cy="0" r="1" gradientUnits="userSpaceOnUse" gradientTransform="translate(33.3316 32.5789) rotate(5.79861) scale(16.7227 16.7282)">
<stop stop-color="#9DA9AB"/>
<stop offset="1" stop-color="#717485"/>
</radialGradient>
<radialGradient id="paint35_radial_165:3749" cx="0" cy="0" r="1" gradientUnits="userSpaceOnUse" gradientTransform="translate(182.005 34.7916) scale(15.4875 15.4927)">
<stop stop-color="#A3AAB0"/>
<stop offset="0.126" stop-color="#9DA4AB"/>
<stop offset="1" stop-color="#777A8C"/>
</radialGradient>
<linearGradient id="paint36_linear_165:3749" x1="105.972" y1="58.4099" x2="105.972" y2="8.57716" gradientUnits="userSpaceOnUse">
<stop stop-color="#5B666B"/>
<stop offset="1" stop-color="#4A555C"/>
</linearGradient>
<linearGradient id="paint37_linear_165:3749" x1="105.602" y1="55.7588" x2="105.602" y2="-25.6378" gradientUnits="userSpaceOnUse">
<stop stop-color="#E8E8E8"/>
<stop offset="0.9862" stop-color="#ADB4BA"/>
</linearGradient>
</defs>
</svg>
