<svg width="153" height="151" viewBox="0 0 153 151" fill="none" xmlns="http://www.w3.org/2000/svg">
<g filter="url(#filter0_dddiiii_217:91)">
<mask id="mask0_217:91" style="mask-type:alpha" maskUnits="userSpaceOnUse" x="6" y="20" width="142" height="113">
<path d="M94.9552 125.087L93.9602 126.303C92.8704 127.666 91.4962 128.918 89.9799 129.987L81.6877 129.839C80.0128 129.839 79.0342 129.839 77.5179 129.839C75.9542 129.839 74.4407 129.839 73.3007 129.803L64.9137 129.839C63.587 128.882 62.4024 127.776 61.3599 126.598L60.0806 125.087H94.9552Z" fill="url(#paint0_linear_217:91)"/>
<path fill-rule="evenodd" clip-rule="evenodd" d="M99.2192 123.086L95.5706 127.543C94.3468 129.072 92.8286 130.449 91.1813 131.61L90.6267 132L81.6694 131.841H77.4869C75.9635 131.841 74.4409 131.841 73.2722 131.804L64.2418 131.844L63.6939 131.449C62.2308 130.392 60.9364 129.182 59.8071 127.905L59.7928 127.889L55.7241 123.086H99.2192ZM73.3011 129.803C74.4407 129.839 75.9537 129.839 77.5169 129.839H81.688L89.9803 129.987C91.2002 129.127 92.3282 128.149 93.2901 127.089C93.5237 126.831 93.7476 126.569 93.9605 126.303L94.9556 125.087H60.0809L61.3603 126.598C61.5064 126.763 61.6553 126.927 61.807 127.089C62.7376 128.083 63.7733 129.016 64.9141 129.839L73.3011 129.803Z" fill="url(#paint1_linear_217:91)"/>
<path d="M86.3649 124.92L85.3016 119.407C85.1194 118.473 84.0713 117.777 82.8259 117.777H71.8139C70.5684 117.777 69.5204 118.473 69.3381 119.407L68.3205 124.831L66.6345 125.202L69.2014 129.01C69.8546 129.973 70.86 129.09 72.0295 129.09H82.6465C83.8464 129.09 85.0586 129.944 85.6965 128.951L88.0356 125.305L86.3649 124.92Z" fill="url(#paint2_linear_217:91)"/>
<path fill-rule="evenodd" clip-rule="evenodd" d="M85.3022 119.407L86.3654 124.92L88.0362 125.305L85.6971 128.951C85.271 129.614 84.5886 129.454 83.8248 129.274C83.4452 129.185 83.0454 129.091 82.6471 129.091H72.03C71.6246 129.091 71.239 129.197 70.8808 129.295C70.2058 129.481 69.6287 129.64 69.202 129.01L66.6351 125.202L68.321 124.831L69.3387 119.407C69.5209 118.473 70.569 117.777 71.8145 117.777H82.8264C84.0719 117.777 85.1199 118.473 85.3022 119.407ZM66.5473 123.169L63.2921 123.885L67.4879 130.11L67.491 130.115C67.8907 130.704 68.4718 131.169 69.2309 131.364C69.9032 131.538 70.5065 131.441 70.8528 131.369C71.0571 131.326 71.3943 131.234 71.5792 131.184C71.637 131.168 71.68 131.156 71.6993 131.152C71.9053 131.1 71.9927 131.092 72.03 131.092H82.6471C82.7142 131.092 82.8362 131.105 83.0878 131.161C83.1274 131.169 83.1842 131.183 83.2524 131.199C83.4641 131.249 83.785 131.324 84.0358 131.366C84.4044 131.428 85.0082 131.498 85.6644 131.322C86.412 131.121 87.0202 130.66 87.4353 130.014L91.294 124L88.1349 123.271L87.3183 119.037L87.3174 119.033C86.8907 116.847 84.6954 115.775 82.8264 115.775H71.8145C69.9455 115.775 67.7502 116.847 67.3235 119.033L66.5473 123.169Z" fill="url(#paint3_linear_217:91)"/>
<path d="M61.8959 97.5483L52.661 92.969C49.7903 91.5463 47.6487 89.0122 46.7678 85.989L45.5071 81.6616L54.59 86.0631C57.4759 87.4561 59.6327 89.9754 60.5289 92.9838L61.8959 97.5483Z" fill="url(#paint4_linear_217:91)"/>
<path fill-rule="evenodd" clip-rule="evenodd" d="M65.1956 101.43L51.7321 94.7537C51.7319 94.7537 51.7322 94.7538 51.7321 94.7537C48.3528 93.0789 45.832 90.0966 44.7946 86.5365L42.2657 77.8562L55.4998 84.2692C55.5003 84.2694 55.4992 84.2689 55.4998 84.2692C58.9007 85.9114 61.4422 88.8794 62.4985 92.4243C62.4986 92.4246 62.4984 92.4239 62.4985 92.4243L65.1956 101.43ZM54.5901 86.0632L45.5071 81.6618L46.7678 85.9891C47.6488 89.0123 49.7904 91.5465 52.6611 92.9692L61.8959 97.5484L60.5289 92.984C59.6328 89.9756 57.476 87.4563 54.5901 86.0632Z" fill="url(#paint5_linear_217:91)"/>
<path d="M91.9547 97.9642L100.931 92.9255C103.726 91.3546 105.716 88.7167 106.445 85.6491L107.478 81.2625L98.6378 86.1233C95.8279 87.6645 93.8229 90.2876 93.0787 93.3405L91.9547 97.9642Z" fill="url(#paint6_linear_217:91)"/>
<path fill-rule="evenodd" clip-rule="evenodd" d="M88.8629 102.008L91.0824 92.8779C91.9572 89.2894 94.3162 86.197 97.6314 84.3784C97.6317 84.3782 97.6311 84.3785 97.6314 84.3784L110.517 77.293L108.443 86.1006C107.587 89.7034 105.248 92.8084 101.955 94.6592L88.8629 102.008ZM91.9545 97.9635L93.0784 93.3398C93.8227 90.287 95.8276 87.6639 98.6376 86.1226L107.477 81.2618L106.445 85.6484C105.716 88.7161 103.726 91.354 100.931 92.9249L91.9545 97.9635Z" fill="url(#paint7_linear_217:91)"/>
<path d="M112.11 74.252L123.259 83.3216C126.737 86.1521 131.248 87.4266 135.729 86.8635L142.139 86.0484L131.294 77.0677C127.846 74.2223 123.35 72.9034 118.869 73.4517L112.11 74.252Z" fill="url(#paint8_linear_217:91)"/>
<path fill-rule="evenodd" clip-rule="evenodd" d="M107.15 72.8229L118.618 71.4651C123.672 70.8478 128.738 72.3369 132.619 75.5394L132.621 75.5416L147 87.4486L135.991 88.8486C130.946 89.4826 125.864 88.0473 121.945 84.8588C121.945 84.8587 121.945 84.8589 121.945 84.8588L107.15 72.8229ZM123.259 83.3215C126.737 86.152 131.248 87.4265 135.729 86.8634L142.139 86.0483L131.294 77.0676C127.846 74.2222 123.35 72.9033 118.869 73.4516L112.11 74.2519L123.259 83.3215Z" fill="url(#paint9_linear_217:91)"/>
<path d="M40.7677 73.9854L29.7102 83.1587C26.2623 86.0189 21.7512 87.3379 17.2705 86.8044L10.8456 86.0486L21.5993 76.9641C25.0168 74.0891 29.5127 72.7257 33.9934 73.2296L40.7677 73.9854Z" fill="url(#paint10_linear_217:91)"/>
<path fill-rule="evenodd" clip-rule="evenodd" d="M45.7 72.5209L31.0393 84.6835C27.1552 87.9055 22.0728 89.3921 17.0236 88.7913C17.0232 88.7912 17.0241 88.7913 17.0236 88.7913L6 87.4945L20.2599 75.4481C24.1076 72.2112 29.1728 70.6728 34.2274 71.2409C34.2278 71.241 34.227 71.2409 34.2274 71.2409L45.7 72.5209ZM17.2707 86.8042C21.7514 87.3378 26.2625 86.0188 29.7104 83.1586L40.7679 73.9853L33.9937 73.2295C29.5129 72.7256 25.017 74.089 21.5995 76.964L10.8458 86.0484L17.2707 86.8042Z" fill="url(#paint11_linear_217:91)"/>
<path d="M95.8432 71.0662C99.0025 73.6003 98.4709 77.8536 94.7496 79.8098L83.5858 85.708V96.9857C83.5858 97.3414 83.4947 97.6823 83.3124 98.0083L83.0238 98.4973C82.7201 99.0308 82.1733 99.4606 81.5049 99.6977L77.8748 100.987C77.4951 101.12 77.085 101.195 76.6749 101.195C76.2344 101.195 75.7939 101.12 75.399 100.957L71.6018 99.4902C71.0246 99.268 70.5538 98.8975 70.25 98.4529L69.8703 97.8897C69.6424 97.5341 69.5057 97.1339 69.5057 96.7338V86.0192L57.9014 79.6912C54.3472 77.7498 53.7701 73.6892 56.7167 71.1551L59.7849 68.5024C60.4532 67.9244 61.562 67.8207 62.3822 68.2653L75.2623 75.2898V89.161V94.5257C75.2623 95.0592 75.7332 95.5482 76.4015 95.6223C77.1913 95.6964 77.8596 95.2074 77.8596 94.5701V75.3046L90.193 68.3986C90.9828 67.954 92.0612 68.0281 92.7447 68.5765L95.8432 71.0662Z" fill="url(#paint12_linear_217:91)"/>
<path fill-rule="evenodd" clip-rule="evenodd" d="M62.382 68.2656L75.2621 75.2902V94.5261C75.2621 95.0596 75.733 95.5486 76.4013 95.6227C77.1911 95.6968 77.8594 95.2078 77.8594 94.5705V75.305L90.1928 68.399C90.9826 67.9544 92.061 68.0285 92.7445 68.5769L95.843 71.0666C99.0023 73.6007 98.4707 77.854 94.7494 79.8102L83.5856 85.7084V96.9861C83.5856 97.3418 83.4945 97.6826 83.3122 98.0087L83.0236 98.4977C82.7198 99.0312 82.1731 99.461 81.5047 99.6981L77.8746 100.987C77.4949 101.121 77.0848 101.195 76.6747 101.195C76.2342 101.195 75.7937 101.121 75.3988 100.958L71.6016 99.4906C71.0244 99.2683 70.5536 98.8979 70.2498 98.4533L69.8701 97.8901C69.6422 97.5345 69.5055 97.1343 69.5055 96.7342V86.0196L57.9012 79.6916C54.347 77.7502 53.7699 73.6896 56.7165 71.1555L59.7847 68.5028C60.453 67.9248 61.5618 67.8211 62.382 68.2656ZM58.4241 67.0047C58.4242 67.0047 58.424 67.0048 58.4241 67.0047C59.7812 65.8312 61.8419 65.6832 63.3782 66.5159L63.3829 66.5185L76.578 73.7147L89.1676 66.6653C89.1684 66.6649 89.1691 66.6644 89.1699 66.664C90.6666 65.8228 92.6753 65.93 94.0474 67.0308L97.1458 69.5204C97.1463 69.5208 97.1454 69.52 97.1458 69.5204C99.2299 71.1927 100.206 73.5495 99.9128 75.8975C99.6208 78.2323 98.1076 80.3177 95.7245 81.5712C95.7238 81.5715 95.7232 81.5719 95.7225 81.5723L85.6371 86.9007V96.9861C85.6371 97.6917 85.4523 98.3606 85.1132 98.9671L85.1019 98.9874L84.808 99.4854C84.2274 100.495 83.2589 101.206 82.2058 101.579L78.5695 102.871C77.979 103.078 77.3342 103.196 76.6747 103.196C76.0152 103.196 75.3051 103.088 74.6245 102.811L70.8484 101.352C69.9086 100.99 69.0939 100.37 68.5429 99.5635L68.5359 99.5534L68.1431 98.9707L68.1304 98.951C67.7385 98.3391 67.4541 97.5764 67.4541 96.7342V87.1939L56.9004 81.4388C54.6229 80.1948 53.1548 78.1786 52.8384 75.9165C52.52 73.6395 53.4022 71.3389 55.3578 69.6558L58.4241 67.0047Z" fill="url(#paint13_linear_217:91)"/>
<path d="M112.642 74.6965L98.1516 62.7666C98.5313 61.996 128.803 54.853 125.142 51.3111C110.971 37.6029 120.844 21.0049 120.844 21.0049C120.844 21.0049 118.565 29.8078 121.239 35.4392C124.14 41.5301 132.706 46.5391 136.352 52.7782C139.146 57.5501 137.46 63.6262 132.6 66.3826C128.575 68.6797 112.642 74.6965 112.642 74.6965Z" fill="url(#paint14_linear_217:91)"/>
<path fill-rule="evenodd" clip-rule="evenodd" d="M112.248 76.9914L95.6141 63.2966L96.3026 61.8994C96.5245 61.4491 96.8587 61.2001 96.9454 61.1355C97.0822 61.0336 97.2109 60.9611 97.293 60.9175C97.4615 60.8281 97.6397 60.7531 97.7872 60.6948C98.0937 60.5737 98.4888 60.439 98.9274 60.2978C99.8144 60.0121 101.04 59.6483 102.452 59.2333C102.727 59.1524 103.01 59.0693 103.3 58.9843C106.006 58.1896 109.312 57.219 112.514 56.179C116.086 55.0188 119.404 53.8113 121.577 52.7105C122.16 52.4155 122.597 52.1585 122.913 51.9469C115.988 44.7731 114.915 36.8924 115.641 30.7869C116.014 27.6461 116.86 24.9745 117.61 23.0884C117.986 22.1429 118.341 21.3877 118.606 20.8615C118.739 20.5982 118.85 20.3917 118.929 20.2467C118.969 20.1741 119.002 20.117 119.025 20.0757L119.054 20.0258L119.064 20.01L119.067 20.0043L119.068 20.0021C119.069 20.0011 119.069 20.0002 120.844 21.0049C120.844 21.0049 118.797 24.4461 117.905 29.4888C116.838 35.5209 117.423 43.8447 125.142 51.3111C127.799 53.8817 112.582 58.3491 103.892 60.9007C102.513 61.3053 101.299 61.6618 100.346 61.9549C99.1275 62.3298 98.3366 62.601 98.1775 62.7366C98.1647 62.7475 98.156 62.7576 98.1515 62.7667L112.642 74.6965L113.382 76.5632L112.248 76.9914ZM132.6 66.3827C128.575 68.6797 112.642 74.6965 112.642 74.6965C113.382 76.5632 113.382 76.5632 113.382 76.5632L113.565 76.494L114.08 76.2979C114.526 76.1281 115.167 75.8831 115.948 75.5821C117.51 74.9802 119.635 74.1531 121.888 73.2535C126.319 71.4843 131.465 69.3484 133.633 68.1118C139.463 64.8039 141.487 57.5151 138.134 51.787C136.242 48.5493 133.181 45.6655 130.415 43.0599C130.256 42.9105 130.099 42.7621 129.942 42.6145C126.92 39.762 124.361 37.2437 123.1 34.5975C121.992 32.2631 121.856 29.0823 122.084 26.2681C122.195 24.8996 122.385 23.693 122.547 22.8298C122.628 22.3993 122.702 22.0572 122.754 21.8266C122.78 21.7113 122.801 21.6241 122.815 21.5678L122.83 21.5071L122.833 21.495C122.833 21.495 122.833 21.4944 122.829 21.4934L119.069 20.0002L120.844 21.0049C120.844 21.0049 119.762 25.1828 119.964 29.6234C120.055 31.6286 120.407 33.6874 121.239 35.4393C122.754 38.6218 125.817 41.509 128.916 44.4306C131.748 47.1005 134.611 49.7992 136.351 52.7783C139.146 57.5502 137.46 63.6262 132.6 66.3827Z" fill="url(#paint15_linear_217:91)"/>
<path d="M40.2814 74.4592L54.164 61.8625C53.7539 61.1067 23.1635 55.3863 26.6418 51.6962C40.1295 37.336 29.4517 21.2418 29.4517 21.2418C29.4517 21.2418 32.1554 29.9261 29.7707 35.6762C27.1734 41.9004 18.8651 47.3096 15.5235 53.7117C12.9718 58.6021 14.9464 64.5893 19.9435 67.1234C24.0749 69.213 40.2814 74.4592 40.2814 74.4592Z" fill="url(#paint16_linear_217:91)"/>
<path fill-rule="evenodd" clip-rule="evenodd" d="M40.789 76.7323L39.6358 76.3589L40.2817 74.4592L54.1644 61.8625C54.1593 61.8532 54.1497 61.8431 54.1356 61.8323C53.9678 61.7036 53.1662 61.4696 51.9343 61.1526C50.9583 60.9014 49.7121 60.5981 48.2969 60.2537C39.4849 58.1089 24.1221 54.3697 26.6421 51.6962C33.9897 43.8734 34.1658 35.536 32.8035 29.5662C31.665 24.5773 29.4521 21.2419 29.4521 21.2419C31.1742 20.1542 31.1748 20.155 31.1754 20.156L31.1768 20.1582L31.1804 20.1636L31.1905 20.179L31.2218 20.2275C31.2475 20.2675 31.2826 20.3231 31.3261 20.3936C31.4131 20.5345 31.5338 20.7355 31.6793 20.992C31.9702 21.5046 32.3619 22.2415 32.7841 23.1673C33.6262 25.0143 34.6022 27.6408 35.1291 30.7583C36.1532 36.8171 35.4677 44.7316 28.9059 52.2206C29.2316 52.4161 29.6796 52.6505 30.2725 52.9157C32.4987 53.9117 35.8733 54.9613 39.4986 55.9524C42.73 56.8357 46.0606 57.6464 48.7941 58.3118C49.1039 58.3872 49.4059 58.4607 49.6994 58.5322C51.1294 58.881 52.3716 59.1874 53.2714 59.4317C53.7162 59.5525 54.1177 59.6689 54.4301 59.7761C54.5804 59.8277 54.7627 59.8948 54.9363 59.9771C55.0208 60.0172 55.1534 60.0842 55.296 60.1812C55.3864 60.2426 55.7353 60.4798 55.9774 60.926L56.7136 62.2827L40.789 76.7323ZM30.7538 29.7979C30.7631 31.8079 30.5141 33.8845 29.7711 35.6762C28.4125 38.9319 25.4914 41.9646 22.5359 45.033C19.841 47.8308 17.1176 50.6583 15.5239 53.7117C12.9722 58.6022 14.9467 64.5893 19.9439 67.1235C24.0752 69.213 40.2817 74.4592 40.2817 74.4592C39.6358 76.3589 39.6359 76.359 39.6358 76.3589L39.45 76.2986L38.9255 76.1275C38.4721 75.9793 37.8204 75.7654 37.0256 75.5022C35.4366 74.9761 33.2735 74.2523 30.9794 73.4624C26.4656 71.9084 21.2218 70.0244 18.9997 68.9005L18.9978 68.8995C13.0043 65.8601 10.6315 58.6763 13.6957 52.8036C15.4274 49.4859 18.34 46.4641 20.9727 43.7329C21.1265 43.5734 21.2793 43.4149 21.4308 43.2574C24.3093 40.2654 26.7411 37.6277 27.8703 34.9233C28.8583 32.5389 28.8369 29.3555 28.4709 26.556C28.2928 25.1943 28.0439 23.998 27.8395 23.1435C27.7376 22.7173 27.6474 22.3791 27.584 22.1512C27.5522 22.0373 27.5272 21.9511 27.5108 21.8955L27.4928 21.8355L27.4892 21.8236C27.4892 21.8236 27.489 21.823 27.4932 21.8218L31.1742 20.1542L29.4521 21.2419C29.4521 21.2419 30.7333 25.3573 30.7538 29.7979ZM27.7276 22.326C27.7275 22.3258 27.7275 22.3259 27.7276 22.326Z" fill="url(#paint17_linear_217:91)"/>
<path d="M46.0688 56.35L47.6637 51.4003C48.1649 49.859 49.2889 48.5845 50.7926 47.9028L52.9342 46.9099L51.4153 51.7708C50.9293 53.312 49.8053 54.5865 48.3168 55.2978L46.0688 56.35Z" fill="url(#paint18_linear_217:91)"/>
<path fill-rule="evenodd" clip-rule="evenodd" d="M42.6942 60.1501L45.7083 50.7954C46.3772 48.7387 47.8833 47.0181 49.9195 46.092L56.252 43.1561L53.3761 52.3599C52.7215 54.4355 51.2105 56.1443 49.2192 57.0959L49.2042 57.103L42.6942 60.1501ZM50.4218 48.0875C49.1044 48.8011 48.1228 49.989 47.6637 51.4008L46.0689 56.3505L48.3168 55.2983C48.4148 55.2515 48.5112 55.2022 48.6059 55.1506C49.9505 54.4181 50.9613 53.2111 51.4154 51.7713L52.9342 46.9104L50.7926 47.9033C50.6663 47.9606 50.5426 48.0221 50.4218 48.0875Z" fill="url(#paint19_linear_217:91)"/>
<path d="M52.5846 51.7551L53.8756 47.7241C54.2857 46.4645 55.1971 45.4419 56.4122 44.8788L58.1589 44.0785L56.9286 48.0353C56.5337 49.295 55.6224 50.3324 54.4073 50.8955L52.5846 51.7551Z" fill="url(#paint20_linear_217:91)"/>
<path fill-rule="evenodd" clip-rule="evenodd" d="M49.2144 55.5674L51.9206 47.1179C52.5014 45.3341 53.7991 43.8737 55.5321 43.0706L55.5404 43.0667L61.4607 40.3544L58.8905 48.6206C58.3297 50.4094 57.0325 51.8923 55.2944 52.7001L49.2144 55.5674ZM55.1456 50.4697C55.9899 49.8767 56.6186 49.0245 56.9288 48.0351L58.1591 44.0783L56.4123 44.8785C56.1325 45.0082 55.8688 45.1623 55.6236 45.338C54.8041 45.9252 54.1915 46.7543 53.8758 47.7239L52.5847 51.7549L54.4074 50.8953C54.6682 50.7745 54.915 50.6318 55.1456 50.4697Z" fill="url(#paint21_linear_217:91)"/>
<path d="M58.0834 49.0587L60.6959 45.6947C61.5161 44.6425 62.7312 43.9756 64.083 43.857L65.9968 43.6792L63.4602 46.9988C62.6552 48.051 61.4401 48.7327 60.1035 48.8661L58.0834 49.0587Z" fill="url(#paint22_linear_217:91)"/>
<path fill-rule="evenodd" clip-rule="evenodd" d="M53.6169 51.4955L59.063 44.4827C60.2244 42.9929 61.9589 42.035 63.8934 41.8637L70.405 41.2587L65.1049 48.1949C63.9626 49.688 62.2301 50.6656 60.3122 50.857L60.3031 50.8579L53.6169 51.4955ZM63.1745 44.0238C62.1928 44.3027 61.3273 44.8844 60.6959 45.6944L58.0834 49.0585L60.1035 48.8658C60.3843 48.8378 60.6598 48.7855 60.9272 48.7108C61.9326 48.4296 62.8244 47.8296 63.4602 46.9985L65.9968 43.6789L64.083 43.8568C63.7718 43.884 63.468 43.9404 63.1745 44.0238Z" fill="url(#paint23_linear_217:91)"/>
<path d="M49.1821 56.4524L54.483 56.1115C56.1386 56.0078 57.6727 55.2372 58.7055 53.9775L60.1941 52.1843L54.9843 52.4659C53.3287 52.5548 51.7946 53.3106 50.7466 54.5555L49.1821 56.4524Z" fill="url(#paint24_linear_217:91)"/>
<path fill-rule="evenodd" clip-rule="evenodd" d="M44.6545 58.7499L49.1613 53.2854C50.5762 51.6049 52.6455 50.5876 54.8708 50.4679L64.7002 49.9366L60.3034 55.2334C58.9051 56.9358 56.8367 57.9698 54.6164 58.1094C54.6158 58.1094 54.617 58.1094 54.6164 58.1094L44.6545 58.7499ZM54.4831 56.112C55.9998 56.017 57.4145 55.3623 58.4353 54.2845C58.5288 54.1859 58.6189 54.0837 58.7056 53.978L60.1941 52.1848L54.9843 52.4664C53.4297 52.5499 51.9822 53.2214 50.9437 54.3337C50.8763 54.406 50.8105 54.4801 50.7466 54.556L49.1822 56.4529L54.4831 56.112Z" fill="url(#paint25_linear_217:91)"/>
<path d="M107.128 57.0906L105.837 52.0519C105.442 50.481 104.379 49.1472 102.936 48.3766L100.855 47.2651L102.07 52.2149C102.45 53.7858 103.498 55.1196 104.941 55.905L107.128 57.0906Z" fill="url(#paint26_linear_217:91)"/>
<path fill-rule="evenodd" clip-rule="evenodd" d="M110.265 61.0806L103.941 57.6529C102.006 56.5996 100.589 54.805 100.074 52.678L97.7823 43.342L103.921 46.6208C103.921 46.6208 103.921 46.6208 103.921 46.6208C105.861 47.657 107.294 49.4498 107.828 51.5704L110.265 61.0806ZM105.837 52.0518C105.475 50.6114 104.551 49.3703 103.287 48.58C103.173 48.5084 103.056 48.4406 102.936 48.3766L100.855 47.2651L102.07 52.2149C102.425 53.6855 103.367 54.9483 104.669 55.7479C104.758 55.8025 104.849 55.8548 104.941 55.9049L107.128 57.0905L105.837 52.0518Z" fill="url(#paint27_linear_217:91)"/>
<path d="M100.9 52.1412L99.8524 48.051C99.5183 46.7765 98.6677 45.6947 97.483 45.0574L95.797 44.1534L96.7843 48.1696C97.1032 49.4441 97.9538 50.5407 99.1234 51.178L100.9 52.1412Z" fill="url(#paint28_linear_217:91)"/>
<path fill-rule="evenodd" clip-rule="evenodd" d="M104.037 56.1316L98.1228 52.9257C96.4508 52.0147 95.244 50.4543 94.7911 48.6446L94.7891 48.6366L92.7201 40.2201L98.4731 43.3048C100.159 44.2115 101.367 45.751 101.84 47.5552L101.842 47.5658L104.037 56.1316ZM98.2553 45.5733C99.0363 46.2104 99.596 47.0742 99.8521 48.0512L100.9 52.1414L99.1231 51.1782C98.873 51.0419 98.6374 50.8846 98.4186 50.709C97.614 50.0637 97.0347 49.1717 96.784 48.1698L95.7967 44.1536L97.4827 45.0576C97.7592 45.2064 98.0175 45.3794 98.2553 45.5733Z" fill="url(#paint29_linear_217:91)"/>
<path d="M95.5696 49.1327L93.1546 45.6353C92.4103 44.5386 91.2256 43.8125 89.889 43.605L87.9904 43.3086L90.3294 46.7616C91.0737 47.8582 92.2432 48.5992 93.5799 48.8067L95.5696 49.1327Z" fill="url(#paint30_linear_217:91)"/>
<path fill-rule="evenodd" clip-rule="evenodd" d="M99.9389 51.8786L93.2479 50.7823C91.3427 50.4839 89.6756 49.4242 88.6188 47.867L83.7048 40.6129L90.2111 41.6286C90.2114 41.6287 90.2108 41.6286 90.2111 41.6286C92.0934 41.921 93.7882 42.9486 94.8599 44.5233L99.9389 51.8786ZM93.1544 45.6356C92.5861 44.7982 91.7608 44.1767 90.8072 43.8374C90.5121 43.7324 90.2047 43.6544 89.8888 43.6053L87.9902 43.3089L90.3293 46.7619C90.9096 47.6171 91.7486 48.256 92.7238 48.5943C92.9992 48.6898 93.2854 48.7614 93.5797 48.807L95.5694 49.1331L93.1544 45.6356Z" fill="url(#paint31_linear_217:91)"/>
<path d="M103.999 57.032L98.7281 56.3947C97.0877 56.2021 95.5992 55.3425 94.6423 54.0236L93.2601 52.1415L98.4395 52.7194C100.08 52.8973 101.568 53.7568 102.541 55.0609L103.999 57.032Z" fill="url(#paint32_linear_217:91)"/>
<path fill-rule="evenodd" clip-rule="evenodd" d="M108.416 59.5827L98.4834 58.3817C98.4821 58.3816 98.4808 58.3814 98.4795 58.3813C96.2713 58.1208 94.2654 56.9644 92.9721 55.1848L88.9 49.64L98.67 50.7302C100.895 50.9725 102.897 52.1356 104.2 53.8834L104.204 53.8892L108.416 59.5827ZM94.8879 54.3375C95.8441 55.4784 97.2223 56.2176 98.7286 56.3945L103.999 57.0317L102.541 55.0607C102.479 54.977 102.414 54.8951 102.348 54.8151C101.377 53.649 99.9751 52.8856 98.44 52.7192L93.2606 52.1412L94.6428 54.0233C94.721 54.1312 94.8028 54.2359 94.8879 54.3375Z" fill="url(#paint33_linear_217:91)"/>
</mask>
<g mask="url(#mask0_217:91)">
<g style="mix-blend-mode:overlay">
<path d="M2.47498 16.5002H154.05V142.5H2.47498V16.5002Z" fill="white"/>
</g>
</g>
</g>
<g style="mix-blend-mode:overlay" opacity="0.3">
<path d="M0.999878 20.0005C0.999878 8.95479 9.95418 0.000488281 20.9999 0.000488281H133C144.046 0.000488281 153 8.95479 153 20.0005V47.0005H0.999878V20.0005Z" fill="url(#paint34_linear_217:91)"/>
</g>
<g style="mix-blend-mode:overlay" opacity="0.3">
<path d="M152.999 131C152.999 142.046 144.044 151 132.999 151L20.9988 151C9.95309 151 0.998786 142.046 0.998787 131L0.998789 104L152.999 104L152.999 131Z" fill="url(#paint35_linear_217:91)"/>
</g>
<defs>
<filter id="filter0_dddiiii_217:91" x="4" y="17.0002" width="145" height="117" filterUnits="userSpaceOnUse" color-interpolation-filters="sRGB">
<feFlood flood-opacity="0" result="BackgroundImageFix"/>
<feColorMatrix in="SourceAlpha" type="matrix" values="0 0 0 0 0 0 0 0 0 0 0 0 0 0 0 0 0 0 127 0" result="hardAlpha"/>
<feOffset dy="1"/>
<feGaussianBlur stdDeviation="0.5"/>
<feComposite in2="hardAlpha" operator="out"/>
<feColorMatrix type="matrix" values="0 0 0 0 0.878431 0 0 0 0 0.690196 0 0 0 0 1 0 0 0 1 0"/>
<feBlend mode="normal" in2="BackgroundImageFix" result="effect1_dropShadow_217:91"/>
<feColorMatrix in="SourceAlpha" type="matrix" values="0 0 0 0 0 0 0 0 0 0 0 0 0 0 0 0 0 0 127 0" result="hardAlpha"/>
<feOffset dy="-1"/>
<feGaussianBlur stdDeviation="1"/>
<feComposite in2="hardAlpha" operator="out"/>
<feColorMatrix type="matrix" values="0 0 0 0 0.254902 0 0 0 0 0.113725 0 0 0 0 0.329412 0 0 0 0.25 0"/>
<feBlend mode="normal" in2="effect1_dropShadow_217:91" result="effect2_dropShadow_217:91"/>
<feColorMatrix in="SourceAlpha" type="matrix" values="0 0 0 0 0 0 0 0 0 0 0 0 0 0 0 0 0 0 127 0" result="hardAlpha"/>
<feOffset dy="1"/>
<feComposite in2="hardAlpha" operator="out"/>
<feColorMatrix type="matrix" values="0 0 0 0 1 0 0 0 0 1 0 0 0 0 1 0 0 0 0.1 0"/>
<feBlend mode="normal" in2="effect2_dropShadow_217:91" result="effect3_dropShadow_217:91"/>
<feBlend mode="normal" in="SourceGraphic" in2="effect3_dropShadow_217:91" result="shape"/>
<feColorMatrix in="SourceAlpha" type="matrix" values="0 0 0 0 0 0 0 0 0 0 0 0 0 0 0 0 0 0 127 0" result="hardAlpha"/>
<feOffset dy="2"/>
<feGaussianBlur stdDeviation="3"/>
<feComposite in2="hardAlpha" operator="arithmetic" k2="-1" k3="1"/>
<feColorMatrix type="matrix" values="0 0 0 0 0.169746 0 0 0 0 0.00564235 0 0 0 0 0.270833 0 0 0 0.5 0"/>
<feBlend mode="normal" in2="shape" result="effect4_innerShadow_217:91"/>
<feColorMatrix in="SourceAlpha" type="matrix" values="0 0 0 0 0 0 0 0 0 0 0 0 0 0 0 0 0 0 127 0" result="hardAlpha"/>
<feOffset dy="-2"/>
<feGaussianBlur stdDeviation="2"/>
<feComposite in2="hardAlpha" operator="arithmetic" k2="-1" k3="1"/>
<feColorMatrix type="matrix" values="0 0 0 0 1 0 0 0 0 1 0 0 0 0 1 0 0 0 1 0"/>
<feBlend mode="normal" in2="effect4_innerShadow_217:91" result="effect5_innerShadow_217:91"/>
<feColorMatrix in="SourceAlpha" type="matrix" values="0 0 0 0 0 0 0 0 0 0 0 0 0 0 0 0 0 0 127 0" result="hardAlpha"/>
<feOffset dy="-1"/>
<feGaussianBlur stdDeviation="0.5"/>
<feComposite in2="hardAlpha" operator="arithmetic" k2="-1" k3="1"/>
<feColorMatrix type="matrix" values="0 0 0 0 1 0 0 0 0 1 0 0 0 0 1 0 0 0 1 0"/>
<feBlend mode="normal" in2="effect5_innerShadow_217:91" result="effect6_innerShadow_217:91"/>
<feColorMatrix in="SourceAlpha" type="matrix" values="0 0 0 0 0 0 0 0 0 0 0 0 0 0 0 0 0 0 127 0" result="hardAlpha"/>
<feOffset dy="1"/>
<feGaussianBlur stdDeviation="0.5"/>
<feComposite in2="hardAlpha" operator="arithmetic" k2="-1" k3="1"/>
<feColorMatrix type="matrix" values="0 0 0 0 0.169746 0 0 0 0 0.00564235 0 0 0 0 0.270833 0 0 0 0.25 0"/>
<feBlend mode="normal" in2="effect6_innerShadow_217:91" result="effect7_innerShadow_217:91"/>
</filter>
<linearGradient id="paint0_linear_217:91" x1="77.5179" y1="125.087" x2="77.5179" y2="137.097" gradientUnits="userSpaceOnUse">
<stop offset="0.276042" stop-color="#E8934B"/>
<stop offset="1" stop-color="#612C00"/>
</linearGradient>
<linearGradient id="paint1_linear_217:91" x1="77.5182" y1="125.087" x2="77.5182" y2="137.097" gradientUnits="userSpaceOnUse">
<stop stop-color="#FF9900"/>
<stop offset="1" stop-color="#612C00"/>
</linearGradient>
<linearGradient id="paint2_linear_217:91" x1="77.3351" y1="117.777" x2="77.3351" y2="130.551" gradientUnits="userSpaceOnUse">
<stop offset="0.276042" stop-color="#E8934B"/>
<stop offset="1" stop-color="#612C00"/>
</linearGradient>
<linearGradient id="paint3_linear_217:91" x1="77.3356" y1="117.777" x2="77.3356" y2="130.552" gradientUnits="userSpaceOnUse">
<stop stop-color="#FF9900"/>
<stop offset="1" stop-color="#612C00"/>
</linearGradient>
<linearGradient id="paint4_linear_217:91" x1="53.7015" y1="81.6616" x2="53.7015" y2="97.5483" gradientUnits="userSpaceOnUse">
<stop offset="0.276042" stop-color="#E8934B"/>
<stop offset="1" stop-color="#612C00"/>
</linearGradient>
<linearGradient id="paint5_linear_217:91" x1="53.7015" y1="81.6618" x2="53.7015" y2="97.5484" gradientUnits="userSpaceOnUse">
<stop stop-color="#FF9900"/>
<stop offset="1" stop-color="#612C00"/>
</linearGradient>
<linearGradient id="paint6_linear_217:91" x1="99.7162" y1="81.2625" x2="99.7162" y2="97.9642" gradientUnits="userSpaceOnUse">
<stop offset="0.276042" stop-color="#E8934B"/>
<stop offset="1" stop-color="#612C00"/>
</linearGradient>
<linearGradient id="paint7_linear_217:91" x1="99.716" y1="81.2618" x2="99.716" y2="97.9635" gradientUnits="userSpaceOnUse">
<stop stop-color="#FF9900"/>
<stop offset="1" stop-color="#612C00"/>
</linearGradient>
<linearGradient id="paint8_linear_217:91" x1="127.124" y1="73.3298" x2="127.124" y2="86.9939" gradientUnits="userSpaceOnUse">
<stop offset="0.276042" stop-color="#E8934B"/>
<stop offset="1" stop-color="#612C00"/>
</linearGradient>
<linearGradient id="paint9_linear_217:91" x1="127.125" y1="73.3297" x2="127.125" y2="86.9938" gradientUnits="userSpaceOnUse">
<stop stop-color="#FF9900"/>
<stop offset="1" stop-color="#612C00"/>
</linearGradient>
<linearGradient id="paint10_linear_217:91" x1="25.8066" y1="73.1267" x2="25.8066" y2="86.9206" gradientUnits="userSpaceOnUse">
<stop offset="0.276042" stop-color="#E8934B"/>
<stop offset="1" stop-color="#612C00"/>
</linearGradient>
<linearGradient id="paint11_linear_217:91" x1="25.8069" y1="73.1266" x2="25.8069" y2="86.9204" gradientUnits="userSpaceOnUse">
<stop stop-color="#FF9900"/>
<stop offset="1" stop-color="#612C00"/>
</linearGradient>
<linearGradient id="paint12_linear_217:91" x1="76.3696" y1="67.9897" x2="76.3696" y2="101.195" gradientUnits="userSpaceOnUse">
<stop offset="0.276042" stop-color="#E8934B"/>
<stop offset="1" stop-color="#612C00"/>
</linearGradient>
<linearGradient id="paint13_linear_217:91" x1="76.3694" y1="67.9901" x2="76.3694" y2="101.195" gradientUnits="userSpaceOnUse">
<stop stop-color="#FF9900"/>
<stop offset="1" stop-color="#612C00"/>
</linearGradient>
<linearGradient id="paint14_linear_217:91" x1="117.927" y1="21.0049" x2="117.927" y2="74.6965" gradientUnits="userSpaceOnUse">
<stop offset="0.276042" stop-color="#E8934B"/>
<stop offset="1" stop-color="#612C00"/>
</linearGradient>
<linearGradient id="paint15_linear_217:91" x1="117.926" y1="21.0049" x2="117.926" y2="74.6965" gradientUnits="userSpaceOnUse">
<stop stop-color="#FF9900"/>
<stop offset="1" stop-color="#612C00"/>
</linearGradient>
<linearGradient id="paint16_linear_217:91" x1="34.2862" y1="21.2418" x2="34.2862" y2="74.4592" gradientUnits="userSpaceOnUse">
<stop offset="0.276042" stop-color="#E8934B"/>
<stop offset="1" stop-color="#612C00"/>
</linearGradient>
<linearGradient id="paint17_linear_217:91" x1="34.2865" y1="21.2419" x2="34.2865" y2="74.4592" gradientUnits="userSpaceOnUse">
<stop stop-color="#FF9900"/>
<stop offset="1" stop-color="#612C00"/>
</linearGradient>
<linearGradient id="paint18_linear_217:91" x1="49.5015" y1="46.9099" x2="49.5015" y2="56.35" gradientUnits="userSpaceOnUse">
<stop offset="0.276042" stop-color="#E8934B"/>
<stop offset="1" stop-color="#612C00"/>
</linearGradient>
<linearGradient id="paint19_linear_217:91" x1="49.5016" y1="46.9104" x2="49.5016" y2="56.3505" gradientUnits="userSpaceOnUse">
<stop stop-color="#FF9900"/>
<stop offset="1" stop-color="#612C00"/>
</linearGradient>
<linearGradient id="paint20_linear_217:91" x1="55.3717" y1="44.0785" x2="55.3717" y2="51.7551" gradientUnits="userSpaceOnUse">
<stop offset="0.276042" stop-color="#E8934B"/>
<stop offset="1" stop-color="#612C00"/>
</linearGradient>
<linearGradient id="paint21_linear_217:91" x1="55.3719" y1="44.0783" x2="55.3719" y2="51.7549" gradientUnits="userSpaceOnUse">
<stop stop-color="#FF9900"/>
<stop offset="1" stop-color="#612C00"/>
</linearGradient>
<linearGradient id="paint22_linear_217:91" x1="62.0401" y1="43.6792" x2="62.0401" y2="49.0587" gradientUnits="userSpaceOnUse">
<stop offset="0.276042" stop-color="#E8934B"/>
<stop offset="1" stop-color="#612C00"/>
</linearGradient>
<linearGradient id="paint23_linear_217:91" x1="62.0401" y1="43.6789" x2="62.0401" y2="49.0585" gradientUnits="userSpaceOnUse">
<stop stop-color="#FF9900"/>
<stop offset="1" stop-color="#612C00"/>
</linearGradient>
<linearGradient id="paint24_linear_217:91" x1="54.6881" y1="52.1843" x2="54.6881" y2="56.4524" gradientUnits="userSpaceOnUse">
<stop offset="0.276042" stop-color="#E8934B"/>
<stop offset="1" stop-color="#612C00"/>
</linearGradient>
<linearGradient id="paint25_linear_217:91" x1="54.6881" y1="52.1848" x2="54.6881" y2="56.4529" gradientUnits="userSpaceOnUse">
<stop stop-color="#FF9900"/>
<stop offset="1" stop-color="#612C00"/>
</linearGradient>
<linearGradient id="paint26_linear_217:91" x1="103.992" y1="47.2651" x2="103.992" y2="57.0906" gradientUnits="userSpaceOnUse">
<stop offset="0.276042" stop-color="#E8934B"/>
<stop offset="1" stop-color="#612C00"/>
</linearGradient>
<linearGradient id="paint27_linear_217:91" x1="103.991" y1="47.2651" x2="103.991" y2="57.0905" gradientUnits="userSpaceOnUse">
<stop stop-color="#FF9900"/>
<stop offset="1" stop-color="#612C00"/>
</linearGradient>
<linearGradient id="paint28_linear_217:91" x1="98.3487" y1="44.1534" x2="98.3487" y2="52.1412" gradientUnits="userSpaceOnUse">
<stop offset="0.276042" stop-color="#E8934B"/>
<stop offset="1" stop-color="#612C00"/>
</linearGradient>
<linearGradient id="paint29_linear_217:91" x1="98.3484" y1="44.1536" x2="98.3484" y2="52.1414" gradientUnits="userSpaceOnUse">
<stop stop-color="#FF9900"/>
<stop offset="1" stop-color="#612C00"/>
</linearGradient>
<linearGradient id="paint30_linear_217:91" x1="91.78" y1="43.3086" x2="91.78" y2="49.1327" gradientUnits="userSpaceOnUse">
<stop offset="0.276042" stop-color="#E8934B"/>
<stop offset="1" stop-color="#612C00"/>
</linearGradient>
<linearGradient id="paint31_linear_217:91" x1="91.7798" y1="43.3089" x2="91.7798" y2="49.1331" gradientUnits="userSpaceOnUse">
<stop stop-color="#FF9900"/>
<stop offset="1" stop-color="#612C00"/>
</linearGradient>
<linearGradient id="paint32_linear_217:91" x1="98.6294" y1="52.1415" x2="98.6294" y2="57.032" gradientUnits="userSpaceOnUse">
<stop offset="0.276042" stop-color="#E8934B"/>
<stop offset="1" stop-color="#612C00"/>
</linearGradient>
<linearGradient id="paint33_linear_217:91" x1="98.6299" y1="52.1412" x2="98.6299" y2="57.0317" gradientUnits="userSpaceOnUse">
<stop stop-color="#FF9900"/>
<stop offset="1" stop-color="#612C00"/>
</linearGradient>
<linearGradient id="paint34_linear_217:91" x1="90.0136" y1="0.000499214" x2="86.4194" y2="38.0551" gradientUnits="userSpaceOnUse">
<stop stop-color="#141414"/>
<stop offset="1" stop-color="#E4ECF0" stop-opacity="0"/>
</linearGradient>
<linearGradient id="paint35_linear_217:91" x1="63.9851" y1="151" x2="67.5793" y2="112.946" gradientUnits="userSpaceOnUse">
<stop stop-color="#EAE9E9"/>
<stop offset="1" stop-color="#E4ECF0" stop-opacity="0"/>
</linearGradient>
</defs>
</svg>
