<svg width="346" height="68" viewBox="0 0 346 68" fill="none" xmlns="http://www.w3.org/2000/svg">
<path fill-rule="evenodd" clip-rule="evenodd" d="M33.1214 1.0089L73.3402 0L92.0695 1.81602L287.446 0.605341L312.879 1.0089L319.187 2.0178L336.34 10.8961L340.874 17.1513L346 34.3027L343.437 43.9881L336.34 57.7092L319.779 66.5875L312.879 67.3947L293.361 68L273.251 66.184L78.2689 67.3947L71.1715 65.7804L61.5111 67.3947L34.1071 68L23.0667 66.184L9.6604 57.7092L2.95726 46.0059L0 34.3027L2.16866 24.6172L9.6604 10.6944L20.3066 3.63205L33.1214 1.0089Z" fill="#A1A1A1"/>
<path fill-rule="evenodd" clip-rule="evenodd" d="M33.91 5.64989L22.4752 8.07126L13.8005 14.5282L5.52021 26.0297L3.74585 33.6974L6.90027 44.19L13.0119 55.0861L24.4467 62.3502H34.5014L60.9196 63.9644L71.3686 62.3502L78.6632 63.3591L273.448 60.5342L293.558 62.552L312.484 61.7449L318.202 61.3413L332.199 53.6736L339.691 41.9704L341.663 34.5045L337.917 20.1781L332.199 13.3176L318.399 6.86058L312.681 5.24633L287.84 4.84277L91.6752 8.07126L72.9458 6.45702L33.91 5.64989Z" fill="#A1A1A1"/>
<path fill-rule="evenodd" clip-rule="evenodd" d="M3.74587 33.6973L5.52023 26.0297L2.16866 24.6172L0 34.3026L3.74587 33.6973Z" fill="url(#paint0_radial_165:3902)"/>
<path fill-rule="evenodd" clip-rule="evenodd" d="M5.52027 26.0296L13.8006 14.5282L9.66044 10.6943L2.1687 24.6172L5.52027 26.0296Z" fill="url(#paint1_radial_165:3902)"/>
<path fill-rule="evenodd" clip-rule="evenodd" d="M9.6604 10.6944L13.8006 14.5282L22.4752 8.07125L20.3066 3.63208L9.6604 10.6944Z" fill="url(#paint2_radial_165:3902)"/>
<path fill-rule="evenodd" clip-rule="evenodd" d="M22.4753 8.07122L33.9101 5.64986L33.1215 1.00891L20.3066 3.63206L22.4753 8.07122Z" fill="url(#paint3_radial_165:3902)"/>
<path fill-rule="evenodd" clip-rule="evenodd" d="M33.1213 1.0089L33.9099 5.64985L72.9458 6.45697L73.3401 0L33.1213 1.0089Z" fill="url(#paint4_radial_165:3902)"/>
<path fill-rule="evenodd" clip-rule="evenodd" d="M73.3401 0L72.9458 6.45697L91.6751 8.07122L92.0695 1.81602L73.3401 0Z" fill="url(#paint5_radial_165:3902)"/>
<path fill-rule="evenodd" clip-rule="evenodd" d="M92.0696 1.81603L91.6753 8.07122L287.841 4.84274L287.446 0.605347L92.0696 1.81603Z" fill="url(#paint6_radial_165:3902)"/>
<path fill-rule="evenodd" clip-rule="evenodd" d="M287.446 0.605347L287.84 4.84274L312.681 5.2463L312.879 1.00891L287.446 0.605347Z" fill="url(#paint7_radial_165:3902)"/>
<path fill-rule="evenodd" clip-rule="evenodd" d="M312.879 1.00891L312.682 5.2463L318.399 6.86054L319.188 2.01781L312.879 1.00891Z" fill="url(#paint8_radial_165:3902)"/>
<path fill-rule="evenodd" clip-rule="evenodd" d="M319.188 2.01782L318.399 6.86055L332.199 13.3175L336.34 10.8962L319.188 2.01782Z" fill="url(#paint9_radial_165:3902)"/>
<path fill-rule="evenodd" clip-rule="evenodd" d="M336.34 10.8961L332.199 13.3175L337.917 20.178L340.874 17.1513L336.34 10.8961Z" fill="url(#paint10_radial_165:3902)"/>
<path fill-rule="evenodd" clip-rule="evenodd" d="M340.874 17.1514L337.917 20.1781L341.663 34.5045L346 34.3027L340.874 17.1514Z" fill="url(#paint11_radial_165:3902)"/>
<path fill-rule="evenodd" clip-rule="evenodd" d="M346 34.3027L341.663 34.5045L339.691 41.9704L343.437 43.9882L346 34.3027Z" fill="url(#paint12_radial_165:3902)"/>
<path fill-rule="evenodd" clip-rule="evenodd" d="M343.437 43.9881L339.691 41.9703L332.199 53.6736L336.34 57.7092L343.437 43.9881Z" fill="url(#paint13_radial_165:3902)"/>
<path fill-rule="evenodd" clip-rule="evenodd" d="M332.199 53.6736L318.202 61.3412L319.779 66.5875L336.34 57.7092L332.199 53.6736Z" fill="url(#paint14_radial_165:3902)"/>
<path fill-rule="evenodd" clip-rule="evenodd" d="M318.202 61.3413L312.484 61.7449L293.558 62.552L293.361 68.0001L312.879 67.3947L319.779 66.5876L318.202 61.3413Z" fill="url(#paint15_radial_165:3902)"/>
<path fill-rule="evenodd" clip-rule="evenodd" d="M293.361 68.0001L293.558 62.552L273.449 60.5342L273.251 66.184L293.361 68.0001Z" fill="url(#paint16_radial_165:3902)"/>
<path fill-rule="evenodd" clip-rule="evenodd" d="M273.251 66.184L273.449 60.5342L78.6633 63.3591L78.269 67.3947L273.251 66.184Z" fill="url(#paint17_radial_165:3902)"/>
<path fill-rule="evenodd" clip-rule="evenodd" d="M78.2691 67.3946L78.6634 63.359L71.3688 62.3501L71.1716 65.7804L78.2691 67.3946Z" fill="url(#paint18_radial_165:3902)"/>
<path fill-rule="evenodd" clip-rule="evenodd" d="M71.1715 65.7804L71.3687 62.3501L60.9197 63.9643L61.5111 67.3946L71.1715 65.7804Z" fill="url(#paint19_radial_165:3902)"/>
<path fill-rule="evenodd" clip-rule="evenodd" d="M61.5112 67.3946L60.9197 63.9643L34.5015 62.3501L34.1072 68L61.5112 67.3946Z" fill="url(#paint20_radial_165:3902)"/>
<path fill-rule="evenodd" clip-rule="evenodd" d="M34.1071 68L34.5014 62.3501H24.4467L23.0667 66.1839L34.1071 68Z" fill="url(#paint21_radial_165:3902)"/>
<path fill-rule="evenodd" clip-rule="evenodd" d="M23.0667 66.184L24.4467 62.3501L13.012 55.0861L9.6604 57.7092L23.0667 66.184Z" fill="url(#paint22_radial_165:3902)"/>
<path fill-rule="evenodd" clip-rule="evenodd" d="M13.012 55.0861L6.9003 44.1899L2.95728 46.006L9.66041 57.7092L13.012 55.0861Z" fill="url(#paint23_radial_165:3902)"/>
<path fill-rule="evenodd" clip-rule="evenodd" d="M6.90028 44.1898L3.74587 33.6973L0 34.3026L2.95726 46.0059L6.90028 44.1898Z" fill="url(#paint24_radial_165:3902)"/>
<path fill-rule="evenodd" clip-rule="evenodd" d="M6.70312 43.181C6.90027 43.3828 7.09742 43.5846 7.29457 43.5846C8.28033 43.9881 19.9122 38.9436 21.8837 38.1365C30.5584 34.908 39.4302 31.8813 48.6963 29.4599C52.8365 26.635 56.9766 24.2136 62.1025 22.1958C64.0741 21.3887 72.3544 9.68546 71.7629 7.86944C71.5658 7.2641 71.5658 6.86054 71.1715 6.25519L33.91 5.64985L22.4752 8.07122L13.8006 14.5282L5.52021 26.0297L3.74585 33.4955L6.70312 43.181ZM74.7202 6.45697C73.9316 6.65876 72.9458 7.2641 72.5515 8.273C70.7772 11.5015 68.2142 16.546 65.257 20.178C63.0883 23.003 63.2855 22.1958 65.4541 22.8012C70.58 24.4154 88.7179 31.4777 103.11 38.5401C107.25 40.5579 254.325 44.7952 261.225 49.0326C262.211 49.638 263.394 50.0415 264.577 49.4362C273.843 44.997 284.292 40.9614 294.544 39.7507C297.107 39.3472 297.698 38.9436 298.487 35.9169C300.655 28.6528 303.613 21.5905 306.964 14.9318C308.541 14.3264 316.822 9.2819 317.61 6.65875C317.807 6.25519 313.273 5.24629 312.879 5.04451L287.84 4.84273L91.6752 8.07122L74.7202 6.45697ZM299.867 40.1543C310.71 42.3739 329.045 51.2522 331.214 52.4629C331.805 52.6647 332.594 52.4629 333.382 52.0593L339.691 42.1721L341.663 34.7062L337.917 20.3798L332.199 13.5193L320.37 8.07122C319.779 7.66766 318.793 7.86944 317.413 8.47478C316.624 8.87834 316.033 9.48368 315.639 9.88724C314.85 10.4926 314.259 11.0979 313.47 11.7033C311.499 13.1157 309.527 14.5282 307.358 15.9407C303.218 22.8012 300.655 30.2671 298.487 37.7329C298.092 39.7507 297.698 39.549 299.867 40.1543ZM330.425 54.6825C330.622 54.2789 330.622 53.8754 330.425 53.6736C328.651 50.6469 303.021 40.9614 297.895 40.5579C286.855 40.7596 274.631 45.4006 264.577 50.4451C263.788 50.8487 265.957 52.4629 266.351 52.8665C269.111 54.8843 271.674 57.1039 274.237 58.9199C275.814 60.1306 280.743 60.7359 286.46 61.7448C282.123 61.3412 277.786 60.9377 273.251 60.5341C268.52 60.7359 263.985 60.9377 259.254 61.1395C261.817 60.9377 271.477 60.1306 271.674 59.3234C271.674 58.9199 271.477 58.5163 270.885 57.911C263.394 50.2433 111.982 43.7863 102.519 39.1454C88.3236 32.0831 71.3686 25.6261 63.2854 23.6083C61.7082 23.2047 60.7225 23.6083 59.3424 24.2136C55.9909 25.8279 52.8364 27.8457 50.0763 30.2671C40.6131 32.4866 31.1498 35.5134 21.8837 38.7418C19.9122 39.549 8.08318 43.3828 7.49172 44.5935L7.29457 44.7952L13.012 55.086L24.4467 62.3501H34.5014C31.9384 62.3501 28.784 62.3501 26.4182 62.5519C24.841 62.7537 24.2496 64.1662 23.461 65.3769C23.461 64.9733 24.0524 62.5519 23.6581 62.1484C20.7008 60.1306 17.5464 58.1128 14.392 56.2967C12.8148 55.2878 11.829 56.2967 10.449 57.1039C11.0404 56.4985 12.6176 55.2878 12.0262 54.0771C10.449 51.0504 8.87178 48.2255 7.29457 45.4006C6.70312 44.1899 4.73161 45.1988 3.5487 45.6024C4.33731 44.997 6.50597 43.9881 6.30882 43.3828C5.91451 40.5579 4.92876 38.1365 3.943 35.5134C3.1544 33.2938 2.56295 34.1009 0.394287 34.1009C1.18289 33.8991 2.16865 33.6973 2.95725 33.2938C3.943 32.8902 4.33731 27.8457 4.53446 26.8368C4.53446 26.635 4.53446 26.2315 4.33731 26.0297C3.943 25.4243 3.1544 25.2226 2.56295 24.819C3.35155 25.0208 3.94301 25.2225 4.73161 25.2225C5.91452 25.2225 12.8148 15.1335 12.0262 13.7211C11.6319 12.9139 10.8433 11.905 10.0547 11.0979C11.2376 11.905 12.2233 12.9139 13.4063 13.5193C14.5892 14.1246 21.6866 8.47478 21.2923 6.65875C21.0951 5.85163 20.7008 4.84273 20.3065 4.03561C21.0951 5.04451 21.6866 6.05341 22.4752 6.86054C23.2638 7.66766 32.7271 6.25519 32.9242 4.23739C33.1214 3.22849 33.1213 2.42137 33.1213 1.41246C33.5157 2.42137 33.5157 3.83383 34.1071 4.64095C34.6986 5.44807 67.4256 5.24629 70.9743 5.44807C71.3686 5.44807 72.3544 5.24629 72.5515 4.23739C72.9458 3.02671 72.9458 1.61424 73.143 0.201782C73.143 1.61424 73.143 2.82493 73.3402 4.23739C73.3402 5.04451 73.9316 5.44807 74.3259 5.44807C79.649 6.05341 84.9721 6.45697 90.2951 6.86054C90.6894 6.86054 91.0837 6.86054 91.2809 6.45697C91.478 5.04451 91.6752 3.63205 91.8723 2.01781C92.0695 3.43027 92.0695 5.04451 92.2666 6.45697C92.2666 7.06232 92.6609 7.06232 93.2524 7.06232C111.39 5.24629 268.322 4.03561 286.263 4.03561C286.855 4.03561 287.249 3.43027 287.249 3.02671C287.249 2.21959 287.249 1.41246 287.249 0.605343C287.446 1.61424 287.643 2.42137 287.84 3.43027C287.84 3.83383 288.432 4.03561 288.629 4.03561C296.318 3.63205 303.81 3.83383 311.104 4.64095C311.301 4.64095 311.893 4.64095 312.09 4.23739C312.287 3.22849 312.484 2.21959 312.484 1.21068C312.484 2.21959 312.681 3.22849 312.681 4.43917C312.681 4.64095 312.681 5.04451 313.273 5.24629C314.456 5.64985 315.639 5.85163 317.019 6.25519C318.399 6.45697 318.596 3.63205 318.99 2.42137C318.99 3.22849 318.202 6.65876 319.187 6.86054C323.722 8.273 327.862 10.089 331.608 12.5104C332.594 13.1157 334.762 11.7033 335.748 11.0979C334.96 11.7033 334.171 12.3086 333.579 12.9139C333.185 13.1157 333.185 13.9228 333.579 14.1246C335.157 15.5371 336.34 16.9496 337.522 18.7656C337.72 19.1691 338.311 19.1691 338.705 18.9674C339.297 18.5638 339.888 18.1602 340.48 17.5549C339.888 18.362 339.297 18.9674 338.903 19.7745C338.705 19.9763 338.705 20.3798 338.705 20.5816C340.283 24.6172 341.268 28.6528 341.86 32.6884C342.057 34.3027 344.028 33.8991 345.211 34.1009C343.24 34.5044 341.86 34.1009 341.663 36.3205C341.466 37.7329 341.071 39.1454 340.48 40.7596C340.48 40.9614 340.48 41.1632 340.48 41.365C340.48 41.5668 340.677 41.7685 340.677 41.9703C341.268 42.3739 341.86 42.7774 342.254 43.181C341.663 42.9792 341.071 42.7774 340.48 42.5757C340.283 42.5757 339.888 42.5757 339.888 42.7774C337.325 46.0059 335.354 49.2344 333.382 52.6647C333.185 53.0682 333.185 53.8754 333.579 54.0771C334.171 54.8843 334.96 55.6914 335.551 56.4985C334.565 55.8932 333.777 55.086 332.791 54.4807C332.397 54.2789 331.608 54.0771 331.214 54.2789C327.271 56.2967 323.328 58.3145 319.582 60.5341C318.399 61.1395 319.187 63.7626 319.385 64.7715C318.399 62.7537 318.596 61.3412 316.23 61.1395C315.047 61.1395 313.667 61.1395 312.484 61.3412L318.202 60.7359L330.425 54.6825Z" fill="url(#paint25_radial_165:3902)"/>
<path fill-rule="evenodd" clip-rule="evenodd" d="M6.70311 43.1811C6.90027 43.3828 7.09742 43.5846 7.29457 43.5846C8.28032 43.9882 19.9122 38.9437 21.8837 38.1365C30.5584 34.9081 39.4302 31.8814 48.6963 29.46C52.8364 26.6351 56.9766 24.2137 62.1025 22.1959C64.0741 21.3888 72.3544 9.68551 71.7629 7.86949C71.5658 7.26415 71.5658 6.86058 71.1715 6.25524L33.91 5.6499L22.4752 8.07127L13.8006 14.5282L5.52021 26.0297L3.74585 33.4956L6.70311 43.1811Z" fill="url(#paint26_radial_165:3902)"/>
<path fill-rule="evenodd" clip-rule="evenodd" d="M22.0809 38.7418C20.1094 39.5489 8.2803 43.3827 7.68885 44.5934L7.4917 44.7952L13.2091 55.086L24.6438 62.3501H34.6985L61.1168 63.7625L71.5658 62.1483L79.0575 63.1572L259.648 61.1394C262.211 60.9376 271.871 60.1305 272.068 59.3234C272.068 58.9198 271.871 58.5163 271.28 57.9109C263.788 50.2433 112.376 43.7863 102.913 39.1453C88.7179 32.083 71.7629 25.6261 63.6797 23.6082C62.1025 23.2047 61.1168 23.6082 59.7367 24.2136C56.3851 25.8278 53.2307 27.8456 50.4706 30.267C40.6131 32.4866 31.347 35.5133 22.0809 38.7418Z" fill="url(#paint27_radial_165:3902)"/>
<path fill-rule="evenodd" clip-rule="evenodd" d="M65.2569 23.003C70.3828 24.6173 88.5207 31.6796 102.913 38.7419C107.053 40.7597 254.128 44.9971 261.028 49.2345C262.014 49.8398 263.196 50.2434 264.379 49.638C273.645 45.1989 284.094 41.1632 294.346 39.9526C296.909 39.549 297.501 39.1454 298.289 36.1187C300.458 28.8546 303.415 21.7923 306.767 15.1336C308.344 14.5282 316.624 9.48372 317.413 6.86058C317.413 6.6588 316.822 6.45702 316.23 6.25524L312.681 5.24633L287.84 4.84277L91.6751 8.07126L74.7201 6.6588C73.9315 6.86058 72.9458 7.46592 72.5515 8.47482C70.7771 11.7033 68.2141 16.7478 65.2569 20.3799C63.0882 23.2048 63.0882 22.3977 65.2569 23.003Z" fill="url(#paint28_radial_165:3902)"/>
<path fill-rule="evenodd" clip-rule="evenodd" d="M297.895 40.5579C286.855 40.7596 274.631 45.4006 264.577 50.4451C263.788 50.8487 265.957 52.4629 266.351 52.8665C269.111 54.8843 271.674 57.1039 274.237 58.9199C275.814 60.1306 280.743 60.7359 286.46 61.7448L293.361 62.3501L312.287 61.7448L318.004 61.1395L330.228 54.4807C330.425 54.0771 330.425 53.6736 330.228 53.4718C328.651 50.6469 303.021 40.7596 297.895 40.5579Z" fill="url(#paint29_radial_165:3902)"/>
<path fill-rule="evenodd" clip-rule="evenodd" d="M298.684 37.5311C298.092 39.549 297.895 39.5489 299.867 39.9525C310.71 42.1721 329.045 51.0504 331.214 52.2611C331.805 52.4629 332.594 52.2611 333.382 51.8576L339.691 41.9703L341.663 34.5044L337.917 20.178L332.199 13.3175L320.37 7.86942H320.173C319.582 7.66764 318.596 7.66764 317.413 8.47477C316.624 8.87833 316.033 9.48367 315.639 9.88723C314.85 10.4926 314.259 11.0979 313.47 11.7033C311.499 13.1157 309.527 14.5282 307.358 15.9406C303.218 22.8012 300.655 30.2671 298.684 37.5311Z" fill="url(#paint30_radial_165:3902)"/>
<path fill-rule="evenodd" clip-rule="evenodd" d="M312.484 57.1039C300.261 56.4985 282.32 56.095 269.703 56.2968C250.185 57.7092 91.478 57.911 71.3686 57.3057C67.0313 57.3057 62.8911 57.5075 59.3424 58.3146C51.2592 57.3057 42.1903 55.6914 33.91 56.095C25.8268 56.2968 16.955 50.0416 13.4062 44.1899C16.5607 50.4451 25.8268 57.7092 34.3043 57.5075C43.5704 56.4986 52.245 58.9199 59.7367 60.3324C63.4826 58.7181 67.4256 58.7181 71.5658 58.7181C91.6752 59.1217 249.987 58.5164 269.308 57.1039C281.926 56.9021 299.867 57.911 312.09 58.3146C316.23 57.1039 321.948 54.8843 326.088 51.6558C327.468 50.6469 328.848 49.2345 329.834 47.6202C330.425 46.8131 331.016 45.8042 331.608 44.7953C331.214 45.4006 330.819 46.006 330.425 46.6113C329.242 48.0238 328.059 49.4362 326.482 50.4451C322.342 53.6736 316.624 55.8932 312.484 57.1039Z" fill="url(#paint31_radial_165:3902)"/>
<path fill-rule="evenodd" clip-rule="evenodd" d="M33.7128 10.4926C43.1761 10.8962 57.9624 11.098 70.5801 10.8962C95.2239 11.2998 263.788 10.0891 288.629 8.47484C296.121 10.0891 315.244 11.098 320.962 12.5104C324.511 13.9229 329.045 18.3621 332.199 23.4066C332.397 23.8102 332.594 24.0119 332.791 24.4155C332.594 23.8102 332.199 23.2048 331.805 22.5995C328.848 17.555 324.313 12.914 320.568 11.5015C314.85 10.0891 295.726 9.48374 288.432 7.06238C263.985 9.68552 95.2239 10.4926 70.7772 9.8873C58.1596 10.0891 43.3732 9.8873 33.91 9.48374C25.0382 10.0891 16.3635 15.1336 12.6177 23.4066C16.5607 15.7389 25.0382 10.8962 33.7128 10.4926Z" fill="url(#paint32_radial_165:3902)"/>
<path opacity="0.5" fill-rule="evenodd" clip-rule="evenodd" d="M73.3402 1.61424C79.8461 2.42137 86.5493 3.83383 91.8723 5.44807C109.813 3.83383 268.914 3.02671 287.643 2.42137C296.121 2.21958 304.598 2.42136 312.879 3.02671C315.047 2.82493 317.216 3.02671 318.99 3.63205C324.313 5.64985 330.031 8.67656 334.368 11.905C336.34 13.3175 338.508 16.1424 339.494 18.362C341.663 22.8012 343.831 29.4599 345.014 34.1009C345.014 35.5134 345.014 36.9258 344.817 38.5401L346 34.1009L340.874 16.9496L336.142 10.6944L319.187 2.0178L312.681 1.21068L287.249 0.605341L92.0695 1.81602L73.3402 0L33.1214 1.0089L20.3065 3.63205L9.66038 10.6944L2.16865 24.6172L0.394287 31.8813C1.38004 29.6617 2.3658 27.4421 3.74585 25.4243C5.91452 20.9852 8.28033 16.7478 11.6319 12.7122C14.392 10.089 17.3493 7.46588 20.898 5.24629C25.0382 4.23739 29.1783 3.63205 33.5157 3.83383C46.3305 2.21958 60.9196 1.61424 73.3402 1.61424Z" fill="#EDF5F7"/>
<path fill-rule="evenodd" clip-rule="evenodd" d="M33.7129 10.4927C21.6867 11.098 10.252 19.9763 10.252 33.2938C10.252 36.5223 11.632 41.1633 12.0263 42.1722C14.7864 48.4274 24.4468 56.4986 33.5158 56.095C41.9933 55.8933 50.8651 57.5075 58.9483 58.3146C62.497 57.3057 66.8343 57.1039 70.9745 57.3057C91.281 57.7093 249.988 57.5075 269.308 56.2968C281.926 56.095 299.867 56.4986 312.09 57.1039C316.23 55.8933 321.948 53.8755 326.088 50.647C327.468 49.6381 328.848 48.2256 330.031 46.8131C333.185 42.7775 335.354 34.9081 335.354 33.4956C335.354 32.2849 333.974 27.0387 332.002 23.6084C328.848 18.5639 324.511 14.1247 320.765 12.7122C315.047 11.2998 295.924 10.2909 288.432 8.67664C263.985 10.0891 95.224 11.5016 70.5802 10.8962C57.9625 11.2998 43.1762 10.8962 33.7129 10.4927Z" fill="url(#paint33_linear_165:3902)"/>
<path opacity="0.75" fill-rule="evenodd" clip-rule="evenodd" d="M312.485 57.1039C300.261 56.4985 282.32 56.095 269.703 56.2968C250.185 57.7092 91.4783 57.911 71.3689 57.3057C67.0316 57.3057 62.8914 57.5075 59.3427 58.3146C51.2595 57.3057 42.1905 55.6914 33.9102 56.095C25.827 56.2968 16.9552 50.0416 13.4065 44.1899C16.5609 50.4451 25.827 57.7092 34.3045 57.5075C43.5706 56.4986 52.2452 58.9199 59.737 60.3324C63.4829 58.7181 67.4259 58.7181 71.566 58.7181C91.6754 59.1217 249.988 58.5164 269.309 57.1039C281.926 56.9021 299.867 57.911 312.09 58.3146C316.23 57.1039 321.948 54.8843 326.088 51.6558C327.468 50.6469 328.848 49.2345 329.834 47.6202C330.425 46.8131 331.017 45.8042 331.608 44.7953C331.214 45.4006 330.82 46.006 330.425 46.6113C329.242 48.0238 328.06 49.4362 326.482 50.4451C322.342 53.6736 316.625 55.8932 312.485 57.1039Z" fill="url(#paint34_radial_165:3902)"/>
<path fill-rule="evenodd" clip-rule="evenodd" d="M33.7128 10.4926C43.1761 10.8962 57.9624 11.098 70.5801 10.8962C95.2239 11.2998 263.788 10.0891 288.629 8.47484C296.121 10.0891 315.244 11.098 320.962 12.5104C324.511 13.9229 329.045 18.3621 332.199 23.4066C332.397 23.8102 332.594 24.0119 332.791 24.4155C332.594 23.8102 332.199 23.2048 331.805 22.5995C328.848 17.555 324.313 12.914 320.568 11.5015C314.85 10.0891 295.726 9.48374 288.432 7.06238C263.985 9.68552 95.2239 10.4926 70.7772 9.8873C58.1596 10.0891 43.3732 9.8873 33.91 9.48374C25.0382 10.0891 16.3635 15.1336 12.6177 23.4066C16.5607 15.7389 25.0382 10.8962 33.7128 10.4926Z" fill="url(#paint35_radial_165:3902)"/>
<path fill-rule="evenodd" clip-rule="evenodd" d="M33.9101 13.9229C23.2639 14.3265 12.8149 22.1959 12.8149 33.8992C12.8149 45.8042 23.2639 53.4719 33.7129 53.8754C80.2406 55.8932 265.563 55.8932 312.09 53.8754C322.539 53.4719 332.988 45.8042 332.988 33.8992C332.988 21.9941 322.539 14.3265 312.09 13.9229C265.76 11.9051 80.2406 11.9051 33.9101 13.9229Z" fill="url(#paint36_linear_165:3902)"/>
<path fill-rule="evenodd" clip-rule="evenodd" d="M30.3613 19.7746C12.4206 24.6173 30.3613 29.2583 40.8103 29.8636C58.3567 30.6707 297.107 26.0298 312.682 19.7746C316.427 18.3621 317.216 17.1514 301.247 16.5461C286.066 16.1425 45.5419 15.739 30.3613 19.7746Z" fill="url(#paint37_linear_165:3902)"/>
<path opacity="0.5" fill-rule="evenodd" clip-rule="evenodd" d="M319.976 47.6202C315.048 50.2434 307.162 50.6469 301.247 51.0505C285.672 51.6558 48.3023 51.6558 31.9387 50.2434C31.1501 50.2434 29.7701 49.8398 30.1644 49.4363C30.7558 48.0238 336.931 38.3383 319.976 47.6202Z" fill="url(#paint38_linear_165:3902)"/>
<defs>
<radialGradient id="paint0_radial_165:3902" cx="0" cy="0" r="1" gradientUnits="userSpaceOnUse" gradientTransform="translate(-9.7089 18.5442) scale(40.4256 41.3749)">
<stop stop-color="#9DA9AB"/>
<stop offset="1" stop-color="#555763"/>
</radialGradient>
<radialGradient id="paint1_radial_165:3902" cx="0" cy="0" r="1" gradientUnits="userSpaceOnUse" gradientTransform="translate(-9.35872 5.62279) scale(28.1741 28.8356)">
<stop stop-color="#E4ECF0"/>
<stop offset="1" stop-color="#828D94"/>
</radialGradient>
<radialGradient id="paint2_radial_165:3902" cx="0" cy="0" r="1" gradientUnits="userSpaceOnUse" gradientTransform="translate(7.58913 -5.4888) scale(22.9637 23.503)">
<stop stop-color="#E4ECF0"/>
<stop offset="1" stop-color="#828D94"/>
</radialGradient>
<radialGradient id="paint3_radial_165:3902" cx="0" cy="0" r="1" gradientUnits="userSpaceOnUse" gradientTransform="translate(15.1423 -33.3468) scale(42.2278 43.2193)">
<stop stop-color="#E4ECF0"/>
<stop offset="1" stop-color="#A6B4BD"/>
</radialGradient>
<radialGradient id="paint4_radial_165:3902" cx="0" cy="0" r="1" gradientUnits="userSpaceOnUse" gradientTransform="translate(69.2025 -36.6417) scale(53.8723 55.1373)">
<stop stop-color="#E4ECF0"/>
<stop offset="1" stop-color="#A6B4BD"/>
</radialGradient>
<radialGradient id="paint5_radial_165:3902" cx="0" cy="0" r="1" gradientUnits="userSpaceOnUse" gradientTransform="translate(87.5622 -21.3845) scale(29.3445 30.0336)">
<stop stop-color="#E4ECF0"/>
<stop offset="1" stop-color="#A6B4BD"/>
</radialGradient>
<radialGradient id="paint6_radial_165:3902" cx="0" cy="0" r="1" gradientUnits="userSpaceOnUse" gradientTransform="translate(280.803 -62.8183) scale(70.942 72.6079)">
<stop stop-color="#E4ECF0"/>
<stop offset="1" stop-color="#929EA6"/>
</radialGradient>
<radialGradient id="paint7_radial_165:3902" cx="0" cy="0" r="1" gradientUnits="userSpaceOnUse" gradientTransform="translate(300.674 -35.8059) scale(45.0299 46.0873)">
<stop stop-color="#BDCACF"/>
<stop offset="1" stop-color="#828599"/>
</radialGradient>
<radialGradient id="paint8_radial_165:3902" cx="0" cy="0" r="1" gradientUnits="userSpaceOnUse" gradientTransform="translate(317.589 -9.90116) scale(22.7075 23.2409)">
<stop stop-color="#E4ECF0"/>
<stop offset="1" stop-color="#A6B4BD"/>
</radialGradient>
<radialGradient id="paint9_radial_165:3902" cx="0" cy="0" r="1" gradientUnits="userSpaceOnUse" gradientTransform="translate(333.13 -29.038) scale(41.6836 42.6624)">
<stop stop-color="#E4ECF0"/>
<stop offset="1" stop-color="#A6B4BD"/>
</radialGradient>
<radialGradient id="paint10_radial_165:3902" cx="0" cy="0" r="1" gradientUnits="userSpaceOnUse" gradientTransform="translate(347.64 -17.3297) scale(37.6566 38.5411)">
<stop stop-color="#E4ECF0"/>
<stop offset="1" stop-color="#929EA6"/>
</radialGradient>
<radialGradient id="paint11_radial_165:3902" cx="0" cy="0" r="1" gradientUnits="userSpaceOnUse" gradientTransform="translate(345.224 11.8268) scale(38.3938 39.2955)">
<stop stop-color="#9DA9AB"/>
<stop offset="1" stop-color="#555763"/>
</radialGradient>
<radialGradient id="paint12_radial_165:3902" cx="0" cy="0" r="1" gradientUnits="userSpaceOnUse" gradientTransform="translate(350.087 29.9356) scale(21.1548 21.6516)">
<stop stop-color="#9DA9AB"/>
<stop offset="1" stop-color="#555763"/>
</radialGradient>
<radialGradient id="paint13_radial_165:3902" cx="0" cy="0" r="1" gradientUnits="userSpaceOnUse" gradientTransform="translate(328.298 30.668) scale(36.1722 37.0217)">
<stop stop-color="#9DA9AB"/>
<stop offset="1" stop-color="#555763"/>
</radialGradient>
<radialGradient id="paint14_radial_165:3902" cx="0" cy="0" r="1" gradientUnits="userSpaceOnUse" gradientTransform="translate(308.607 33.2433) scale(40.5448 41.4967)">
<stop stop-color="#9DA9AB"/>
<stop offset="1" stop-color="#555763"/>
</radialGradient>
<radialGradient id="paint15_radial_165:3902" cx="0" cy="0" r="1" gradientUnits="userSpaceOnUse" gradientTransform="translate(313.996 95.5454) scale(51.3365 52.5421)">
<stop stop-color="#9DA9AB"/>
<stop offset="1" stop-color="#555763"/>
</radialGradient>
<radialGradient id="paint16_radial_165:3902" cx="0" cy="0" r="1" gradientUnits="userSpaceOnUse" gradientTransform="translate(265.963 82.6225) scale(34.2562 35.0606)">
<stop stop-color="#9DA9AB"/>
<stop offset="1" stop-color="#555763"/>
</radialGradient>
<radialGradient id="paint17_radial_165:3902" cx="0" cy="0" r="1" gradientUnits="userSpaceOnUse" gradientTransform="translate(242.265 97.3675) scale(106.066 108.556)">
<stop stop-color="#9DA9AB"/>
<stop offset="1" stop-color="#555763"/>
</radialGradient>
<radialGradient id="paint18_radial_165:3902" cx="0" cy="0" r="1" gradientUnits="userSpaceOnUse" gradientTransform="translate(78.7302 42.2386) scale(34.5488 35.36)">
<stop stop-color="#9DA9AB"/>
<stop offset="1" stop-color="#555763"/>
</radialGradient>
<radialGradient id="paint19_radial_165:3902" cx="0" cy="0" r="1" gradientUnits="userSpaceOnUse" gradientTransform="translate(65.1746 41.6827) scale(25.3183 25.9129)">
<stop stop-color="#9DA9AB"/>
<stop offset="1" stop-color="#555763"/>
</radialGradient>
<radialGradient id="paint20_radial_165:3902" cx="0" cy="0" r="1" gradientUnits="userSpaceOnUse" gradientTransform="translate(50.8999 95.9315) scale(43.7378 44.7649)">
<stop stop-color="#9DA9AB"/>
<stop offset="1" stop-color="#555763"/>
</radialGradient>
<radialGradient id="paint21_radial_165:3902" cx="0" cy="0" r="1" gradientUnits="userSpaceOnUse" gradientTransform="translate(20.508 87.0228) scale(41.9853 42.9712)">
<stop stop-color="#9DA9AB"/>
<stop offset="1" stop-color="#555763"/>
</radialGradient>
<radialGradient id="paint22_radial_165:3902" cx="0" cy="0" r="1" gradientUnits="userSpaceOnUse" gradientTransform="translate(26.493 36.5957) scale(29.7556 30.4543)">
<stop stop-color="#9DA9AB"/>
<stop offset="1" stop-color="#555763"/>
</radialGradient>
<radialGradient id="paint23_radial_165:3902" cx="0" cy="0" r="1" gradientUnits="userSpaceOnUse" gradientTransform="translate(-13.3704 48.477) scale(45.3556 46.4206)">
<stop stop-color="#9DA9AB"/>
<stop offset="1" stop-color="#555763"/>
</radialGradient>
<radialGradient id="paint24_radial_165:3902" cx="0" cy="0" r="1" gradientUnits="userSpaceOnUse" gradientTransform="translate(-6.09926 34.3829) scale(31.2029 31.9356)">
<stop stop-color="#9DA9AB"/>
<stop offset="1" stop-color="#555763"/>
</radialGradient>
<radialGradient id="paint25_radial_165:3902" cx="0" cy="0" r="1" gradientUnits="userSpaceOnUse" gradientTransform="translate(58.6587 -58.5018) scale(335.949 343.838)">
<stop stop-color="#E2F1F7"/>
<stop offset="1" stop-color="#9A9DB5"/>
</radialGradient>
<radialGradient id="paint26_radial_165:3902" cx="0" cy="0" r="1" gradientUnits="userSpaceOnUse" gradientTransform="translate(30.4884 61.3451) scale(94.8141 97.0404)">
<stop stop-color="#AAB4B8"/>
<stop offset="1" stop-color="#828599"/>
</radialGradient>
<radialGradient id="paint27_radial_165:3902" cx="0" cy="0" r="1" gradientUnits="userSpaceOnUse" gradientTransform="translate(111.882 105.811) scale(284.294 290.969)">
<stop stop-color="#717485"/>
<stop offset="1" stop-color="#9DA9AB"/>
</radialGradient>
<radialGradient id="paint28_radial_165:3902" cx="0" cy="0" r="1" gradientUnits="userSpaceOnUse" gradientTransform="translate(127.89 86.9329) scale(300.236 307.286)">
<stop stop-color="#AAB4B8"/>
<stop offset="1" stop-color="#828599"/>
</radialGradient>
<radialGradient id="paint29_radial_165:3902" cx="0" cy="0" r="1" gradientUnits="userSpaceOnUse" gradientTransform="translate(272.387 -6.438) scale(88.8203 90.9059)">
<stop stop-color="#9DA9AB"/>
<stop offset="1" stop-color="#717485"/>
</radialGradient>
<radialGradient id="paint30_radial_165:3902" cx="0" cy="0" r="1" gradientUnits="userSpaceOnUse" gradientTransform="translate(279.648 42.023) scale(73.6026 75.3309)">
<stop stop-color="#9DA9AB"/>
<stop offset="1" stop-color="#717485"/>
</radialGradient>
<radialGradient id="paint31_radial_165:3902" cx="0" cy="0" r="1" gradientUnits="userSpaceOnUse" gradientTransform="translate(121.011 5.13796) scale(234.141 239.639)">
<stop stop-color="#E2F1F7"/>
<stop offset="1" stop-color="#9A9DB5"/>
</radialGradient>
<radialGradient id="paint32_radial_165:3902" cx="0" cy="0" r="1" gradientUnits="userSpaceOnUse" gradientTransform="translate(114.779 3.47956) scale(218.138 223.26)">
<stop stop-color="#E2F1F7"/>
<stop offset="1" stop-color="#9A9DB5"/>
</radialGradient>
<linearGradient id="paint33_linear_165:3902" x1="172.997" y1="58.4097" x2="172.997" y2="8.57716" gradientUnits="userSpaceOnUse">
<stop stop-color="#5B666B"/>
<stop offset="1" stop-color="#4A555C"/>
</linearGradient>
<radialGradient id="paint34_radial_165:3902" cx="0" cy="0" r="1" gradientUnits="userSpaceOnUse" gradientTransform="translate(134.496 8.84407) scale(212.746 217.741)">
<stop stop-color="#E2F1F7"/>
<stop offset="1" stop-color="#9A9DB5"/>
</radialGradient>
<radialGradient id="paint35_radial_165:3902" cx="0" cy="0" r="1" gradientUnits="userSpaceOnUse" gradientTransform="translate(112.008 -28.6409) scale(272.231 278.624)">
<stop stop-color="#E2F1F7"/>
<stop offset="1" stop-color="#9A9DB5"/>
</radialGradient>
<linearGradient id="paint36_linear_165:3902" x1="172.997" y1="55.5615" x2="172.997" y2="12.3706" gradientUnits="userSpaceOnUse">
<stop stop-color="#FBB097"/>
<stop offset="1" stop-color="#FCD3A5"/>
</linearGradient>
<linearGradient id="paint37_linear_165:3902" x1="169.993" y1="33.3913" x2="167.654" y2="7.26817" gradientUnits="userSpaceOnUse">
<stop stop-color="#FFFEFE" stop-opacity="0"/>
<stop offset="1" stop-color="white" stop-opacity="0.37"/>
</linearGradient>
<linearGradient id="paint38_linear_165:3902" x1="177.741" y1="72.1369" x2="172.385" y2="22.3515" gradientUnits="userSpaceOnUse">
<stop stop-color="white" stop-opacity="0.09"/>
<stop offset="1" stop-color="white"/>
<stop offset="1" stop-color="white" stop-opacity="0"/>
</linearGradient>
</defs>
</svg>
